<svg width="180" height="180" viewBox="0 0 180 180" fill="none" xmlns="http://www.w3.org/2000/svg">
<path d="M125.736 56.6516C125.955 64.0843 130.656 71.6263 137.434 73.9217C141.152 75.2333 145.088 74.9054 148.914 75.8891C152.741 76.8729 156.677 79.7148 156.895 83.759C157.005 84.7428 156.786 85.8358 157.005 86.8195C157.661 89.5521 160.831 90.4266 163.237 91.5196C176.247 97.2034 169.578 111.413 156.349 116.222C150.445 118.408 147.821 118.736 141.589 117.862C135.357 116.987 129.563 113.38 125.08 108.68C120.598 103.98 117.318 98.1872 114.694 92.1754C111.632 85.2893 109.446 77.5287 110.758 70.2053C111.96 62.8819 117.864 56.1051 125.736 56.6516Z" fill="#6C93F9"/>
<path d="M146.837 118.955C145.306 118.955 143.557 118.846 141.37 118.518C135.466 117.643 129.453 114.364 124.533 109.118C120.488 104.964 117.099 99.4989 114.038 92.3941C110.211 83.5405 108.899 76.4357 109.992 70.0961C111.304 62.882 117.208 55.5586 125.627 56.1052C125.955 56.1052 126.173 56.3238 126.173 56.6517C126.392 64.1937 131.093 71.1891 137.544 73.4845C139.512 74.1403 141.698 74.3589 143.776 74.6869C145.525 74.9055 147.274 75.0148 148.914 75.452C152.741 76.4357 157.005 79.4962 157.223 83.8684C157.223 84.3056 157.223 84.6335 157.223 85.0707C157.223 85.7266 157.223 86.2731 157.333 86.8196C157.879 88.8964 160.066 89.7708 162.143 90.6452C162.471 90.7545 162.909 90.9732 163.237 91.0825C168.156 93.2685 170.78 96.7663 170.562 101.029C170.343 107.259 164.33 113.818 156.349 116.769C152.631 118.19 150.117 118.955 146.837 118.955ZM124.861 57.1982C117.536 57.1982 112.398 63.8658 111.195 70.3147C110.102 76.4357 111.304 83.3219 115.131 91.9569C118.192 98.843 121.581 104.199 125.408 108.353C130.109 113.38 135.904 116.55 141.589 117.425C147.93 118.299 150.445 117.862 156.13 115.894C163.783 113.162 169.468 106.932 169.687 101.138C169.796 97.3128 167.5 94.143 163.018 92.1755C162.69 92.0662 162.362 91.8476 161.925 91.7383C159.629 90.7545 157.005 89.7708 156.458 87.1475C156.239 86.3824 156.349 85.7266 156.349 85.0707C156.349 84.7428 156.349 84.3056 156.349 83.9777C156.13 80.1521 152.303 77.4195 148.805 76.545C147.165 76.1078 145.416 75.8892 143.776 75.7799C141.589 75.5613 139.402 75.3427 137.325 74.5775C130.656 72.2822 125.627 65.0681 125.299 57.3075C125.08 57.1982 124.971 57.1982 124.861 57.1982Z" fill="black"/>
<path d="M92.2808 58.2912C91.0782 56.8703 87.7983 57.854 87.9076 59.7122C88.1262 64.1937 87.4703 68.2379 84.081 73.0473C82.441 75.3427 80.1451 77.5288 78.7238 79.9334C76.9745 82.7753 76.4278 85.9452 76.3185 88.8964C76.0999 94.5802 77.4118 100.483 81.8944 104.527C86.377 108.571 94.6861 110.32 101.465 107.478C107.368 104.964 110.758 99.4989 111.195 94.4709C111.632 89.4429 109.664 84.7428 107.478 80.2613C103.323 71.7356 98.1847 65.1774 92.2808 58.2912Z" fill="#6C93F9"/>
<path d="M94.1395 109.336C89.4382 109.336 84.6277 107.806 81.4571 104.855C77.4118 101.138 75.4439 95.7825 75.7719 88.7871C75.8812 84.9614 76.7559 82.0102 78.1772 79.4962C79.0518 78.0753 80.1451 76.7636 81.2384 75.452C82.0037 74.5775 82.8784 73.5938 83.5344 72.6101C87.1423 67.5821 87.4703 63.4285 87.2516 59.6029C87.2516 58.6192 87.9076 57.6354 89.1102 57.1982C90.2036 56.761 91.7342 56.761 92.6088 57.854C99.1687 65.5053 103.979 71.8449 107.915 79.9334C110.102 84.4149 112.179 89.2243 111.742 94.4709C111.195 100.264 107.259 105.511 101.683 107.915C99.3873 108.899 96.7634 109.336 94.1395 109.336ZM90.5315 58.0726C90.2036 58.0726 89.8756 58.1819 89.5476 58.2912C89.0009 58.5098 88.3449 58.9471 88.3449 59.6029C88.6729 63.6471 88.2356 68.0193 84.5184 73.2659C83.753 74.2496 82.9877 75.2334 82.2224 76.2171C81.1291 77.5288 80.0358 78.8404 79.2705 80.1521C77.8492 82.5567 77.0839 85.2893 76.9745 88.8964C76.7559 95.5639 78.5052 100.592 82.3317 104.09C86.2676 107.697 94.3581 109.883 101.355 106.932C106.603 104.636 110.32 99.7175 110.758 94.3616C111.195 89.4429 109.118 84.7428 107.041 80.48C103.214 72.5008 98.4034 66.2704 91.9529 58.6192C91.5155 58.2912 91.0782 58.0726 90.5315 58.0726Z" fill="black"/>
<path d="M104.635 98.1873C104.635 92.8314 104.089 87.4755 103.214 81.4638C105.291 80.3707 107.587 79.4963 109.992 79.0591C111.086 78.8405 112.288 78.7312 113.054 79.387C113.6 79.8242 113.819 80.3707 114.147 80.9173C116.006 84.9615 117.864 88.8965 119.723 92.9407C119.832 93.2686 120.051 93.5965 120.051 93.9244C120.051 94.3616 119.723 94.7989 119.395 95.2361C115.896 99.171 109.664 100.592 104.635 98.1873Z" fill="white"/>
<path d="M109.992 99.8268C108.134 99.8268 106.166 99.3896 104.417 98.6245C104.198 98.5152 104.089 98.2966 104.089 98.0779C104.089 92.8314 103.542 87.6941 102.777 81.4637C102.777 81.2451 102.886 81.0265 103.105 80.9172C105.291 79.7149 107.587 78.9497 109.992 78.4032C111.086 78.1846 112.507 78.0753 113.491 78.8404C114.147 79.2777 114.475 80.0428 114.803 80.5893L120.379 92.6127C120.488 92.9407 120.707 93.3779 120.707 93.8151C120.707 94.4709 120.269 95.0174 119.832 95.4546C117.318 98.4059 113.6 99.8268 109.992 99.8268ZM105.182 97.75C109.774 99.7175 115.678 98.5152 119.067 94.7988C119.286 94.4709 119.614 94.143 119.614 93.8151C119.614 93.5965 119.504 93.3779 119.395 93.05L113.819 81.0265C113.6 80.48 113.382 79.9335 112.944 79.6056C112.288 79.059 111.195 79.2777 110.211 79.387C108.024 79.8242 105.947 80.5893 103.87 81.573C104.635 87.6941 105.182 92.722 105.182 97.75Z" fill="black"/>
<path d="M170.671 142.565C168.266 132.727 158.207 108.462 149.679 100.155C143.338 93.9244 128.469 91.5197 119.176 90.8639C117.646 94.6895 113.163 99.0617 109.118 98.6245C107.04 98.4059 104.963 96.8756 103.761 94.6895C96.5447 98.4059 89.1102 102.122 83.5343 108.134C75.4438 116.769 71.7266 130.541 68.3373 142.674C76.3185 142.346 83.6437 143.111 91.6248 142.783C95.8887 142.565 101.137 142.127 105.51 142.127C119.395 142.237 173.404 153.932 170.671 142.565Z" fill="white"/>
<path d="M82.3317 51.9516C83.8623 56.6517 85.8303 61.5703 85.5023 66.7076C85.2836 69.4402 87.9076 82.8846 99.3873 84.6335C105.401 85.6172 111.851 83.9777 116.99 79.2776C120.488 76.1078 123.877 67.8007 121.581 60.5866C125.08 60.9145 127.813 58.0726 127.376 55.1214C127.048 53.3725 124.861 51.6237 122.893 52.0609C121.363 52.3888 121.144 52.4981 120.16 53.5911C118.739 50.312 117.536 46.8143 116.88 42.77C112.398 39.3816 106.056 38.3979 99.934 38.6165C97.8567 38.7258 95.8887 38.8351 93.9208 39.4909C88.2356 41.3491 80.8011 47.0329 82.3317 51.9516Z" fill="white"/>
<path d="M102.777 85.3987C101.683 85.3987 100.481 85.2894 99.278 85.1801C87.6889 83.3219 84.737 70.0961 84.9557 66.5984C85.2836 62.2262 83.8623 57.9633 82.441 53.8098C82.2224 53.2633 82.0037 52.6074 81.8944 52.0609C81.4571 50.64 81.5664 49.1097 82.441 47.5795C84.409 43.7538 89.6569 40.3654 93.7021 39.0537C95.8887 38.3979 98.1847 38.1793 99.934 38.1793C105.073 37.9607 112.179 38.6165 117.318 42.4422C117.427 42.5515 117.536 42.6608 117.536 42.7701C118.083 46.1585 119.067 49.3283 120.488 52.6074C121.144 51.9516 121.581 51.8423 122.893 51.5144C123.877 51.2958 125.08 51.5144 126.064 52.1702C127.157 52.8261 127.923 53.9191 128.032 54.9028C128.251 56.4331 127.813 57.9633 126.72 59.0564C125.627 60.2587 124.096 60.9146 122.456 61.0239C124.424 68.4565 120.925 76.545 117.536 79.6055C113.163 83.4312 108.024 85.3987 102.777 85.3987ZM82.8784 51.733C83.097 52.2795 83.2064 52.9354 83.425 53.4819C84.8463 57.7447 86.377 62.1169 86.049 66.7077C85.9396 68.5658 87.9076 82.2288 99.4966 84.087C105.729 85.0707 111.851 83.2126 116.662 78.9497C119.942 75.9985 123.331 67.91 121.035 60.8053C120.925 60.5866 121.035 60.4773 121.144 60.2587C121.253 60.1494 121.472 60.0401 121.581 60.0401C123.112 60.1494 124.643 59.6029 125.736 58.5099C126.611 57.5261 126.939 56.4331 126.72 55.2307C126.611 54.4656 125.955 53.7005 125.189 53.154C124.424 52.6074 123.549 52.4981 122.893 52.6074C121.472 52.9354 121.363 52.9354 120.488 53.9191C120.379 54.0284 120.16 54.1377 119.942 54.1377C119.723 54.1377 119.614 54.0284 119.504 53.8098C117.864 50.0935 116.88 46.705 116.224 43.098C111.523 39.6003 104.745 39.0537 99.8246 39.2724C98.1847 39.3817 95.9981 39.491 93.9208 40.1468C90.0942 41.3491 85.1743 44.5189 83.3157 48.126C82.6597 49.4376 82.5504 50.64 82.8784 51.733Z" fill="black"/>
<path d="M105.619 35.7746C112.563 35.7746 118.192 30.1468 118.192 23.2046C118.192 16.2624 112.563 10.6346 105.619 10.6346C98.6753 10.6346 93.0461 16.2624 93.0461 23.2046C93.0461 30.1468 98.6753 35.7746 105.619 35.7746Z" fill="#6C93F9"/>
<path d="M105.619 36.3211C100.918 36.3211 96.3261 33.6979 93.9208 29.2164C90.5315 22.7674 93.0461 14.7883 99.4967 11.5091C105.947 8.12071 113.928 10.6347 117.208 17.0836C120.598 23.5326 118.083 31.5118 111.632 34.7909C109.774 35.8839 107.696 36.3211 105.619 36.3211ZM105.619 11.1812C103.761 11.1812 101.793 11.6184 100.043 12.4929C94.1394 15.5534 91.8435 22.8768 94.9048 28.7792C97.966 34.6816 105.291 36.977 111.195 33.9165C117.099 30.8559 119.395 23.5326 116.334 17.6302C114.147 13.5859 109.992 11.1812 105.619 11.1812Z" fill="black"/>
<path d="M119.832 53.8099C115.131 50.3121 110.867 45.7214 107.696 40.4748C99.0593 51.1866 88.1262 53.9192 77.4118 57.5262C76.5371 55.7773 76.2091 53.8099 76.3185 51.8424C76.5371 46.9237 77.5211 42.5515 82.8783 37.3049C86.5956 33.5886 92.1714 30.0909 97.31 28.8885C102.449 27.7955 107.478 28.8885 112.07 30.7467C115.678 32.277 119.504 35.4468 121.8 39.1631C123.768 42.3329 125.08 48.2353 124.861 52.3889C124.205 52.061 123.331 51.9517 122.237 52.2796C121.472 52.4982 120.597 53.154 119.832 53.8099Z" fill="#6C93F9"/>
<path d="M77.4118 58.0727C77.1932 58.0727 76.9745 57.9634 76.9745 57.7448C76.0998 56.1052 75.6625 54.0284 75.7719 51.733C76.0998 46.2678 77.3025 41.8957 82.441 36.7584C85.8303 33.4793 91.4062 29.435 97.0914 28.2327C101.683 27.2489 106.712 27.9048 112.179 30.0908C116.006 31.6211 119.832 35.0095 122.128 38.7259C124.096 42.005 125.517 47.9074 125.299 52.2796C125.299 52.4982 125.189 52.6075 125.08 52.7168C124.971 52.8261 124.752 52.8261 124.533 52.7168C123.987 52.4982 123.331 52.2796 122.237 52.7168C121.691 52.9354 120.925 53.4819 120.16 54.1377C119.942 54.3563 119.723 54.3563 119.504 54.1377C114.694 50.5307 110.648 46.1585 107.696 41.2398C99.8246 50.64 89.8755 53.8098 80.3637 56.9796C79.4891 57.3075 78.5051 57.5262 77.6305 57.8541C77.5211 57.9634 77.5211 58.0727 77.4118 58.0727ZM101.574 28.8885C100.153 28.8885 98.7313 28.9978 97.4194 29.3257C91.9528 30.5281 86.5956 34.3537 83.3157 37.5235C77.8491 42.8794 77.1932 47.4702 76.9745 51.733C76.8652 53.5912 77.1932 55.3401 77.8491 56.761C78.6145 56.5424 79.3798 56.2145 80.1451 55.9959C90.2035 52.7168 99.7153 49.6563 107.478 40.0375C107.587 39.9282 107.806 39.8189 107.915 39.8189C108.134 39.8189 108.243 39.9282 108.352 40.0375C111.195 44.9562 115.24 49.4377 119.942 52.9354C120.597 52.3889 121.363 51.8423 122.128 51.5144C123.003 51.1865 123.768 51.1865 124.424 51.2958C124.424 47.2516 123.221 42.005 121.363 39.1631C119.176 35.6653 115.459 32.3862 111.851 30.9653C108.243 29.6536 104.745 28.8885 101.574 28.8885Z" fill="black"/>
<path d="M105.291 78.4032C104.635 78.4032 104.089 78.2939 103.542 77.966C103.323 77.8566 103.214 77.5287 103.323 77.2008C103.433 76.9822 103.761 76.8729 104.089 76.9822C105.401 77.7473 106.822 76.8729 107.15 76.6543C108.352 75.8892 109.227 74.5775 109.664 73.1566C109.774 72.8287 109.992 72.7194 110.32 72.7194C110.648 72.8287 110.758 73.0473 110.758 73.3752C110.32 75.1241 109.227 76.6543 107.806 77.5287C107.04 78.1846 106.166 78.4032 105.291 78.4032Z" fill="black"/>
<path d="M108.571 59.3843C108.352 58.8378 107.696 58.5099 107.04 58.7285C106.384 58.9471 106.057 59.6029 106.275 60.1495C106.494 60.696 107.15 61.0239 107.806 60.8053C108.352 60.696 108.68 60.0402 108.571 59.3843Z" fill="black"/>
<path d="M90.6409 63.7565C90.4222 63.2099 89.7662 62.882 89.1102 63.1006C88.4543 63.3192 88.1263 63.9751 88.3449 64.5216C88.5636 65.0681 89.2196 65.396 89.8756 65.1774C90.5315 64.9588 90.8595 64.303 90.6409 63.7565Z" fill="black"/>
<path d="M100.262 69.9868C100.153 69.9868 100.153 69.9868 100.262 69.9868L98.5127 69.6589C98.294 69.6589 97.8567 69.5496 97.6381 69.1124C97.3101 68.6752 97.6381 68.1287 97.7474 67.91C98.622 66.1612 98.622 63.9751 97.7474 62.3355C97.6381 62.1169 97.7474 61.789 97.9661 61.5704C98.1847 61.4611 98.5127 61.5704 98.7314 61.789C99.7153 63.8658 99.7153 66.2705 98.7314 68.3473C98.7314 68.3473 98.7314 68.4566 98.622 68.4566C98.622 68.4566 98.622 68.4566 98.7314 68.4566L100.371 68.7845C100.699 68.7845 100.918 69.1124 100.809 69.4403C100.699 69.7682 100.481 69.9868 100.262 69.9868Z" fill="black"/>
<path d="M109.883 68.1286C108.68 68.1286 107.478 67.8007 106.275 67.1448C104.526 66.1611 103.214 64.5215 102.558 62.4448C101.246 58.2912 103.214 53.8097 107.04 52.6074C110.867 51.4051 115.022 53.8097 116.443 57.9633C117.099 59.9308 116.99 62.1169 116.224 63.975C115.35 65.8332 113.928 67.2541 112.07 67.8007C111.304 68.0193 110.648 68.1286 109.883 68.1286ZM109.118 53.4818C108.571 53.4818 108.024 53.5911 107.368 53.7004C104.198 54.7935 102.449 58.5098 103.651 62.1169C104.198 63.8657 105.401 65.2867 106.931 66.1611C108.462 67.0355 110.102 67.2541 111.632 66.7076C113.163 66.1611 114.475 65.0681 115.131 63.4285C115.896 61.7889 115.896 59.9308 115.35 58.1819C114.366 55.34 111.851 53.4818 109.118 53.4818Z" fill="black"/>
<path d="M90.6409 72.7194C87.4703 72.7194 84.409 70.5333 83.3157 67.0356C82.6597 65.0681 82.7691 62.882 83.5344 61.0239C84.409 59.1657 85.8303 57.7447 87.6889 57.1982C91.5155 55.9959 95.6701 58.4006 97.0914 62.5541C98.4034 66.7077 96.4354 71.1891 92.6088 72.3915C92.0622 72.6101 91.2969 72.7194 90.6409 72.7194ZM89.8756 57.9634C89.3289 57.9634 88.7823 58.0727 88.1263 58.182C86.5956 58.7285 85.2837 59.8215 84.6277 61.4611C83.8624 63.1006 83.8624 64.9588 84.409 66.7077C85.6117 70.3147 89.1102 72.3915 92.3902 71.2984C95.5608 70.2054 97.3101 66.4891 96.1074 62.882C95.1234 59.9308 92.4995 57.9634 89.8756 57.9634Z" fill="black"/>
<path d="M96.2167 62.0075C95.9981 62.0075 95.7794 61.7889 95.6701 61.5703C95.4514 60.368 96.4354 59.3842 97.4194 58.947C99.0593 58.1819 101.137 58.2912 102.667 59.1656C102.886 59.2749 102.995 59.6029 102.886 59.9308C102.777 60.1494 102.449 60.2587 102.121 60.1494C100.918 59.3842 99.1687 59.3842 97.8567 59.9308C97.2007 60.2587 96.5447 60.8052 96.6541 61.3517C96.7634 61.6796 96.5447 61.8982 96.2167 62.0075C96.3261 62.0075 96.2167 62.0075 96.2167 62.0075Z" fill="black"/>
<path d="M113.71 55.34C113.491 55.34 113.163 55.1214 113.163 54.9028C113.163 54.5749 113.272 54.3563 113.6 54.247L119.067 53.3726C119.395 53.3726 119.614 53.4819 119.723 53.8098C119.723 54.1377 119.614 54.3563 119.286 54.4656L113.71 55.34C113.71 55.34 113.819 55.34 113.71 55.34Z" fill="black"/>
<path d="M113.928 28.1233C113.819 28.1233 113.71 28.1233 113.6 28.014C112.398 27.0303 110.976 26.3745 109.118 26.0466C107.478 25.7187 105.729 25.7187 104.089 25.7187C103.761 25.7187 103.542 25.5 103.542 25.1721C103.542 24.8442 103.761 24.6256 104.089 24.6256C105.729 24.6256 107.587 24.6256 109.336 25.0628C111.304 25.5 112.944 26.1559 114.256 27.2489C114.475 27.4675 114.475 27.7954 114.366 28.014C114.256 28.014 114.038 28.1233 113.928 28.1233Z" fill="black"/>
<path d="M120.925 58.2913C120.707 58.2913 120.379 58.0727 120.379 57.8541C120.16 56.4331 119.614 55.1215 118.848 53.9191C118.63 53.7005 118.739 53.3726 118.958 53.154C119.176 52.9354 119.504 53.0447 119.723 53.2633C120.597 54.575 121.144 56.1052 121.472 57.6355C121.581 57.9634 121.363 58.182 120.925 58.2913C121.035 58.2913 121.035 58.2913 120.925 58.2913Z" fill="black"/>
<g opacity="0.1294">
<path d="M96.5447 26.5931C96.8727 26.2652 97.2007 26.2652 97.638 26.1559C98.294 26.0466 98.8407 25.8279 99.4967 25.8279C103.214 25.1721 107.04 25.7186 110.539 27.0303C111.414 27.3582 112.398 27.7954 113.272 28.2326C113.819 28.5605 114.475 28.6698 114.803 29.2164C115.678 30.4187 114.147 32.0583 112.944 31.1838C110.976 29.9815 107.259 28.7792 104.854 28.5605C102.558 28.3419 102.011 28.3419 99.934 28.6698C99.3873 28.7792 98.7313 28.7792 98.1847 28.8885C97.7474 28.9978 97.2007 29.1071 96.7634 28.7792C95.9981 28.2326 95.9981 27.1396 96.5447 26.5931Z" fill="black"/>
</g>
<g opacity="0.1294">
<path d="M82.5504 56.4331C82.5504 55.9958 82.8784 55.6679 83.3157 55.5586C83.425 55.5586 84.1904 55.34 84.2997 55.2307C85.393 54.9028 86.5956 54.5749 87.5796 54.247C89.6569 53.3725 91.7342 52.7167 93.7021 51.6237C96.1074 50.5306 98.1847 49.219 100.699 47.3608C102.995 45.612 104.417 43.9724 106.275 41.4584C106.603 41.0212 106.822 40.4747 107.368 40.3654C108.024 40.2561 108.571 41.1305 108.134 41.677C106.057 44.4096 103.979 47.2515 101.246 49.3283C99.606 50.5306 97.966 51.6237 96.2167 52.6074C94.7954 53.3725 93.2648 54.0284 91.8435 54.6842C89.5476 55.6679 87.3609 56.6517 85.065 57.3075C84.737 57.4168 84.2997 57.5261 83.9717 57.6354C83.753 57.6354 83.5344 57.7447 83.3157 57.6354C82.8784 57.4168 82.5504 56.8703 82.5504 56.4331Z" fill="black"/>
</g>
<g opacity="0.1294">
<path d="M104.198 91.629C104.198 91.1918 104.198 90.7546 104.089 90.3174C104.089 89.5522 104.089 88.6778 103.979 87.9127C103.979 87.1475 103.87 86.3824 103.87 85.6173C103.87 85.508 103.87 85.508 103.761 85.3987C103.761 85.2894 103.761 85.2894 103.761 85.1801C103.761 84.9615 103.651 84.8522 103.542 84.8522C103.87 84.3056 104.745 84.6335 105.291 84.6335C105.729 84.6335 106.166 84.7428 107.15 84.6335C107.915 84.6335 111.851 83.5405 112.179 83.2126C112.398 82.994 112.616 82.8847 112.835 82.6661C113.382 82.4475 113.928 82.2289 114.475 82.0103C114.475 82.1196 114.475 82.1196 114.584 82.2289C114.584 82.3382 114.694 82.4475 114.694 82.4475C114.694 82.5568 114.803 82.5568 114.803 82.6661C114.912 82.8847 115.131 83.1033 115.24 83.3219C115.24 83.4312 115.131 83.4312 115.131 83.5405C113.382 85.2894 111.523 87.0382 109.883 88.8964C109.008 89.7708 108.243 90.7546 107.368 91.629C106.931 91.9569 106.603 92.3941 106.166 92.722C106.166 92.722 106.057 92.722 106.057 92.8313C106.057 92.8313 105.947 92.8314 105.947 92.9407C105.838 92.9407 105.729 93.05 105.619 93.05C105.182 93.05 104.854 92.8314 104.635 92.6127C104.526 92.6127 104.526 92.5034 104.417 92.3941C104.198 92.0662 104.198 91.8476 104.198 91.629Z" fill="black"/>
</g>
<path d="M98.95 147.483C97.5287 145.188 99.1686 142.237 99.4966 141.034C100.481 137.974 103.214 133.383 104.745 133.492C105.51 134.585 105.619 136.225 105.4 137.537C105.182 139.832 104.417 142.018 103.323 143.986C102.449 145.734 101.027 147.374 98.95 147.483Z" fill="white"/>
<path d="M98.95 148.03C98.7313 148.03 98.622 147.921 98.5127 147.811C97.2007 145.625 98.1847 143.002 98.8406 141.581C98.95 141.362 99.0593 141.144 99.0593 140.925C99.934 138.083 102.777 132.946 104.854 133.055C105.072 133.055 105.182 133.164 105.291 133.274C106.275 134.695 106.166 136.662 106.056 137.646C105.838 139.941 105.073 142.237 103.979 144.204C102.558 146.609 100.918 147.921 98.95 148.03ZM104.417 134.148C103.214 134.585 100.918 138.192 99.934 141.253C99.8246 141.472 99.8246 141.69 99.7153 141.909C99.1686 143.22 98.4033 145.188 99.1686 146.827C100.59 146.609 101.793 145.516 102.886 143.658C103.979 141.8 104.635 139.613 104.854 137.427C104.963 136.772 105.072 135.241 104.417 134.148Z" fill="black"/>
<path d="M140.824 123.546C143.338 131.962 149.898 145.079 151.101 147.702C133.28 142.127 116.552 137.318 104.745 133.602C108.024 139.723 103.651 145.188 99.0593 147.702C108.134 153.276 161.487 181.368 171.327 163.879C174.498 158.195 170.343 144.204 168.484 137.865C165.97 129.011 156.458 106.822 148.368 99.9361C143.776 101.685 139.512 104.964 138.09 109.664C136.778 114.255 139.402 118.736 140.824 123.546Z" fill="white"/>
<path d="M158.535 170C150.991 170 140.714 167.377 127.813 162.239C113.819 156.665 101.902 149.997 98.8406 148.139C98.622 148.03 98.622 147.811 98.622 147.702C98.622 147.483 98.7313 147.374 98.95 147.265C103.651 144.751 107.368 139.504 104.417 133.93C104.307 133.711 104.307 133.492 104.526 133.274C104.635 133.055 104.854 133.055 105.073 133.055C110.32 134.695 116.771 136.662 123.549 138.63C131.64 141.034 140.824 143.767 150.226 146.718C150.117 146.609 150.117 146.39 150.007 146.172C147.821 141.581 142.682 130.869 140.496 123.546C140.386 123.218 140.605 122.999 140.824 122.89C141.152 122.781 141.37 122.999 141.48 123.218C143.666 130.432 148.805 141.144 150.991 145.625C151.319 146.39 151.647 146.937 151.757 147.265C151.866 147.483 151.866 147.702 151.647 147.811C151.538 147.921 151.319 148.03 151.101 147.921C141.261 144.86 131.64 142.018 123.221 139.504C116.99 137.646 110.976 135.788 105.947 134.258C108.134 139.723 104.854 144.641 100.371 147.374C109.336 152.621 147.493 172.405 164.439 168.033C167.5 167.267 169.796 165.628 170.999 163.332C173.951 158.086 170.124 144.86 168.375 138.411L168.156 137.755C165.532 128.683 156.13 106.932 148.04 99.4989C141.261 93.2686 124.861 91.629 119.395 91.3011C117.646 95.0174 113.272 98.7338 109.227 98.2966C107.15 98.0779 105.182 96.7663 103.87 94.7988C97.2007 97.9686 90.3128 101.357 84.9556 106.713C77.4118 114.364 73.2572 128.246 70.3053 138.411L70.196 138.848C70.0866 139.176 69.7586 139.286 69.54 139.176C69.212 139.067 69.1027 138.739 69.212 138.52L69.3213 138.083C72.4919 127.262 76.4278 113.708 84.1903 105.839C89.7662 100.264 96.982 96.7663 103.87 93.4872C104.089 93.3779 104.417 93.4872 104.526 93.7058C105.619 95.564 107.478 96.8756 109.336 97.0942C112.835 97.4221 116.99 93.9244 118.52 90.4267C118.63 90.2081 118.848 90.0988 119.067 90.0988C124.205 90.4267 141.589 91.9569 148.805 98.6245C157.005 106.166 166.516 128.246 169.14 137.427L169.359 138.083C171.327 145.079 175.044 158.086 171.874 163.77C170.452 166.393 167.938 168.142 164.548 169.016C162.799 169.781 160.722 170 158.535 170Z" fill="black"/>
<path d="M77.0838 119.283C81.785 125.841 84.1903 133.711 87.9076 140.816C88.7822 142.455 89.8755 144.204 91.6248 144.641C93.1554 145.079 95.0141 144.204 95.7794 142.674C96.326 141.472 96.2167 140.051 95.7794 138.848C95.3421 137.646 94.4674 136.553 93.7021 135.46C89.2195 129.339 85.1743 122.999 81.3477 116.441C79.9264 117.315 78.5051 118.19 77.0838 119.283Z" fill="white"/>
<path d="M92.4995 145.297C92.1715 145.297 91.8435 145.297 91.5155 145.188C89.5475 144.641 88.3449 142.783 87.3609 141.034C86.049 138.411 84.8463 135.678 83.6437 133.055C81.6757 128.464 79.5984 123.764 76.6465 119.611C76.4278 119.392 76.5372 119.064 76.7558 118.846C78.1771 117.753 79.5984 116.878 81.0197 116.004C81.1291 115.894 81.3477 115.894 81.4571 115.894C81.5664 115.894 81.6757 116.004 81.7851 116.113C85.5023 122.671 89.6569 129.011 94.0301 135.132L94.1394 135.241C94.9048 136.334 95.6701 137.427 96.2167 138.63C96.7634 140.16 96.7634 141.69 96.2167 142.893C95.5607 144.314 94.0301 145.297 92.4995 145.297ZM77.8491 119.392C80.6917 123.436 82.6597 128.027 84.6277 132.509C85.8303 135.132 87.0329 137.865 88.3449 140.488C89.1102 142.018 90.2035 143.658 91.7342 144.095C93.0461 144.423 94.5768 143.658 95.2327 142.455C95.6701 141.472 95.6701 140.269 95.2327 139.067C94.7954 137.974 94.0301 136.881 93.3741 135.897L93.2648 135.788C88.8916 129.885 84.8463 123.546 81.2384 117.206C80.0358 117.862 78.9425 118.627 77.8491 119.392Z" fill="black"/>
<path d="M74.0226 117.753C73.9132 118.846 74.1319 119.939 74.7879 120.813C75.0065 121.141 75.3345 121.36 75.6625 121.469C75.9905 121.578 76.4278 121.469 76.7558 121.36C78.9424 120.704 80.9104 119.392 82.769 117.971C83.3157 117.534 83.8623 117.206 84.1903 116.66C84.409 116.222 84.5183 115.676 84.5183 115.239C84.5183 113.818 83.425 112.397 82.0037 112.397C81.2384 112.397 80.5824 112.725 79.9264 113.162C78.1771 114.146 76.5372 115.348 74.8972 116.55C74.4599 116.878 73.8039 117.425 74.0226 117.753Z" fill="#6C93F9"/>
<path d="M76.0998 122.016C75.9905 122.016 75.7719 122.016 75.6625 121.906C75.2252 121.797 74.8972 121.469 74.4599 121.032C73.6946 120.157 73.3666 118.955 73.4759 117.753C73.2572 116.988 74.1319 116.332 74.6785 115.895C76.3185 114.692 77.9585 113.49 79.7078 112.506C80.3637 112.069 81.1291 111.632 82.0037 111.741C83.753 111.741 85.065 113.599 85.065 115.129C85.065 115.785 84.9556 116.332 84.6277 116.878C84.1903 117.534 83.6437 117.971 83.097 118.409C81.3477 119.72 79.2704 121.141 76.9745 121.906C76.6465 121.906 76.3185 122.016 76.0998 122.016ZM74.5692 117.534C74.5692 117.643 74.5692 117.753 74.5692 117.753C74.4599 118.627 74.6785 119.611 75.2252 120.376C75.4439 120.595 75.6625 120.813 75.7719 120.813C75.9905 120.923 76.3185 120.813 76.5372 120.704C78.7238 120.048 80.5824 118.736 82.3317 117.425C82.769 117.097 83.3157 116.66 83.6437 116.222C83.8623 115.895 83.9717 115.457 83.9717 115.02C83.9717 113.927 83.097 112.725 82.0037 112.725C81.4571 112.725 80.8011 113.053 80.2544 113.381C78.5051 114.364 76.8652 115.567 75.3345 116.769C74.7879 117.315 74.6785 117.425 74.5692 117.534Z" fill="black"/>
<path d="M73.6946 73.4846C65.1668 71.2985 55.655 75.3427 50.0791 82.1196C44.3939 88.8964 42.7539 98.6245 45.7059 106.932C47.6738 112.397 53.359 118.19 62.6521 120.048C69.212 121.25 75.9905 118.955 81.2384 114.802C85.393 111.632 88.6729 107.26 90.3128 102.341C91.9528 97.3129 94.6861 78.7312 73.6946 73.4846ZM72.8199 115.239C61.2308 119.064 50.5164 111.413 49.3138 101.904C48.4391 94.6896 50.7351 88.7871 52.0471 86.8197C54.2337 83.6498 59.7002 77.5288 67.1347 77.5288C76.2092 77.4195 81.5664 82.1196 83.8623 85.508C86.1583 88.8964 87.1423 93.1593 86.7049 97.2036C85.9396 104.964 80.1451 112.725 72.8199 115.239Z" fill="white"/>
<path d="M66.1507 120.813C64.9481 120.813 63.6361 120.704 62.4335 120.485C52.4844 118.627 46.9085 112.287 45.0499 107.041C41.9886 98.5151 43.7379 88.6778 49.5324 81.6823C55.655 74.3589 65.3854 70.8612 73.6945 72.938C81.0197 74.7962 86.2676 78.4032 89.1102 83.7591C92.9368 90.6452 91.8435 98.7337 90.6408 102.45C89.0009 107.259 85.8303 111.741 81.3477 115.239C76.7558 118.846 71.3986 120.813 66.1507 120.813ZM68.884 73.4845C62.2148 73.4845 55.2176 76.7636 50.4071 82.4474C44.8312 89.115 43.1912 98.6244 46.1432 106.713C48.0018 111.632 53.2497 117.643 62.6521 119.392C68.556 120.485 75.1158 118.627 80.801 114.255C85.0649 110.976 88.1262 106.604 89.6568 102.013C90.8595 98.5151 91.8435 90.7546 88.2355 84.1963C85.5023 79.1683 80.4731 75.6706 73.4759 73.9217C72.0546 73.7031 70.524 73.4845 68.884 73.4845ZM66.588 116.769C63.0895 116.769 59.5909 115.785 56.6389 113.927C52.2657 111.194 49.4231 106.713 48.8764 102.013C48.0018 94.9081 50.0791 88.7871 51.719 86.601C53.687 83.7591 59.2629 77.0915 67.3534 76.9822C67.4627 76.9822 67.572 76.9822 67.6813 76.9822C78.1771 76.9822 83.2063 83.3219 84.5183 85.2894C86.7049 88.7871 87.7982 93.1592 87.3609 97.3128C86.4862 105.511 80.3637 113.271 72.9292 115.785C70.8519 116.441 68.7747 116.769 66.588 116.769ZM67.572 78.0753C67.4627 78.0753 67.3534 78.0753 67.244 78.0753C59.7002 78.1846 54.4523 84.5242 52.5937 87.1475C51.3911 88.8964 49.0951 94.7988 49.9698 101.794C50.5164 106.166 53.2497 110.32 57.2949 112.943C61.7775 115.785 67.4627 116.441 72.7106 114.692C79.7077 112.287 85.5023 104.964 86.3769 97.2035C86.8142 93.2685 85.8303 89.115 83.6436 85.9452C82.3317 84.087 77.5211 78.0753 67.572 78.0753Z" fill="black"/>
<path d="M80.9104 123.218C80.6917 123.109 80.6917 122.999 80.8011 122.999L82.113 120.485C82.113 120.376 82.2224 120.376 82.3317 120.376C82.441 120.376 82.441 120.485 82.441 120.595L81.1291 123.109C81.1291 123.218 81.0197 123.218 80.9104 123.218Z" fill="black"/>
<path d="M82.113 126.169C82.113 126.169 82.0037 126.169 82.113 126.169C82.0037 126.169 81.8943 126.06 81.8943 125.95C82.3317 124.748 82.8783 123.436 83.3157 122.234C83.3157 122.125 83.425 122.125 83.5343 122.125C83.6436 122.125 83.6436 122.234 83.6436 122.343C83.097 123.546 82.6597 124.748 82.2223 126.06C82.2223 126.169 82.2223 126.169 82.113 126.169Z" fill="black"/>
<path d="M83.425 129.339C83.3157 129.339 83.2063 129.23 83.2063 129.12C83.6437 127.699 84.1903 126.169 84.8463 124.857C84.8463 124.748 84.9556 124.748 85.065 124.748C85.1743 124.748 85.1743 124.857 85.1743 124.967C84.5183 126.278 83.9716 127.699 83.6436 129.23C83.5343 129.23 83.5343 129.339 83.425 129.339Z" fill="black"/>
<path d="M84.9556 132.181C84.8463 132.181 84.8463 132.181 84.9556 132.181C84.8463 132.181 84.737 132.071 84.737 131.962C85.1743 130.432 85.7209 128.902 86.3769 127.371C86.3769 127.262 86.4863 127.262 86.5956 127.262C86.7049 127.262 86.7049 127.371 86.7049 127.481C86.0489 129.011 85.5023 130.541 85.065 132.071C85.065 132.071 84.9556 132.181 84.9556 132.181Z" fill="black"/>
<path d="M86.377 135.897C86.2676 135.897 86.1583 135.788 86.1583 135.679L87.9076 129.776C87.9076 129.667 88.0169 129.667 88.1263 129.667C88.2356 129.667 88.2356 129.776 88.2356 129.885L86.4863 135.788C86.4863 135.897 86.4863 135.897 86.377 135.897Z" fill="black"/>
<path d="M88.3449 138.958C88.2356 138.958 88.1263 138.848 88.1263 138.739L89.7662 133.165C89.7662 133.055 89.8755 133.055 89.9849 133.055C90.0942 133.055 90.0942 133.165 90.0942 133.274L88.4542 138.848C88.4542 138.958 88.4542 138.958 88.3449 138.958Z" fill="black"/>
<path d="M90.4222 142.455C90.3129 142.455 90.2035 142.346 90.2035 142.237L91.7342 136.116C91.7342 136.006 91.8435 136.006 91.9528 136.006C92.0622 136.006 92.0622 136.116 92.0622 136.225L90.5315 142.346C90.6408 142.455 90.5315 142.455 90.4222 142.455Z" fill="black"/>
<path d="M93.0461 142.565C92.9368 142.565 92.8275 142.455 92.8275 142.346L93.7021 139.286C93.7021 139.176 93.8114 139.176 93.9208 139.176C94.0301 139.176 94.0301 139.286 94.0301 139.395L93.1554 142.455C93.1554 142.565 93.1555 142.565 93.0461 142.565Z" fill="black"/>
<g opacity="0.1294">
<path d="M66.588 114.255C66.588 114.146 66.4787 114.146 66.588 114.255C66.4787 114.146 66.4787 114.146 66.588 114.255C66.3694 113.599 65.7134 113.49 65.0574 113.381C64.8387 113.381 64.8387 113.381 64.5108 113.271C63.9641 112.943 63.0895 112.615 62.4335 112.288C62.1055 112.178 60.3562 111.413 58.9349 110.211L58.8256 110.101C58.1696 109.555 57.6229 108.899 57.0763 108.243C56.3109 107.369 54.7803 104.855 54.5616 103.762C54.015 101.794 53.9057 100.592 53.7963 99.171C53.5777 97.5315 53.4683 95.7826 53.687 94.143C53.687 94.0337 53.687 93.9244 53.687 93.8151C54.2337 90.7546 54.4523 89.7709 54.999 87.1476C55.1083 86.7104 55.2176 86.1638 55.327 85.7266C55.4363 85.508 55.327 85.1801 55.2176 84.9615C54.8896 84.1964 53.687 84.3057 53.4683 85.0708C53.359 85.1801 53.359 85.2894 53.2497 85.3987C53.1403 85.7266 53.031 85.9452 52.9217 86.2732C52.4844 86.2732 52.047 86.4918 51.8284 87.0383C51.5004 87.6941 51.1724 88.3499 50.8444 89.0058C50.6257 89.443 50.4071 89.9895 50.5164 90.536C50.5164 90.6453 50.5164 90.6453 50.5164 90.7546C50.2977 91.8477 50.2977 92.9407 50.1884 94.0337C50.0791 94.5803 49.9698 95.1268 49.8604 95.564C49.7511 96.5477 49.3138 97.9687 49.4231 99.8269C49.5324 101.248 49.5324 102.669 49.8604 103.98C50.1884 105.073 50.6257 106.276 51.2817 107.26C51.2817 107.478 51.3911 107.697 51.5004 107.806C51.6097 107.915 51.719 108.025 51.8284 108.134C52.047 108.353 52.2657 108.68 52.4844 108.899C52.4844 109.008 52.5937 109.008 52.5937 109.008C53.9057 110.648 54.999 112.506 56.7483 113.599C58.2789 114.583 60.0282 114.911 61.7775 115.348C61.9961 115.348 62.1055 115.457 62.3241 115.457C62.3241 115.457 62.4335 115.457 62.4335 115.567C62.4335 115.567 62.4335 115.567 62.3241 115.567C63.1988 116.004 64.1828 116.222 65.1667 116.332C65.9321 116.332 66.1507 116.332 66.26 116.222C67.4627 116.004 67.572 114.692 66.588 114.255Z" fill="black"/>
</g>
<g opacity="0.1294">
<path d="M82.5504 118.736C82.0037 118.736 81.5664 119.174 81.0197 119.392C80.6917 119.611 80.3637 119.72 79.9264 119.939C79.5984 120.157 79.1611 120.267 78.9424 120.595C78.0678 121.469 79.2704 122.89 80.3637 122.343C81.457 121.797 82.6597 121.141 82.9877 120.813C83.9717 120.267 83.6437 118.846 82.5504 118.736Z" fill="black"/>
</g>
<path d="M98.0753 128.683C96.326 126.934 94.4674 125.185 92.1715 124.202C89.8755 123.218 85.7209 123.764 85.7209 123.764L87.6889 126.825C87.6889 126.825 90.0942 127.262 91.6248 129.23C89.5475 129.12 87.3609 128.902 85.5023 127.918C84.6276 127.481 83.753 126.825 82.769 126.716C81.785 126.606 80.6917 127.481 80.9104 128.465C81.2384 129.448 82.6597 129.558 82.9877 130.541C81.8944 130.651 81.0197 131.634 81.0197 132.618C81.0197 133.711 81.8944 134.586 82.9877 134.695C82.3317 134.913 82.0037 135.788 82.2224 136.553C82.441 137.209 83.3157 137.755 83.8623 138.302C86.1583 140.379 87.9076 141.581 89.3289 142.237C93.5928 144.095 100.371 145.625 101.465 145.844C101.793 145.953 104.854 142.893 105.4 139.941C105.728 138.193 105.51 136.225 104.307 135.023C103.979 134.586 99.8246 130.541 98.0753 128.683Z" fill="white"/>
<path d="M101.683 146.39C101.683 146.39 101.574 146.39 101.683 146.39C100.481 146.172 93.5928 144.641 89.3289 142.783C87.5796 142.018 85.8303 140.706 83.6437 138.848C83.5344 138.739 83.425 138.63 83.2064 138.52C82.6597 138.083 82.1131 137.537 81.8944 136.881C81.6758 136.334 81.7851 135.678 82.1131 135.132C81.2384 134.695 80.6918 133.82 80.6918 132.837C80.6918 131.853 81.3478 130.869 82.2224 130.432C82.1131 130.323 82.0037 130.213 81.8944 130.213C81.3478 129.885 80.8011 129.557 80.5824 128.902C80.3638 128.355 80.4731 127.809 80.9104 127.371C81.3478 126.825 82.2224 126.388 82.9877 126.497C83.8624 126.606 84.5184 127.043 85.2837 127.371C85.5023 127.481 85.721 127.59 85.9397 127.699C87.2516 128.355 88.8916 128.683 90.4222 128.792C89.2196 127.809 87.7983 127.59 87.7983 127.59C87.6889 127.59 87.4703 127.481 87.4703 127.371L85.5023 124.311C85.393 124.202 85.393 123.983 85.5023 123.764C85.6117 123.546 85.721 123.436 85.9397 123.436C86.1583 123.436 90.3129 122.89 92.6088 123.874C94.9048 124.857 96.7634 126.606 98.622 128.464C99.8247 129.667 102.121 131.853 103.542 133.383C104.307 134.148 104.854 134.695 104.963 134.804C106.385 136.225 106.603 138.63 106.275 140.269C105.619 142.783 102.667 146.39 101.683 146.39ZM82.7691 127.371C82.4411 127.371 82.0037 127.59 81.7851 127.809C81.6758 128.027 81.5664 128.136 81.6758 128.355C81.7851 128.683 82.1131 128.902 82.4411 129.12C82.8784 129.448 83.425 129.776 83.6437 130.432C83.753 130.541 83.6437 130.76 83.6437 130.869C83.5344 130.978 83.425 131.088 83.2064 131.088C82.4411 131.197 81.7851 131.853 81.7851 132.618C81.7851 133.383 82.4411 134.148 83.2064 134.148C83.425 134.148 83.6437 134.367 83.753 134.585C83.753 134.804 83.6437 135.132 83.425 135.132C82.9877 135.241 82.8784 135.897 82.9877 136.225C83.0971 136.662 83.5344 136.99 83.9717 137.318C84.081 137.427 84.2997 137.537 84.409 137.646C86.377 139.504 88.1263 140.706 89.7662 141.472C93.7021 143.22 100.153 144.641 101.683 144.969C102.339 144.532 104.635 142.018 105.182 139.613C105.51 138.192 105.401 136.334 104.198 135.132C104.089 135.023 103.433 134.476 102.777 133.711C101.246 132.29 98.95 129.995 97.8567 128.792C96.1074 127.043 94.3581 125.295 92.1715 124.42C90.6409 123.764 88.2356 123.874 86.9236 123.983L88.3449 126.169C89.0009 126.388 90.9689 126.934 92.3902 128.792C92.4995 129.011 92.4995 129.23 92.3902 129.339C92.2808 129.557 92.0622 129.667 91.8435 129.667C89.7662 129.557 87.4703 129.339 85.5023 128.355C85.2837 128.246 85.065 128.137 84.8464 128.027C84.081 127.809 83.5344 127.481 82.7691 127.371C82.8784 127.371 82.8784 127.371 82.7691 127.371Z" fill="black"/>
<path d="M44.5032 90.0987L74.0225 147.593H35.8661L7.44006 89.9894L44.5032 90.0987Z" fill="white"/>
<path d="M74.0226 148.139L35.7568 148.03C35.5381 148.03 35.3194 147.921 35.3194 147.702L6.89343 90.0988C6.89343 89.9895 6.89343 89.8802 7.00276 89.6615C7.11209 89.5522 7.33076 89.4429 7.44009 89.4429L44.5032 89.5522C44.7219 89.5522 44.9406 89.6615 44.9406 89.8801L74.5692 147.374C74.6786 147.593 74.6786 147.702 74.5692 147.921C74.4599 148.139 74.2412 148.139 74.0226 148.139ZM36.1941 147.046L73.1479 147.155L44.1752 90.6453L8.31473 90.536L36.1941 147.046Z" fill="black"/>
<path d="M18.4825 112.725C21.1064 112.397 23.7304 112.069 26.245 111.632C26.901 111.522 27.557 111.413 28.1036 111.522C28.7596 111.632 29.4156 111.96 29.7436 112.397C29.8529 112.615 29.8529 113.38 29.3063 113.708C27.229 114.911 24.933 115.457 22.6371 116.113C22.7464 116.66 23.4024 116.769 23.8397 116.878C25.0424 116.988 26.0263 117.206 27.229 117.206C30.0716 117.097 30.5089 118.408 29.5249 119.174C29.0876 119.611 25.4797 120.376 23.8397 120.376C24.4957 120.813 25.261 120.922 25.917 120.922C26.573 120.922 27.4476 121.141 27.9943 121.578C28.5409 122.016 28.8689 122.89 28.5409 123.546C28.2129 123.983 27.6663 124.202 27.0103 124.311C26.245 124.42 25.4797 124.53 24.7144 124.639C25.0424 124.857 25.3703 125.076 25.6983 125.295C25.917 125.623 26.0263 126.06 25.917 126.388C25.6983 126.825 25.261 126.934 24.8237 127.043C23.7304 127.262 22.6371 127.043 21.6531 126.497C20.6691 125.95 19.7945 124.967 19.1385 123.983C17.4985 121.688 16.4052 119.064 15.8586 116.332C15.7492 116.004 15.6399 115.457 15.7492 115.02C15.8586 113.708 17.1705 112.943 18.4825 112.725Z" fill="white"/>
<path d="M23.9491 127.699C23.0744 127.699 22.1998 127.481 21.4345 127.044C20.2318 126.388 19.3572 125.295 18.7012 124.42C17.0612 122.016 15.8586 119.283 15.3119 116.55C15.2026 116.113 15.0933 115.457 15.2026 114.911C15.4213 113.381 16.9519 112.397 18.3732 112.178L26.1357 111.085C26.7917 110.976 27.4477 110.867 28.213 110.976C29.0876 111.085 29.8529 111.522 30.1809 112.178C30.3996 112.397 30.3996 112.943 30.2903 113.271C30.1809 113.708 29.9623 114.036 29.5249 114.255C27.6663 115.348 25.8077 115.785 23.9491 116.332C24.1677 116.332 24.3864 116.441 24.6051 116.441C25.4797 116.55 26.3543 116.66 27.229 116.66C29.6343 116.55 30.2903 117.534 30.5089 117.971C30.7276 118.518 30.5089 119.174 29.9623 119.72C29.6343 120.048 28.3223 120.376 27.0103 120.595C27.557 120.704 27.9943 120.922 28.4316 121.25C29.197 121.797 29.6343 122.999 29.0876 123.983C28.6503 124.639 27.885 124.857 27.229 124.967C26.901 125.076 26.573 125.076 26.245 125.185C26.6823 125.732 26.6823 126.278 26.4637 126.825C26.3543 127.153 25.917 127.59 25.0424 127.809C24.6051 127.699 24.2771 127.699 23.9491 127.699ZM18.4825 113.271C17.4986 113.381 16.4052 114.036 16.1866 115.129C16.0773 115.567 16.1866 116.004 16.2959 116.441C16.8426 119.064 17.9359 121.688 19.4665 123.983C20.0132 124.748 20.7785 125.732 21.7625 126.278C22.6371 126.716 23.6211 126.934 24.6051 126.716C24.933 126.606 25.261 126.497 25.261 126.388C25.3704 126.278 25.261 126.06 25.1517 125.841C24.933 125.623 24.6051 125.404 24.3864 125.295C24.1677 125.185 24.0584 124.967 24.1677 124.748C24.1677 124.53 24.3864 124.311 24.7144 124.311C25.4797 124.202 26.245 124.202 27.0103 123.983C27.4477 123.874 27.9943 123.764 28.1036 123.436C28.3223 123.109 28.1036 122.562 27.6663 122.234C27.229 121.906 26.573 121.797 25.8077 121.688C25.0424 121.578 24.1677 121.469 23.5117 121.032C23.2931 120.922 23.1838 120.595 23.2931 120.376C23.4024 120.157 23.6211 119.939 23.8397 119.939C25.4797 119.939 28.7596 119.174 29.197 118.955C29.3063 118.955 29.5249 118.736 29.4156 118.518C29.3063 118.299 28.7596 117.862 27.229 117.971C26.245 117.971 25.3704 117.862 24.3864 117.753C24.1677 117.753 23.9491 117.643 23.7304 117.643C22.5278 117.534 22.1998 116.878 22.0904 116.441C21.9811 116.113 22.1998 115.894 22.5278 115.785C22.8558 115.676 23.0744 115.676 23.4024 115.567C25.3704 115.02 27.3383 114.583 29.0876 113.49C29.3063 113.381 29.3063 112.943 29.3063 112.834C29.0876 112.506 28.6503 112.287 28.1036 112.178C27.557 112.069 26.901 112.178 26.3543 112.287L18.4825 113.271Z" fill="black"/>
<path d="M39.146 100.045H19.2478C18.9198 100.045 18.7012 99.8268 18.7012 99.4989C18.7012 99.1709 18.9198 98.9523 19.2478 98.9523H39.146C39.474 98.9523 39.6927 99.1709 39.6927 99.4989C39.6927 99.8268 39.474 100.045 39.146 100.045Z" fill="black"/>
<path d="M42.8633 107.697H22.9651C22.6371 107.697 22.4184 107.478 22.4184 107.15C22.4184 106.822 22.6371 106.604 22.9651 106.604H42.8633C43.1913 106.604 43.4099 106.822 43.4099 107.15C43.4099 107.478 43.0819 107.697 42.8633 107.697Z" fill="black"/>
<path d="M53.1404 128.574H33.2422C32.9142 128.574 32.6955 128.355 32.6955 128.027C32.6955 127.699 32.9142 127.481 33.2422 127.481H53.1404C53.4684 127.481 53.687 127.699 53.687 128.027C53.687 128.355 53.4684 128.574 53.1404 128.574Z" fill="black"/>
<path d="M57.4043 136.116H37.5061C37.1781 136.116 36.9594 135.897 36.9594 135.569C36.9594 135.241 37.1781 135.023 37.5061 135.023H57.4043C57.7323 135.023 57.9509 135.241 57.9509 135.569C57.9509 135.788 57.7323 136.116 57.4043 136.116Z" fill="black"/>
<path d="M116.662 101.904C116.443 101.904 116.334 101.794 116.224 101.685C116.115 101.466 116.115 101.138 116.443 100.92C118.958 99.3896 120.707 96.657 121.144 93.8151C121.144 93.4872 121.472 93.2686 121.8 93.3779C122.128 93.3779 122.347 93.7058 122.237 94.0337C121.8 97.3128 119.832 100.264 116.99 102.013C116.771 101.904 116.662 101.904 116.662 101.904Z" fill="black"/>
<path d="M123.44 99.171C123.331 99.171 123.331 99.171 123.221 99.171C122.893 99.0617 122.784 98.7337 122.893 98.5151L124.424 94.4709C124.533 94.143 124.861 94.0337 125.08 94.143C125.408 94.2523 125.517 94.5802 125.408 94.7988L123.877 98.843C123.877 99.0617 123.659 99.171 123.44 99.171Z" fill="black"/>
<g opacity="0.1294">
<path d="M146.29 136.772C145.634 135.351 145.088 133.93 144.432 132.509C144.213 131.853 143.666 131.416 143.12 131.416C142.901 130.651 142.792 129.885 142.573 129.12C142.245 127.918 142.136 126.606 141.917 125.295C141.808 124.748 141.808 124.092 141.48 123.655C140.824 122.781 139.293 123.546 139.621 124.529C140.386 129.339 141.37 136.772 142.682 140.16C142.901 140.816 143.557 141.144 144.213 141.034C144.65 141.362 145.306 141.472 145.853 141.362H145.744C146.728 141.472 147.712 141.253 147.712 140.051C147.602 138.958 146.837 137.865 146.29 136.772Z" fill="black"/>
</g>
<g opacity="0.1294">
<path d="M30.5089 118.081C29.7436 117.753 28.9783 118.408 29.0876 119.174C29.0876 119.174 29.0876 119.174 28.9783 119.174C28.7596 119.283 28.4316 119.283 28.213 119.392C27.885 119.392 27.4477 119.283 27.1197 119.502C26.0263 119.939 26.3543 121.688 27.557 121.578C27.885 121.578 28.1036 121.578 28.4316 121.578C28.1036 121.906 28.1036 122.453 28.3223 122.781C28.3223 122.89 28.4316 122.999 28.4316 123.218C28.4316 123.218 28.4316 123.327 28.3223 123.327C28.213 123.436 28.1036 123.546 27.9943 123.655L27.885 123.764C27.7756 123.874 27.557 123.874 27.4476 123.874C27.0103 123.983 26.3543 123.983 26.0263 124.42C25.589 124.639 25.261 125.185 25.4797 125.623C25.8077 126.388 25.6984 127.809 26.7917 127.918C27.557 128.027 28.213 127.262 27.9943 126.606C27.9943 126.497 27.885 126.278 27.885 126.169C28.3223 126.06 28.869 125.95 29.3063 125.732C30.0716 125.185 30.7276 124.202 30.3996 123.109C30.3996 123.109 30.3996 123.218 30.3996 123.327C30.3996 122.999 30.1809 122.562 30.0716 122.234C29.9623 121.906 29.7436 121.578 29.4156 121.469C29.9623 121.25 30.5089 120.922 30.8369 120.376C31.1649 119.829 31.3836 118.518 30.5089 118.081Z" fill="black"/>
</g>
<g opacity="0.1294">
<path d="M30.7276 113.053C30.2902 112.506 29.3062 112.834 29.1969 113.49V113.599C29.1969 113.599 29.1969 113.599 29.1969 113.49C29.1969 113.599 29.1969 113.599 29.1969 113.599C29.0876 113.708 28.9783 113.818 28.8689 113.927C28.7596 114.036 28.7596 114.036 28.6503 114.036C27.8849 114.473 28.3223 114.255 27.557 114.473C26.7916 114.692 26.0263 114.911 25.261 115.129C24.8237 115.239 24.277 115.239 23.8397 115.567C22.9651 116.222 23.7304 117.753 24.7144 117.425C26.573 116.878 28.6503 116.769 30.0716 115.348C30.7276 114.692 31.3835 113.708 30.7276 113.053Z" fill="black"/>
</g>
</svg>
