<svg width="180" height="180" viewBox="0 0 180 180" fill="none" xmlns="http://www.w3.org/2000/svg">
<g clip-path="url(#clip0_348_177)">
<path d="M44.0484 125.659C44.2988 92.9923 44.0484 60.3261 43.0467 27.6598C74.0985 27.4105 105.401 27.1611 136.703 27.4105C136.452 50.1023 136.452 73.0435 136.703 95.7353C136.953 109.201 136.953 123.913 128.94 134.885C127.938 136.381 126.686 137.628 125.184 138.625C120.927 141.867 115.167 142.116 109.407 140.87C97.6377 138.875 85.6177 139.872 73.5977 138.127C68.3389 137.379 63.0801 135.882 57.8214 134.386C52.813 133.139 47.3038 131.394 44.0484 125.659Z" fill="white"/>
<path d="M115.668 142.366C113.664 142.366 111.661 142.116 109.658 141.618C103.648 140.62 97.1369 140.371 90.8765 140.121C85.3673 139.872 79.6077 139.872 73.8481 138.875C68.3389 138.127 63.0801 136.63 57.8214 135.134C52.813 133.887 46.803 132.142 43.0467 125.659C43.0467 125.659 43.0467 125.409 43.0467 125.16C43.2972 92.7429 43.0467 59.578 42.0451 27.1611C42.0451 26.9117 42.0451 26.6624 42.2955 26.6624C42.5459 26.413 42.5459 26.413 42.7963 26.413C72.596 26.413 103.147 26.413 136.703 26.413C136.953 26.413 137.204 26.413 137.204 26.6624C137.454 26.9117 137.454 26.9117 137.454 27.1611C137.204 49.8529 137.204 72.7941 137.454 95.4859C137.705 107.954 137.955 123.664 129.441 135.134C128.189 136.88 126.937 138.127 125.684 139.124C123.18 141.368 119.674 142.366 115.668 142.366ZM44.7997 125.409C48.0551 131.144 53.8147 132.641 58.3222 133.887C63.581 135.384 68.8397 136.63 74.0985 137.379C79.6077 138.127 85.3673 138.376 90.8765 138.625C97.1369 138.875 103.648 139.124 109.908 140.121C114.416 141.119 120.426 141.368 124.933 138.127C126.185 137.129 127.187 136.132 128.439 134.386C136.452 123.414 136.452 107.954 136.202 95.7353C135.952 73.2928 135.952 50.601 136.202 28.1585C103.147 27.9092 73.0968 28.1585 44.0484 28.4079C44.5493 60.5754 44.7997 93.2417 44.7997 125.409Z" fill="black"/>
<path d="M61.3272 138.376C61.3272 138.376 61.0768 138.376 61.3272 138.376C61.0768 138.127 61.0768 138.127 61.0768 137.877C65.3339 132.89 69.591 127.903 73.8481 122.916H74.0985V123.165C69.8414 128.152 65.5843 133.139 61.3272 138.376Z" fill="black"/>
<path d="M67.8381 138.376C67.8381 138.376 67.5876 138.376 67.8381 138.376C67.5876 138.376 67.5876 138.127 67.5876 138.127C71.8447 133.139 76.1018 127.903 80.3589 123.165H80.6093V123.414C76.3523 128.152 72.0952 133.389 67.8381 138.376Z" fill="black"/>
<path d="M74.5993 138.625C74.3489 138.376 74.3489 138.376 74.3489 138.127L86.3689 123.165C86.3689 123.165 86.6194 122.916 86.6194 123.165C86.6194 123.165 86.8698 123.414 86.6194 123.414L74.5993 138.625C74.5993 138.625 74.8497 138.625 74.5993 138.625Z" fill="black"/>
<path d="M81.3606 138.875C81.3606 138.875 81.1102 138.875 81.3606 138.875C81.1102 138.625 81.1102 138.625 81.1102 138.376L93.8815 123.414H94.1319V123.664L81.3606 138.875Z" fill="black"/>
<path d="M88.3723 138.875C88.1219 138.625 88.1219 138.625 88.1219 138.376C92.379 133.139 96.8865 128.152 101.394 123.414H101.644V123.664C97.3873 128.651 92.8798 133.638 88.3723 138.875C88.6227 138.875 88.6227 138.875 88.3723 138.875Z" fill="black"/>
<path d="M95.6344 138.625C95.6344 138.625 95.384 138.625 95.6344 138.625C95.384 138.376 95.384 138.376 95.384 138.127C99.3906 132.89 103.648 127.903 108.155 123.165H108.406V123.414C104.149 128.401 99.8915 133.389 95.6344 138.625Z" fill="black"/>
<path d="M101.644 138.875C101.394 138.875 101.394 138.875 101.644 138.875C101.394 138.625 101.394 138.625 101.394 138.376L109.157 129.898H109.407V130.147L101.644 138.875Z" fill="black"/>
<path d="M108.155 139.373C107.905 139.124 107.905 139.124 107.905 138.875C108.907 137.628 109.908 136.381 110.91 135.134H111.16V135.384C110.409 136.88 109.407 137.877 108.155 139.373C108.155 139.373 108.406 139.373 108.155 139.373Z" fill="black"/>
<path d="M86.8698 51.0997H56.8197C56.3189 51.0997 56.0684 50.8504 56.0684 50.3517C56.0684 49.8529 56.3189 49.6036 56.8197 49.6036H86.8698C87.3706 49.6036 87.621 49.8529 87.621 50.3517C87.621 50.8504 87.3706 51.0997 86.8698 51.0997Z" fill="black"/>
<path d="M79.1068 69.303H57.0701C56.5693 69.303 56.3189 69.0537 56.3189 68.555C56.3189 68.0562 56.5693 67.8069 57.0701 67.8069H79.1068C79.6077 67.8069 79.8581 68.0562 79.8581 68.555C79.8581 69.0537 79.3573 69.303 79.1068 69.303Z" fill="black"/>
<path d="M79.1068 87.7557H57.0701C56.5693 87.7557 56.3189 87.5064 56.3189 87.0077C56.3189 86.5089 56.5693 86.2596 57.0701 86.2596H79.1068C79.6077 86.2596 79.8581 86.5089 79.8581 87.0077C79.8581 87.5064 79.3573 87.7557 79.1068 87.7557Z" fill="black"/>
<path d="M86.8698 106.208H56.8197C56.3189 106.208 56.0684 105.959 56.0684 105.46C56.0684 104.962 56.3189 104.712 56.8197 104.712H86.8698C87.3706 104.712 87.621 104.962 87.621 105.46C87.621 105.959 87.3706 106.208 86.8698 106.208Z" fill="black"/>
<path d="M125.179 153.587C123.688 153.587 122.196 153.587 120.456 153.587L40.8943 152.597C38.6566 152.597 31.1978 151.359 24.4848 147.893C20.7553 146.16 16.28 142.693 15.5341 137.742C15.2855 135.266 16.0314 132.295 17.7718 129.572C20.7553 124.62 25.2307 121.402 29.9546 120.411C34.1813 119.669 38.6566 120.906 41.3915 123.382C40.397 113.479 46.1155 103.328 54.8175 99.6146C59.7901 97.6339 66.2544 97.8815 71.4756 100.605C75.4537 102.586 78.6859 105.804 80.4263 109.27C82.9126 99.8621 90.6201 91.9396 100.068 89.4638C110.51 86.4928 122.445 89.959 129.406 98.1291C131.644 100.605 134.13 104.566 134.627 109.27C134.876 112.241 134.627 113.974 133.881 115.955C137.362 113.479 139.849 112.241 144.821 111.994C151.286 111.498 157.501 114.222 160.982 118.926C165.209 124.62 165.209 133.781 160.485 140.218C156.755 145.912 150.042 149.873 141.838 151.854C136.616 153.339 130.898 153.587 125.179 153.587ZM40.8943 150.864L120.456 151.854C127.666 151.854 134.876 152.101 141.838 150.368C149.545 148.635 155.761 144.674 159.242 139.475C163.468 133.533 163.468 125.363 159.739 120.164C156.507 115.955 151.037 113.479 145.07 113.974C139.6 114.222 137.362 115.707 132.887 119.173C132.638 119.421 132.141 119.421 131.892 119.173C131.644 118.926 131.395 118.678 131.644 118.183L131.892 117.44C132.887 114.717 133.384 112.984 133.136 109.518C132.887 105.309 130.401 101.595 128.412 99.367C121.699 91.692 110.51 88.4735 100.814 91.1968C91.1173 93.9202 83.4098 102.833 81.6694 112.736C81.6694 113.231 81.1722 113.479 80.9235 113.479C80.4263 113.479 80.1776 113.231 79.929 112.736C78.6859 108.28 75.4537 104.566 70.9784 102.338C66.0058 99.8621 60.2873 99.6146 55.812 101.348C46.6127 105.061 41.3915 116.698 44.1265 126.601C44.1265 127.096 44.1265 127.591 43.6292 127.591C43.1319 127.839 42.6347 127.591 42.6347 127.096C40.6457 123.382 35.4245 121.154 30.7005 122.144C26.4738 122.887 22.4957 126.106 19.7608 130.562C18.2691 133.285 17.5232 135.514 17.7718 137.742C18.2691 142.198 22.4957 145.169 25.9766 146.902C31.4464 149.626 38.6566 150.864 40.8943 150.864Z" fill="black" stroke="black"/>
<path d="M40.8943 151.854C67.4976 152.101 93.8522 152.349 120.456 152.844C127.666 152.844 135.125 153.092 142.086 151.359C149.048 149.626 156.009 145.912 159.988 139.97C163.966 134.028 164.711 125.363 160.485 119.669C157.004 114.964 150.788 112.736 145.07 113.231C139.351 113.727 136.865 114.965 132.39 118.678C133.384 115.46 134.13 113.479 133.882 109.518C133.633 105.556 131.644 101.843 128.909 98.8718C121.947 90.9493 110.51 87.4832 100.317 90.4541C90.1228 93.4251 82.1667 102.338 80.6749 112.736C77.94 102.586 65.0113 96.6436 55.3148 100.852C45.3696 104.814 40.1484 116.945 43.1319 127.096C40.8943 122.639 35.1758 120.659 30.2032 121.649C25.2307 122.639 21.2526 126.106 18.5177 130.314C17.0259 132.543 16.0314 135.266 16.28 137.989C16.7773 142.446 20.7553 145.664 24.982 147.645C31.4464 150.616 38.6566 151.854 40.8943 151.854Z" fill="white"/>
<g opacity="0.1294">
<path d="M152.479 144.111C150.476 144.859 148.723 145.109 146.72 145.607C141.962 146.605 133.948 146.355 127.437 146.605C124.432 146.605 121.427 146.854 118.422 146.854C114.165 146.355 109.658 146.605 105.15 146.605C96.8865 146.355 88.6227 146.355 80.3589 146.355C75.1002 146.355 69.8414 146.854 64.8331 146.355C59.5743 146.106 54.3155 146.106 48.8063 146.106C45.3005 145.857 42.0451 145.857 38.5392 145.607C36.7863 145.607 34.783 144.859 30.2755 144.111C28.773 143.862 27.2705 143.613 25.7679 143.114C24.7663 142.864 24.015 142.615 23.0134 143.114C21.2604 144.111 21.5109 146.854 23.5142 147.353C28.0217 148.35 32.5292 149.597 36.7863 150.345C39.0401 150.844 41.5442 150.595 43.798 150.844C46.0518 150.844 48.3055 151.343 50.8097 151.343C57.0701 151.343 63.3305 151.592 69.591 151.841C73.5977 151.841 77.6043 151.592 81.611 151.592C81.3606 152.59 82.1118 153.836 83.3639 153.836C92.379 153.587 101.394 153.338 110.159 153.338C116.669 153.587 122.93 153.836 129.441 153.338C133.197 153.088 136.953 153.088 140.71 152.34C141.711 152.091 142.713 151.841 143.715 151.343C144.466 151.093 144.967 150.844 145.217 150.345C149.474 149.847 154.232 148.6 155.484 146.355C155.985 143.862 153.982 142.864 152.479 144.111Z" fill="black"/>
</g>
<path d="M114.917 108.203L89.8748 71.2979L65.0835 108.203H79.1068V152.091H100.893V108.203H114.917Z" fill="#6C93F9"/>
<path d="M100.893 152.839H79.1068C78.606 152.839 78.1052 152.34 78.1052 151.841V109.201H65.0835C64.8331 109.201 64.3322 108.951 64.3322 108.702C64.0818 108.453 64.0818 107.954 64.3322 107.705L89.374 70.7992C89.6244 70.3005 90.626 70.3005 90.8765 70.7992L115.918 107.705C116.169 107.954 116.169 108.453 115.918 108.702C115.668 108.951 115.417 109.201 115.167 109.201H101.895V152.091C101.895 152.59 101.394 152.839 100.893 152.839ZM79.8581 151.093H99.8915V108.203C99.8915 107.705 100.392 107.206 100.893 107.206H113.164L89.8748 72.7941L66.586 107.206H78.8564C79.3573 107.206 79.8581 107.705 79.8581 108.203V151.093V151.093Z" fill="black"/>
</g>
<defs>
<clipPath id="clip0_348_177">
<rect width="150" height="127.174" fill="white" transform="translate(15 26.413)"/>
</clipPath>
</defs>
</svg>
