<svg width="103" height="36" viewBox="0 0 103 36" fill="none" xmlns="http://www.w3.org/2000/svg">
<path d="M23.1223 15.3523C23.1223 16.54 22.8253 17.6288 22.2314 18.6186C21.6706 19.6084 20.8952 20.4003 19.9054 20.9942C18.9156 21.5881 17.8103 21.885 16.5895 21.885H7.48326C7.08734 21.885 6.88938 22.0995 6.88938 22.5284V32.7234C6.88938 33.3503 6.65842 33.8947 6.19651 34.3566C5.76759 34.7855 5.23969 35 4.61281 35H3.27657C2.64968 35 2.10529 34.7855 1.64338 34.3566C1.21446 33.8947 1 33.3503 1 32.7234V3.82096C1 3.16109 1.21446 2.61669 1.64338 2.18777C2.10529 1.75885 2.64968 1.54439 3.27657 1.54439H16.5895C17.8103 1.54439 18.9156 1.84134 19.9054 2.43522C20.8952 3.02911 21.6706 3.82096 22.2314 4.81077C22.8253 5.80058 23.1223 6.90587 23.1223 8.12664V15.3523ZM17.2824 15.3523V8.12664C17.2824 7.66472 17.0514 7.43377 16.5895 7.43377H7.48326C7.08734 7.43377 6.88938 7.64823 6.88938 8.07715V15.3523C6.88938 15.7812 7.08734 15.9956 7.48326 15.9956H16.5895C17.0514 15.9956 17.2824 15.7812 17.2824 15.3523Z" fill="#6C93F9"/>
<path d="M41.7984 13.0262C41.7984 13.6531 41.5839 14.181 41.155 14.6099C40.7261 15.0388 40.1982 15.2533 39.5713 15.2533H33.6819C33.253 15.2533 33.0386 15.4842 33.0386 15.9461V32.7234C33.0386 33.3503 32.8076 33.8947 32.3457 34.3566C31.9168 34.7855 31.3889 35 30.762 35H29.3762C28.7494 35 28.2215 34.7855 27.7926 34.3566C27.3636 33.8947 27.1492 33.3503 27.1492 32.7234V14.9068C27.1492 13.884 27.3966 12.9602 27.8915 12.1354C28.3864 11.2775 29.0463 10.6012 29.8712 10.1063C30.696 9.61136 31.6198 9.3639 32.6426 9.3639H39.5713C40.1982 9.3639 40.7261 9.59486 41.155 10.0568C41.5839 10.4857 41.7984 11.0301 41.7984 11.69V13.0262Z" fill="#6C93F9"/>
<path d="M53.2767 4.71179C53.2767 5.73459 52.8973 6.62542 52.1384 7.38428C51.4126 8.11014 50.5547 8.47307 49.5649 8.47307C48.5421 8.47307 47.6513 8.11014 46.8924 7.38428C46.1666 6.62542 45.8036 5.73459 45.8036 4.71179C45.8036 3.72198 46.1666 2.86414 46.8924 2.13828C47.6513 1.37943 48.5421 1 49.5649 1C50.5547 1 51.4126 1.37943 52.1384 2.13828C52.8973 2.86414 53.2767 3.72198 53.2767 4.71179ZM52.4849 32.7234C52.4849 33.3503 52.2539 33.8947 51.792 34.3566C51.3631 34.7855 50.8352 35 50.2083 35H48.872C48.2452 35 47.7008 34.7855 47.2389 34.3566C46.8099 33.8947 46.5955 33.3503 46.5955 32.7234V12.1849C46.5955 11.558 46.8099 11.0301 47.2389 10.6012C47.7008 10.1393 48.2452 9.9083 48.872 9.9083H50.2083C50.8352 9.9083 51.3631 10.1393 51.792 10.6012C52.2539 11.0301 52.4849 11.558 52.4849 12.1849V32.7234Z" fill="#6C93F9"/>
<path d="M75.1736 32.7234C75.1736 33.3503 74.9591 33.8947 74.5302 34.3566C74.1013 34.7855 73.5734 35 72.9465 35H71.5608C70.9339 35 70.406 34.7855 69.9771 34.3566C69.5481 33.8947 69.3337 33.3503 69.3337 32.7234V15.9461C69.3337 15.7482 69.2512 15.5832 69.0862 15.4512C68.9543 15.3193 68.8058 15.2533 68.6408 15.2533H63.8402C63.6753 15.2533 63.5103 15.3193 63.3453 15.4512C63.2134 15.5832 63.1474 15.7482 63.1474 15.9461V32.7234C63.1474 33.3503 62.9329 33.8947 62.504 34.3566C62.0751 34.7855 61.5472 35 60.9203 35H59.5345C58.9077 35 58.3633 34.7855 57.9014 34.3566C57.4724 33.8947 57.258 33.3503 57.258 32.7234V14.9068C57.258 13.884 57.5054 12.9602 58.0003 12.1354C58.5282 11.2775 59.2046 10.6012 60.0295 10.1063C60.8543 9.61136 61.7781 9.3639 62.8009 9.3639H69.6801C70.7029 9.3639 71.6267 9.61136 72.4516 10.1063C73.2764 10.6012 73.9363 11.2775 74.4312 12.1354C74.9261 12.9602 75.1736 13.884 75.1736 14.9068V32.7234Z" fill="#6C93F9"/>
<path d="M93.8988 32.7234C93.8988 33.3503 93.6843 33.8947 93.2554 34.3566C92.8265 34.7855 92.2986 35 91.6717 35H84.743C83.2253 35 81.9221 34.4721 80.8333 33.4163C79.7775 32.3275 79.2496 31.0078 79.2496 29.4571V3.82096C79.2496 3.16109 79.464 2.61669 79.893 2.18777C80.3219 1.75885 80.8498 1.54439 81.4766 1.54439H82.8624C83.4893 1.54439 84.0172 1.75885 84.4461 2.18777C84.908 2.61669 85.1389 3.16109 85.1389 3.82096V8.77001C85.1389 9.16594 85.3534 9.3639 85.7823 9.3639H91.6717C92.2986 9.3639 92.8265 9.59486 93.2554 10.0568C93.6843 10.4857 93.8988 11.0301 93.8988 11.69V13.0262C93.8988 13.5871 93.6843 14.115 93.2554 14.6099C92.7605 15.0388 92.2326 15.2533 91.6717 15.2533H85.7823C85.3534 15.2533 85.1389 15.4842 85.1389 15.9461V28.5167C85.1389 28.9457 85.3534 29.1601 85.7823 29.1601H91.6717C92.2986 29.1601 92.8265 29.3746 93.2554 29.8035C93.6843 30.2324 93.8988 30.7768 93.8988 31.4367V32.7234Z" fill="#6C93F9"/>
</svg>
