<svg width="91" height="33" viewBox="0 0 91 33" fill="none" xmlns="http://www.w3.org/2000/svg">
<path d="M22.328 13.9439C22.328 15.0959 22.04 16.1519 21.464 17.1119C20.92 18.0719 20.168 18.8399 19.208 19.4159C18.248 19.9919 17.176 20.2799 15.992 20.2799H7.16001C6.77601 20.2799 6.58401 20.4879 6.58401 20.9039V30.7919C6.58401 31.3999 6.36001 31.9279 5.91201 32.3759C5.49601 32.7919 4.98401 32.9999 4.37601 32.9999H3.08001C2.47201 32.9999 1.94401 32.7919 1.49601 32.3759C1.08001 31.9279 0.872009 31.3999 0.872009 30.7919V2.75992C0.872009 2.11993 1.08001 1.59193 1.49601 1.17593C1.94401 0.759925 2.47201 0.551925 3.08001 0.551925H15.992C17.176 0.551925 18.248 0.839925 19.208 1.41593C20.168 1.99193 20.92 2.75993 21.464 3.71993C22.04 4.67993 22.328 5.75193 22.328 6.93593V13.9439ZM16.664 13.9439V6.93593C16.664 6.48793 16.44 6.26393 15.992 6.26393H7.16001C6.77601 6.26393 6.58401 6.47193 6.58401 6.88793V13.9439C6.58401 14.3599 6.77601 14.5679 7.16001 14.5679H15.992C16.44 14.5679 16.664 14.3599 16.664 13.9439Z" fill="#484A4C"/>
<path d="M40.4416 11.6879C40.4416 12.2959 40.2336 12.8079 39.8176 13.2239C39.4016 13.6399 38.8896 13.8479 38.2816 13.8479H32.5696C32.1536 13.8479 31.9456 14.0719 31.9456 14.5199V30.7919C31.9456 31.3999 31.7216 31.9279 31.2736 32.3759C30.8576 32.7919 30.3456 32.9999 29.7376 32.9999H28.3936C27.7856 32.9999 27.2736 32.7919 26.8576 32.3759C26.4416 31.9279 26.2336 31.3999 26.2336 30.7919V13.5119C26.2336 12.5199 26.4736 11.6239 26.9536 10.8239C27.4336 9.99193 28.0736 9.33593 28.8736 8.85593C29.6736 8.37593 30.5696 8.13593 31.5616 8.13593H38.2816C38.8896 8.13593 39.4016 8.35993 39.8176 8.80793C40.2336 9.22393 40.4416 9.75193 40.4416 10.3919V11.6879Z" fill="#484A4C"/>
<path d="M51.5743 3.62393C51.5743 4.61593 51.2063 5.47993 50.4703 6.21593C49.7663 6.91993 48.9343 7.27193 47.9743 7.27193C46.9823 7.27193 46.1183 6.91993 45.3823 6.21593C44.6783 5.47993 44.3263 4.61593 44.3263 3.62393C44.3263 2.66393 44.6783 1.83193 45.3823 1.12793C46.1183 0.391926 46.9823 0.0239258 47.9743 0.0239258C48.9343 0.0239258 49.7663 0.391926 50.4703 1.12793C51.2063 1.83193 51.5743 2.66393 51.5743 3.62393ZM50.8063 30.7919C50.8063 31.3999 50.5823 31.9279 50.1343 32.3759C49.7183 32.7919 49.2063 32.9999 48.5983 32.9999H47.3023C46.6943 32.9999 46.1663 32.7919 45.7183 32.3759C45.3023 31.9279 45.0943 31.3999 45.0943 30.7919V10.8719C45.0943 10.2639 45.3023 9.75193 45.7183 9.33593C46.1663 8.88793 46.6943 8.66393 47.3023 8.66393H48.5983C49.2063 8.66393 49.7183 8.88793 50.1343 9.33593C50.5823 9.75193 50.8063 10.2639 50.8063 10.8719V30.7919Z" fill="#484A4C"/>
<path d="M72.8116 30.7919C72.8116 31.3999 72.6036 31.9279 72.1876 32.3759C71.7716 32.7919 71.2596 32.9999 70.6516 32.9999H69.3076C68.6996 32.9999 68.1876 32.7919 67.7716 32.3759C67.3556 31.9279 67.1476 31.3999 67.1476 30.7919V14.5199C67.1476 14.3279 67.0676 14.1679 66.9076 14.0399C66.7796 13.9119 66.6356 13.8479 66.4756 13.8479H61.8196C61.6596 13.8479 61.4996 13.9119 61.3396 14.0399C61.2116 14.1679 61.1476 14.3279 61.1476 14.5199V30.7919C61.1476 31.3999 60.9396 31.9279 60.5236 32.3759C60.1076 32.7919 59.5956 32.9999 58.9876 32.9999H57.6436C57.0356 32.9999 56.5076 32.7919 56.0596 32.3759C55.6436 31.9279 55.4356 31.3999 55.4356 30.7919V13.5119C55.4356 12.5199 55.6756 11.6239 56.1556 10.8239C56.6676 9.99193 57.3236 9.33593 58.1236 8.85593C58.9236 8.37593 59.8196 8.13593 60.8116 8.13593H67.4836C68.4756 8.13593 69.3716 8.37593 70.1716 8.85593C70.9716 9.33593 71.6116 9.99193 72.0916 10.8239C72.5716 11.6239 72.8116 12.5199 72.8116 13.5119V30.7919Z" fill="#484A4C"/>
<path d="M90.9729 30.7919C90.9729 31.3999 90.7649 31.9279 90.3489 32.3759C89.9329 32.7919 89.4209 32.9999 88.8129 32.9999H82.0929C80.6209 32.9999 79.3569 32.4879 78.3009 31.4639C77.2769 30.4079 76.7649 29.1279 76.7649 27.6239V2.75992C76.7649 2.11993 76.9729 1.59193 77.3889 1.17593C77.8049 0.759925 78.3169 0.551925 78.9249 0.551925H80.2689C80.8769 0.551925 81.3889 0.759925 81.8049 1.17593C82.2529 1.59193 82.4769 2.11993 82.4769 2.75992V7.55993C82.4769 7.94393 82.6849 8.13593 83.1009 8.13593H88.8129C89.4209 8.13593 89.9329 8.35993 90.3489 8.80793C90.7649 9.22393 90.9729 9.75193 90.9729 10.3919V11.6879C90.9729 12.2319 90.7649 12.7439 90.3489 13.2239C89.8689 13.6399 89.3569 13.8479 88.8129 13.8479H83.1009C82.6849 13.8479 82.4769 14.0719 82.4769 14.5199V26.7119C82.4769 27.1279 82.6849 27.3359 83.1009 27.3359H88.8129C89.4209 27.3359 89.9329 27.5439 90.3489 27.9599C90.7649 28.3759 90.9729 28.9039 90.9729 29.5439V30.7919Z" fill="#484A4C"/>
</svg>
