<svg width="91" height="33" viewBox="0 0 91 33" fill="none" xmlns="http://www.w3.org/2000/svg">
<path d="M22.3281 13.944C22.3281 15.096 22.0401 16.1521 21.4641 17.112C20.9201 18.072 20.1681 18.84 19.2081 19.416C18.2481 19.992 17.1761 20.28 15.9921 20.28H7.16007C6.77607 20.28 6.58407 20.488 6.58407 20.904V30.792C6.58407 31.4 6.36007 31.928 5.91207 32.376C5.49607 32.792 4.98407 33 4.37607 33H3.08007C2.47207 33 1.94407 32.792 1.49607 32.376C1.08007 31.928 0.87207 31.4 0.87207 30.792V2.76005C0.87207 2.12005 1.08007 1.59205 1.49607 1.17605C1.94407 0.760047 2.47207 0.552047 3.08007 0.552047H15.9921C17.1761 0.552047 18.2481 0.840047 19.2081 1.41605C20.1681 1.99205 20.9201 2.76005 21.4641 3.72005C22.0401 4.68005 22.3281 5.75205 22.3281 6.93605V13.944ZM16.6641 13.944V6.93605C16.6641 6.48805 16.4401 6.26405 15.9921 6.26405H7.16007C6.77607 6.26405 6.58407 6.47205 6.58407 6.88805V13.944C6.58407 14.36 6.77607 14.568 7.16007 14.568H15.9921C16.4401 14.568 16.6641 14.36 16.6641 13.944Z" fill="white"/>
<path d="M40.4417 11.688C40.4417 12.296 40.2337 12.808 39.8177 13.224C39.4017 13.64 38.8897 13.848 38.2817 13.848H32.5697C32.1537 13.848 31.9457 14.072 31.9457 14.52V30.792C31.9457 31.4 31.7217 31.928 31.2737 32.376C30.8577 32.792 30.3457 33 29.7377 33H28.3937C27.7857 33 27.2737 32.792 26.8577 32.376C26.4417 31.928 26.2337 31.4 26.2337 30.792V13.512C26.2337 12.52 26.4737 11.624 26.9537 10.824C27.4337 9.99205 28.0737 9.33605 28.8737 8.85605C29.6737 8.37605 30.5697 8.13605 31.5617 8.13605H38.2817C38.8897 8.13605 39.4017 8.36005 39.8177 8.80805C40.2337 9.22405 40.4417 9.75205 40.4417 10.392V11.688Z" fill="white"/>
<path d="M51.5743 3.62405C51.5743 4.61605 51.2063 5.48005 50.4703 6.21605C49.7663 6.92005 48.9343 7.27205 47.9743 7.27205C46.9823 7.27205 46.1183 6.92005 45.3823 6.21605C44.6783 5.48005 44.3263 4.61605 44.3263 3.62405C44.3263 2.66405 44.6783 1.83205 45.3823 1.12805C46.1183 0.392048 46.9823 0.0240479 47.9743 0.0240479C48.9343 0.0240479 49.7663 0.392048 50.4703 1.12805C51.2063 1.83205 51.5743 2.66405 51.5743 3.62405ZM50.8063 30.792C50.8063 31.4 50.5823 31.928 50.1343 32.376C49.7183 32.792 49.2063 33 48.5983 33H47.3023C46.6943 33 46.1663 32.792 45.7183 32.376C45.3023 31.928 45.0943 31.4 45.0943 30.792V10.872C45.0943 10.264 45.3023 9.75205 45.7183 9.33605C46.1663 8.88805 46.6943 8.66405 47.3023 8.66405H48.5983C49.2063 8.66405 49.7183 8.88805 50.1343 9.33605C50.5823 9.75205 50.8063 10.264 50.8063 10.872V30.792Z" fill="white"/>
<path d="M72.8117 30.792C72.8117 31.4 72.6037 31.928 72.1877 32.376C71.7717 32.792 71.2597 33 70.6517 33H69.3077C68.6997 33 68.1877 32.792 67.7717 32.376C67.3557 31.928 67.1477 31.4 67.1477 30.792V14.52C67.1477 14.328 67.0677 14.168 66.9077 14.04C66.7797 13.912 66.6357 13.848 66.4757 13.848H61.8197C61.6597 13.848 61.4997 13.912 61.3397 14.04C61.2117 14.168 61.1477 14.328 61.1477 14.52V30.792C61.1477 31.4 60.9397 31.928 60.5237 32.376C60.1077 32.792 59.5957 33 58.9877 33H57.6437C57.0357 33 56.5077 32.792 56.0597 32.376C55.6437 31.928 55.4357 31.4 55.4357 30.792V13.512C55.4357 12.52 55.6757 11.624 56.1557 10.824C56.6677 9.99205 57.3237 9.33605 58.1237 8.85605C58.9237 8.37605 59.8197 8.13605 60.8117 8.13605H67.4837C68.4757 8.13605 69.3717 8.37605 70.1717 8.85605C70.9717 9.33605 71.6117 9.99205 72.0917 10.824C72.5717 11.624 72.8117 12.52 72.8117 13.512V30.792Z" fill="white"/>
<path d="M90.9729 30.792C90.9729 31.4 90.7649 31.928 90.3489 32.376C89.9329 32.792 89.421 33 88.813 33H82.0929C80.6209 33 79.3569 32.488 78.3009 31.4641C77.2769 30.4081 76.7649 29.128 76.7649 27.6241V2.76005C76.7649 2.12005 76.9729 1.59205 77.3889 1.17605C77.8049 0.760047 78.3169 0.552047 78.9249 0.552047H80.2689C80.8769 0.552047 81.3889 0.760047 81.8049 1.17605C82.2529 1.59205 82.4769 2.12005 82.4769 2.76005V7.56005C82.4769 7.94405 82.6849 8.13605 83.1009 8.13605H88.813C89.421 8.13605 89.9329 8.36005 90.3489 8.80805C90.7649 9.22405 90.9729 9.75205 90.9729 10.392V11.688C90.9729 12.232 90.7649 12.744 90.3489 13.224C89.8689 13.64 89.3569 13.848 88.813 13.848H83.1009C82.6849 13.848 82.4769 14.072 82.4769 14.52V26.712C82.4769 27.128 82.6849 27.3361 83.1009 27.3361H88.813C89.421 27.3361 89.9329 27.544 90.3489 27.96C90.7649 28.376 90.9729 28.9041 90.9729 29.5441V30.792Z" fill="white"/>
</svg>
