<svg width="50" height="80" viewBox="0 0 50 80" fill="none" xmlns="http://www.w3.org/2000/svg">
<g clip-path="url(#clip0_364_597)">
<path fill-rule="evenodd" clip-rule="evenodd" d="M40.2215 78.3285C42.6137 77.8674 45.0058 77.464 47.398 77.2334C47.2867 76.5994 47.2311 75.9654 47.1755 75.2738C47.1198 74.755 47.0642 74.1787 47.0086 73.6599C45.3396 73.4294 41.6679 73.7176 40.1659 74.121C39.8877 75.1585 40.2215 76.2536 40.2215 77.3487C40.1659 77.7522 40.2215 78.0403 40.2215 78.3285Z" fill="white"/>
<path fill-rule="evenodd" clip-rule="evenodd" d="M12.7393 79.0202C17.3567 79.5389 21.9741 80 26.5916 79.9424C30.8196 79.8847 34.8807 79.3084 38.9974 78.5014C38.9418 78.1556 38.9418 77.8098 38.9418 77.464C38.8305 76.4265 38.7749 75.4467 38.6637 74.2939C37.4398 74.0634 36.3271 74.5245 35.2145 74.5245C34.1018 74.5245 32.9336 74.5821 31.8209 74.6398C30.7083 74.755 29.5957 74.928 28.4274 75.0432C28.2049 76.196 28.4274 77.1758 28.4274 78.2133C28.4274 79.0202 28.2605 79.4236 27.9267 79.366C27.426 79.2507 27.426 78.7896 27.3704 78.3862C27.2591 77.3487 27.1479 76.3112 27.0366 75.2161C25.5346 74.6974 24.0325 74.8127 22.5305 74.8703C21.0284 74.8703 19.4707 74.928 17.9686 74.9856C17.5792 75.8501 17.7461 76.7147 17.7461 77.5216C17.7461 77.9251 17.8574 78.3285 17.8018 78.732C17.8018 78.8473 17.5236 79.0202 17.3567 79.0778C17.2454 79.1354 17.0785 79.0202 17.0229 78.9625C16.856 78.6167 16.6891 78.2133 16.6891 77.8098C16.6335 76.83 16.5779 75.9078 16.5779 74.9856C14.5195 74.294 9.67952 73.9481 7.73241 74.3516C7.45426 75.7349 7.56552 77.1758 7.73241 78.5591C9.457 78.6744 11.1259 78.8473 12.7393 79.0202Z" fill="white"/>
<path fill-rule="evenodd" clip-rule="evenodd" d="M6.6198 76.1383C6.56417 75.4467 6.6198 74.755 6.6198 74.0058C5.00648 73.5447 3.39316 73.0836 1.66858 72.6225C1.27916 74.4669 1.61295 76.3112 1.50169 78.098C2.83685 78.098 4.22764 78.2709 5.5628 78.3862C6.00786 78.4438 6.45291 78.4438 6.84233 78.5014C6.73107 77.6945 6.67544 76.9452 6.6198 76.1383Z" fill="white"/>
<path fill-rule="evenodd" clip-rule="evenodd" d="M25.8684 10.0288C26.2022 10.7205 26.4804 11.1239 26.6473 11.5274C28.9838 16.3689 32.0992 20.634 35.8821 24.3804C36.7166 25.1873 37.5511 25.9942 38.2743 26.8588C38.8862 27.5504 39.4982 28.1268 40.4439 28.1268C40.7221 28.9914 40.5552 29.7406 40.4995 30.4899C40.2214 32.6801 39.9432 34.8703 39.6094 37.0029C39.2756 39.366 38.3855 41.4986 37.2729 43.5735C36.3828 45.3026 35.0476 46.6859 33.3787 47.6081C29.5957 49.8559 25.5346 50.6052 21.251 49.6254C20.4165 49.4524 19.582 49.1643 18.7476 48.9914C15.966 48.2997 14.1301 46.4553 12.9619 43.804C11.9605 41.5562 11.2929 39.1931 10.8478 36.7147C10.3472 34.0058 10.1803 31.2392 10.1246 28.4726C10.069 27.6081 10.1803 26.8588 10.9035 26.2824C11.2929 25.9942 11.5711 25.4179 11.7936 24.9568C13.0731 22.4784 14.8533 20.5187 17.0786 18.8473C19.0257 17.4063 20.8616 15.7925 22.6418 14.1787C23.365 13.5447 23.8657 12.7378 24.4776 11.9885C24.9227 11.4121 25.3121 10.8357 25.8684 10.0288ZM22.5861 33.3141C24.5332 32.0461 24.7558 31.7579 24.8114 29.4525C24.867 28.3573 24.8114 27.2623 24.8114 26.1672C24.8114 25.8213 24.8114 25.4755 24.7001 25.1297C24.6445 24.8991 24.422 24.611 24.1995 24.611C24.0326 24.611 23.6988 24.8415 23.6431 25.0721C23.5319 25.6484 23.5319 26.2824 23.4762 26.9164C23.4206 28.2997 23.4762 29.683 22.9199 31.0663C22.5861 31.2968 22.1411 31.4697 21.8073 31.7579C21.0285 32.3919 20.7503 33.4294 21.1953 34.3516C21.7517 35.5043 22.4749 36.4265 23.5319 37.0605C24.0326 37.3487 24.5332 37.464 25.0339 37.2911C25.4234 37.1758 25.7571 37.0029 25.7015 36.3112C24.3664 35.8501 23.0868 35.0432 22.5861 33.3141ZM30.2633 40.634C30.0408 40.7493 29.707 40.8646 29.4845 41.0375C28.5387 41.5562 27.6486 42.0749 26.6473 42.536C25.4234 43.1124 24.1995 43.0548 22.9756 42.4207C22.3636 42.1326 21.8073 41.7867 21.1953 41.4986C20.9172 41.3256 20.5834 41.1527 20.3052 41.0951C20.1383 41.0375 19.8602 41.1527 19.8046 41.268C19.6933 41.3833 19.7489 41.6715 19.8602 41.8444C20.8616 43.1124 22.2523 43.8617 23.6988 44.3228C25.6459 44.9568 29.2063 43.6311 30.3189 41.902C30.5415 41.4986 30.7084 41.0951 30.2633 40.634ZM32.1548 30.4899C32.0435 30.0865 31.9879 29.5677 31.7654 29.1643C31.6541 28.9337 31.2647 28.7032 30.9865 28.7032C30.7084 28.7032 30.3189 28.9337 30.2077 29.1643C29.7626 30.0288 29.7626 31.0086 30.3189 31.8732C30.4858 32.1038 30.8753 32.2767 31.1534 32.2767C31.4316 32.2767 31.7654 31.9885 31.8766 31.7579C32.0435 31.3545 32.0435 30.951 32.1548 30.4899ZM18.9701 30.2594C18.8588 29.9135 18.8032 29.4525 18.6363 29.049C18.4694 28.6455 18.08 28.415 17.6905 28.4726C17.2455 28.5303 16.9117 28.8184 16.8561 29.2219C16.7448 29.7983 16.7448 30.4323 16.8004 31.0086C16.8561 31.6427 17.3011 31.9885 17.8574 31.9885C18.4138 31.9885 18.8032 31.585 18.9144 31.0086C18.9144 30.8357 18.9144 30.6052 18.9701 30.2594ZM30.8196 22.4208C30.3189 22.4208 30.1521 22.4208 29.9852 22.4784C29.7626 22.5937 29.4845 22.7666 29.4288 22.9395C29.3176 23.3429 29.5957 23.5735 29.9295 23.6311C30.7084 23.7464 31.4872 23.8617 32.2661 23.9193C32.4329 23.9193 32.7667 23.6311 32.7667 23.4582C32.7667 23.2853 32.5998 22.8818 32.4329 22.8242C31.8766 22.6513 31.2091 22.536 30.8196 22.4208ZM19.2482 21.7291C18.9144 21.4986 18.7476 21.268 18.525 21.268C17.6905 21.0951 16.9673 21.4409 16.2441 21.8444C16.0216 21.9597 15.7991 22.1902 15.6878 22.4208C15.6322 22.6513 15.6878 22.9395 15.7434 23.17C15.7991 23.2853 16.1329 23.2853 16.2441 23.2277C16.9117 22.9395 17.5793 22.6513 18.2469 22.3631C18.6363 22.2478 18.8588 22.0173 19.2482 21.7291Z" fill="white"/>
<path fill-rule="evenodd" clip-rule="evenodd" d="M37.8292 67.3199C37.9961 68.4726 38.163 69.5677 38.2743 70.6628C38.3299 71.3545 38.3856 71.9885 38.4412 72.6801C36.7166 73.3717 34.992 73.2565 33.2674 73.3141C31.5985 73.3141 29.9852 73.8328 28.3719 73.6599C27.9268 71.9885 27.7599 68.5879 28.0937 66.513C29.0951 66.3977 30.1521 66.6859 31.1534 66.6859C32.2661 66.6859 33.3787 66.7435 34.547 66.7435C35.604 66.8011 36.661 66.6859 37.8292 67.3199Z" fill="white"/>
<path fill-rule="evenodd" clip-rule="evenodd" d="M26.592 66.5706C26.6476 67.0317 26.7032 67.3775 26.7032 67.7233C26.7589 69.6254 26.8701 71.585 26.9258 73.487C25.8131 73.7176 20.0831 73.8328 18.0803 73.6023C17.3571 72.6225 17.9134 71.4697 17.8578 70.4323C17.8578 69.3372 17.9134 68.2421 17.969 67.2046C19.4711 66.6859 24.478 66.3401 26.592 66.5706Z" fill="white"/>
<path fill-rule="evenodd" clip-rule="evenodd" d="M8.51163 66.6859C11.2932 66.8011 13.9079 66.8588 16.5226 66.9741C17.0789 68.0115 16.6895 69.1066 16.7451 70.2017C16.8008 71.2392 16.8008 72.219 16.5226 73.3718C13.6298 73.1412 10.9038 72.9107 8.06658 72.7377C7.78842 70.6628 8.23348 68.8184 8.51163 66.6859Z" fill="white"/>
<path fill-rule="evenodd" clip-rule="evenodd" d="M27.2595 59.5389C27.1483 58.0403 26.9814 56.5994 26.8701 55.0432C27.8715 54.8703 28.7616 54.6398 29.7073 54.5245C31.0425 54.3516 32.322 54.121 33.6016 53.6023C34.436 53.2565 34.8255 53.4294 35.2149 54.2939C35.9937 55.7925 36.3275 57.3487 36.55 59.0202C34.3804 59.7695 29.7073 60.0576 27.2595 59.5389Z" fill="white"/>
<path fill-rule="evenodd" clip-rule="evenodd" d="M37.3842 65.706C34.1575 65.1873 31.0421 65.7637 27.8155 65.1297C27.4817 63.804 27.4817 62.536 27.5373 61.2104C29.0394 60.7493 30.5971 61.0951 32.0991 60.9222C33.6012 60.7493 35.1033 60.634 36.6053 60.5187C37.1616 62.0173 37.4398 63.8617 37.3842 65.706Z" fill="white"/>
<path fill-rule="evenodd" clip-rule="evenodd" d="M9.84689 60.2305C12.406 60.5764 14.8537 60.8646 17.4684 61.2104C17.3015 62.7666 17.1346 64.1499 16.9677 65.5331C14.965 66.1095 11.0708 65.9366 8.90115 65.245C8.84552 63.5158 9.06805 62.3055 9.84689 60.2305Z" fill="white"/>
<path fill-rule="evenodd" clip-rule="evenodd" d="M39.7765 72.4496C39.5539 70.7205 39.3314 69.1066 39.1089 67.3775C40.2772 66.7435 41.4454 66.8012 42.6137 66.7435C43.7263 66.6859 44.839 66.5706 46.0072 66.513C46.5079 68.3574 46.7861 70.0865 46.7304 71.8156C45.3953 72.3343 42.113 72.6225 39.7765 72.4496Z" fill="white"/>
<path fill-rule="evenodd" clip-rule="evenodd" d="M16.1885 53.3141C17.0229 53.6599 17.8018 54.0058 18.6919 54.4092C18.3025 56.3112 18.1356 58.098 17.5793 60C15.1315 59.8847 12.7949 59.5389 10.2915 59.1931C10.2915 58.9049 10.2915 58.6167 10.4028 58.3862C10.5697 57.8674 10.8478 57.4063 11.0703 56.8876C11.4598 55.9078 12.0717 55.1585 13.1287 54.8127C14.0745 54.4092 15.0202 53.8905 16.1885 53.3141Z" fill="white"/>
<path fill-rule="evenodd" clip-rule="evenodd" d="M17.1343 52.3343C17.4681 51.6427 17.7462 51.0086 18.0244 50.3746C20.3053 50.8934 22.4749 51.4697 24.7558 51.5274C26.9811 51.585 29.0951 51.0663 31.3204 50.3746C31.5985 50.7205 31.9323 51.0663 32.1548 51.4697C32.3774 51.8156 32.5999 52.1614 32.7668 52.5072C28.7613 54.121 20.2497 54.3516 17.1343 52.3343Z" fill="white"/>
<path fill-rule="evenodd" clip-rule="evenodd" d="M45.6734 65.0721C45.1727 65.245 44.8945 65.3602 44.672 65.3602C42.8362 65.5332 41.0003 65.6484 39.1645 65.8213C38.5525 64.5533 38.2187 62.7089 38.1631 60.3458C39.832 59.9424 41.501 59.8271 43.2812 59.7118C44.5051 61.268 45.0614 63.0548 45.6734 65.0721Z" fill="white"/>
<path fill-rule="evenodd" clip-rule="evenodd" d="M18.1912 65.7061C18.1912 65.072 18.1356 64.6686 18.1912 64.2651C18.3025 63.3429 18.4694 62.3631 18.6363 61.4986C19.9158 61.1527 24.2551 60.9798 26.1466 61.2104C26.4804 62.4207 26.4804 63.6888 26.536 65.0144C25.1452 65.5908 23.7544 65.3602 22.3636 65.4179C21.0284 65.5331 19.6933 65.5908 18.1912 65.7061Z" fill="white"/>
<path fill-rule="evenodd" clip-rule="evenodd" d="M18.8032 60.0576C19.0814 58.1556 19.3595 56.5418 19.6377 54.9856C20.9729 54.755 23.977 54.8703 25.7016 55.2161C26.1466 56.5994 26.0353 58.098 26.0353 59.6542C24.8671 60.2882 23.6432 60 22.4749 60.0576C21.3067 60.1153 20.194 60.0576 18.8032 60.0576Z" fill="white"/>
<path fill-rule="evenodd" clip-rule="evenodd" d="M7.39865 66.3977C7.17613 68.5303 6.9536 70.4323 6.73107 72.2767C4.95086 72.5648 3.78259 72.3343 1.61296 71.1239C1.55732 69.3372 1.89111 67.5504 2.44743 65.6484C3.28191 65.7637 4.06075 65.8213 4.8396 65.9366C5.61844 66.0519 6.39728 66.2248 7.39865 66.3977Z" fill="white"/>
<path fill-rule="evenodd" clip-rule="evenodd" d="M8.9567 25.4179C8.23349 24.9568 7.67717 24.5533 7.12085 24.2651C6.73143 24.0346 6.34201 24.0922 6.17511 24.611C7.00959 25.4179 7.8997 26.2824 8.73417 27.0893C8.73417 28.1844 8.73417 29.2795 8.73417 30.3746C7.7328 30.8357 6.84269 30.5476 6.06385 30.0865C5.06248 29.5677 4.3949 28.7608 4.00548 27.6657C3.61605 26.4553 3.61605 25.245 3.94985 24.0346C4.17237 23.1124 4.67306 22.3631 5.6188 22.1902C6.6758 21.9597 7.56591 22.4208 8.23349 23.2853C8.67854 23.8617 8.84544 24.5533 8.9567 25.4179Z" fill="white"/>
<path fill-rule="evenodd" clip-rule="evenodd" d="M42.3354 24.8991C42.3354 24.611 42.3354 24.3804 42.3354 24.0922C42.4466 22.7089 43.9487 22.0173 45.2282 22.9395C46.2296 23.6311 46.6746 24.6686 46.8415 25.879C47.1753 28.415 45.4507 30.7781 43.0586 31.0086C42.0572 31.1239 41.7234 30.7781 41.6678 29.7406C41.6121 28.3574 42.0016 27.2046 43.0029 26.2248C43.5593 25.7061 44.0599 25.1873 44.505 24.7262C44.3381 24.2075 44.0599 24.1499 43.7261 24.2651C43.2811 24.438 42.7804 24.6686 42.3354 24.8991Z" fill="white"/>
<path fill-rule="evenodd" clip-rule="evenodd" d="M5.45164 59.2507C6.6199 59.5389 7.56564 59.7695 8.62264 60.0576C8.40012 60.9798 8.23322 61.7291 8.06633 62.536C7.89943 63.3429 7.73254 64.1499 7.56564 64.9568C5.95232 65.245 4.5059 64.7262 2.89258 64.5533C3.1151 62.4208 4.11648 60.8646 5.45164 59.2507Z" fill="white"/>
<path fill-rule="evenodd" clip-rule="evenodd" d="M42.3356 58.2709C40.7779 58.7896 39.3872 58.9625 37.8851 58.9049C37.44 57.6369 37.1063 56.3112 36.7725 54.9856C37.9407 55.0432 38.1633 55.1009 39.554 55.9078C40.5554 56.4265 41.5012 57.1758 42.3356 58.2709Z" fill="white"/>
<path fill-rule="evenodd" clip-rule="evenodd" d="M10.1249 56.5418C9.73549 57.2911 9.4017 58.0403 9.01228 58.8473C8.12217 58.8473 7.39896 58.9049 6.62012 58.2709C7.62149 57.3487 8.67849 56.7723 10.1249 56.5418Z" fill="white"/>
<path fill-rule="evenodd" clip-rule="evenodd" d="M42.3354 24.8991C42.3354 24.9568 42.3354 24.9568 42.2798 25.0144C42.2798 24.9568 42.3354 24.9568 42.3354 24.8991Z" fill="white"/>
<path fill-rule="evenodd" clip-rule="evenodd" d="M5.95243 20.5764C5.95243 20.2306 6.00806 19.7695 5.95243 19.3084C5.78553 17.6946 6.06369 16.1384 6.50874 14.6398C7.73264 10.7205 9.67975 7.20467 12.5726 4.32283C15.2429 1.55626 18.4139 0.0576984 22.1969 6.15343e-05C23.532 6.15343e-05 24.8672 -0.0575753 26.1467 0.345883C26.6474 0.518794 27.2037 0.461157 27.7044 0.40352C28.0938 0.40352 28.4833 0.230609 28.8727 0.172972C31.1536 -0.230486 33.2676 0.115335 35.2147 1.44098C36.4942 2.30554 37.7738 3.17009 38.942 4.20755C42.2799 7.14704 44.1714 10.9511 44.4496 15.5044C44.5608 17.3488 44.4496 19.1931 44.4496 21.0952C47.5649 22.9395 48.6776 25.0721 48.01 28.0116C47.6762 29.5101 46.8974 30.6629 45.7291 31.5274C44.5608 32.392 43.2257 32.392 41.9461 32.4496C41.4455 32.9684 41.6124 33.66 41.5567 34.2364C41.3342 37.5217 40.4997 40.5764 38.9977 43.5159C37.8294 45.879 36.2161 47.7234 33.9908 48.9338C33.7127 49.1067 33.4345 49.2796 33.1563 49.4525C33.1007 49.5101 33.0451 49.5678 32.9338 49.6831C33.0451 50.3171 33.4901 50.8358 33.9908 51.2393C34.714 51.8156 35.5485 52.2767 36.383 52.7378C37.3843 53.2565 38.4413 53.66 39.4983 54.1211C41.9461 55.2738 43.782 57.1182 45.1171 59.4813C46.4523 61.9597 47.5093 64.611 47.8987 67.4352C48.3994 70.8934 48.7332 74.4093 49.1226 78.0404C48.5663 78.1557 48.1769 78.271 47.7875 78.3286C47.6206 78.098 47.5093 78.0404 47.5093 77.9251C47.3981 77.0606 47.2868 76.1384 47.1755 75.2738C47.1199 74.7551 47.0643 74.1787 47.0086 73.66C45.3397 73.4295 41.668 73.7176 40.1659 74.1211C39.8878 75.1586 40.2216 76.2537 40.2216 77.3488C40.2216 77.9828 40.2772 78.6168 40.2216 79.1931C40.2216 79.4237 39.9434 79.7119 39.7209 79.7119C39.554 79.7119 39.2202 79.4813 39.1646 79.2508C39.0533 78.6744 39.0533 78.0404 38.9977 77.4064C38.8864 76.3689 38.8308 75.3891 38.7195 74.2364C37.4956 74.0058 36.383 74.4669 35.2703 74.4669C34.1577 74.4669 32.9894 74.5246 31.8768 74.5822C30.7642 74.6975 29.6515 74.8704 28.4833 74.9857C28.2607 76.1384 28.4833 77.1182 28.4833 78.1557C28.4833 78.9626 28.3164 79.3661 27.9826 79.3084C27.4819 79.1932 27.4819 78.732 27.4263 78.3286C27.315 77.2911 27.2037 76.2537 27.0925 75.1586C25.5904 74.6398 24.0884 74.7551 22.5863 74.8127C21.0843 74.8127 19.5266 74.8704 18.0245 74.928C17.6351 75.7926 17.802 76.6571 17.802 77.464C17.802 77.8675 17.9132 78.271 17.8576 78.6744C17.8576 78.7897 17.5795 78.9626 17.4126 79.0202C17.3013 79.0779 17.1344 78.9626 17.0788 78.905C16.9119 78.5591 16.745 78.1557 16.745 77.7522C16.6893 76.7724 16.6337 75.8502 16.6337 74.928C14.5753 74.2364 9.73538 73.8905 7.78827 74.294C7.45448 75.7349 7.62138 77.2335 7.84391 78.6744C7.39885 79.1931 7.00943 78.905 6.89817 78.5015C6.73127 77.6946 6.67564 76.8877 6.62001 76.0808C6.56438 75.3891 6.62001 74.6975 6.62001 73.9482C5.00669 73.4871 3.39337 73.026 1.66879 72.5649C1.27936 74.5822 1.66879 76.5418 1.50189 78.5015C0.50052 78.732 0.277994 78.6744 0.16673 78.098C0.111099 77.7522 0.0554668 77.4064 0.0554668 77.0606C-0.0557966 72.8531 0.0554667 68.6456 1.1681 64.5534C1.44626 63.6312 1.72442 62.709 2.05821 61.8444C2.89268 59.7695 4.22784 58.0404 6.00806 56.7724C7.51012 55.6773 9.12344 54.8704 10.7368 54.1787C11.9607 53.66 13.1845 53.1413 14.4084 52.5073C15.4655 51.9885 16.3556 51.2969 16.6893 49.9712C16.5225 49.7983 16.3556 49.5678 16.133 49.4525C14.019 48.3574 12.6839 46.513 11.6825 44.3228C10.1804 41.0375 9.51286 37.5217 9.0678 33.9482C9.01217 33.4295 8.95654 32.8531 8.90091 32.2191C8.40022 32.1038 7.95517 32.0462 7.51012 31.9885C4.33911 31.5274 2.2251 28.9914 2.392 25.7061C2.392 25.1297 2.50326 24.611 2.61453 24.0923C2.94832 22.6514 3.6159 21.5563 5.06232 21.0952C5.22922 21.0375 5.45174 20.9223 5.61864 20.8646C5.7299 20.8646 5.78553 20.7493 5.95243 20.5764ZM42.3356 24.8992C42.8363 24.7263 43.2813 24.4957 43.782 24.3228C44.1158 24.2076 44.4496 24.3228 44.5608 24.7839C44.0601 25.245 43.5595 25.8214 43.0588 26.2825C42.0574 27.2047 41.668 28.415 41.7236 29.7983C41.7792 30.7782 42.113 31.124 43.1144 31.0663C45.5066 30.8358 47.2312 28.5303 46.8974 25.9367C46.7305 24.7263 46.2854 23.6888 45.284 22.9972C44.0045 22.075 42.5581 22.709 42.3912 24.1499C42.3356 24.3805 42.3356 24.6686 42.3356 24.8992C42.3356 24.9568 42.3356 25.0145 42.2799 25.0145C42.2799 24.9568 42.2799 24.9568 42.3356 24.8992ZM25.8686 10.0289C25.3123 10.8934 24.9228 11.4698 24.5334 11.9885C23.9771 12.7378 23.4208 13.5447 22.6976 14.1787C20.8617 15.7926 19.0815 17.4064 17.1344 18.8473C14.9091 20.4612 13.1289 22.4784 11.8494 24.9568C11.6269 25.4179 11.3487 25.9943 10.9593 26.2825C10.1804 26.8589 10.1248 27.6081 10.1804 28.4727C10.2917 31.2393 10.4586 34.0058 10.9037 36.7148C11.3487 39.1355 12.0163 41.4986 13.0177 43.8041C14.1859 46.4554 16.0218 48.2998 18.8034 48.9914C19.6378 49.222 20.4723 49.4525 21.3068 49.6254C25.5904 50.6052 29.5959 49.856 33.4345 47.6081C35.1034 46.6283 36.383 45.3027 37.3287 43.5735C38.3857 41.4986 39.2758 39.3661 39.6652 37.0029C39.999 34.8127 40.2772 32.6225 40.5554 30.49C40.6666 29.7407 40.7779 28.9914 40.4997 28.1269C39.554 28.1269 38.942 27.5505 38.3301 26.8589C37.5512 25.9943 36.7168 25.1874 35.9379 24.3805C32.155 20.5764 29.0396 16.3113 26.7031 11.4698C26.4805 11.0663 26.258 10.6629 25.8686 10.0289ZM37.8294 67.3199C36.7168 66.6859 35.6041 66.8012 34.5471 66.7436C33.4345 66.6859 32.3219 66.6859 31.1536 66.6859C30.0966 66.6859 29.0952 66.3978 28.0938 66.513C27.7601 68.588 27.927 71.9885 28.372 73.66C29.9853 73.8329 31.5986 73.3718 33.2676 73.3142C34.9922 73.3142 36.7168 73.4295 38.4413 72.6802C38.3857 71.9885 38.3857 71.2969 38.2745 70.6629C38.1632 69.5678 37.9963 68.4727 37.8294 67.3199ZM26.5918 66.5707C24.4778 66.3401 19.5266 66.6859 18.0245 67.147C17.9689 68.1845 17.9132 69.2796 17.9132 70.3747C17.9132 71.4122 17.4126 72.5649 18.1358 73.5447C20.1385 73.7176 25.8129 73.66 26.9812 73.4295C26.9256 71.5274 26.87 69.6254 26.7587 67.6658C26.7031 67.3776 26.6474 67.0318 26.5918 66.5707ZM8.51149 66.6859C8.23333 68.7609 7.78827 70.6629 8.06643 72.6802C10.9037 72.9107 13.6296 73.0836 16.5225 73.3142C16.745 72.1614 16.745 71.124 16.745 70.1441C16.6893 69.1067 17.0788 67.9539 16.5225 66.9165C13.9078 66.9165 11.2931 66.8012 8.51149 66.6859ZM27.2594 59.539C29.7072 60.0577 34.3802 59.7695 36.5499 59.0202C36.3273 57.4064 35.9936 55.7926 35.2147 54.294C34.7697 53.4871 34.4359 53.3142 33.6014 53.6024C32.3219 54.0635 31.0423 54.294 29.7072 54.5246C28.8171 54.6398 27.8713 54.8704 26.87 55.0433C27.0368 56.5995 27.1481 58.0404 27.2594 59.539ZM37.3843 65.7061C37.44 63.8617 37.1618 62.0173 36.6055 60.5188C35.1591 60.6341 33.6014 60.7493 32.0993 60.9222C30.5973 61.0952 29.0396 60.6917 27.5375 61.2104C27.4263 62.5937 27.4819 63.8617 27.8157 65.1297C31.0423 65.7637 34.1577 65.245 37.3843 65.7061ZM9.84665 60.2306C9.0678 62.3055 8.84528 63.5735 8.84528 65.1874C11.0705 65.879 14.9091 66.0519 16.9119 65.4756C17.0788 64.0923 17.2457 62.709 17.4126 61.1528C14.8535 60.8646 12.4057 60.5188 9.84665 60.2306ZM39.7765 72.4496C42.1687 72.6225 45.3953 72.3344 46.7305 71.8733C46.7861 70.0865 46.5079 68.3574 46.0073 66.5707C44.839 66.6283 43.7264 66.7436 42.6137 66.8012C41.4455 66.8588 40.2772 66.8012 39.1089 67.4352C39.3315 69.1067 39.554 70.7205 39.7765 72.4496ZM16.1887 53.3142C15.0204 53.8905 14.0747 54.4093 13.0733 54.7551C12.0163 55.1009 11.4043 55.8502 11.0149 56.83C10.7924 57.3488 10.5699 57.8099 10.3473 58.3286C10.2917 58.5591 10.2917 58.7897 10.2361 59.1355C12.6839 59.4813 15.076 59.8271 17.5238 59.9424C18.0801 58.098 18.247 56.2537 18.6365 54.3516C17.7464 54.0058 16.9675 53.66 16.1887 53.3142ZM17.1344 52.3344C20.2498 54.3516 28.7614 54.1787 32.8225 52.4496C32.6 52.1038 32.4331 51.758 32.2106 51.4122C31.9324 51.0087 31.6543 50.6629 31.3761 50.3171C29.1509 50.9511 27.0925 51.5274 24.8116 51.4698C22.5307 51.4122 20.361 50.8358 18.0801 50.3171C17.7464 51.0087 17.4682 51.5851 17.1344 52.3344ZM45.6735 65.0721C45.0615 63.0548 44.5052 61.2681 43.2813 59.7119C41.5011 59.8271 39.8321 59.9424 38.1632 60.3459C38.2188 62.709 38.5526 64.5534 39.1646 65.8214C41.0004 65.6485 42.8363 65.5332 44.6721 65.3603C44.8946 65.3603 45.1728 65.245 45.6735 65.0721ZM18.1914 65.7061C19.7491 65.5908 21.0286 65.5908 22.3638 65.4756C23.6989 65.3603 25.1454 65.6485 26.5362 65.0721C26.4805 63.7465 26.4805 62.4784 26.1467 61.2681C24.2553 61.0952 19.916 61.2681 18.6365 61.5563C18.5252 62.4208 18.3583 63.343 18.1914 64.3228C18.1358 64.611 18.1914 65.0145 18.1914 65.7061ZM18.8034 60.0577C20.1941 60.0577 21.3624 60.1153 22.475 60.0577C23.6433 60.0001 24.8672 60.2882 26.0355 59.6542C26.0355 58.098 26.1467 56.6571 25.7017 55.2162C23.9771 54.8704 20.973 54.7551 19.6378 54.9857C19.3597 56.5418 19.0815 58.1557 18.8034 60.0577ZM7.39885 66.3978C6.39748 66.2248 5.61864 66.0519 4.83979 65.9367C4.06095 65.8214 3.28211 65.7637 2.44763 65.6485C1.89131 67.5505 1.55752 69.3372 1.61315 71.124C3.83842 72.3344 4.95106 72.5649 6.73127 72.2767C6.9538 70.4323 7.17633 68.5303 7.39885 66.3978ZM8.95654 25.4179C8.78965 24.4957 8.62275 23.8617 8.23333 23.343C7.56575 22.4784 6.67564 22.0174 5.61864 22.2479C4.6729 22.4208 4.22785 23.2277 3.94969 24.0923C3.6159 25.3027 3.6159 26.513 4.00532 27.7234C4.33911 28.8185 5.06232 29.6254 6.06369 30.1442C6.89817 30.6052 7.73264 30.8934 8.73401 30.4323C8.73401 29.3372 8.73401 28.2421 8.73401 27.147C7.84391 26.2825 7.00943 25.4756 6.17495 24.6686C6.34185 24.1499 6.73127 24.0923 7.12069 24.3228C7.73264 24.611 8.23333 24.9568 8.95654 25.4179ZM5.45174 59.2508C4.11658 60.8646 3.11521 62.4208 2.89268 64.611C4.506 64.7263 5.95243 65.245 7.56575 65.0145C7.73264 64.2076 7.89954 63.4006 8.06643 62.5937C8.23333 61.7868 8.40022 61.0375 8.62275 60.1153C7.51012 59.7695 6.56438 59.539 5.45174 59.2508ZM42.3356 58.271C41.5011 57.1758 40.5553 56.4266 39.554 55.8502C38.1632 55.0433 37.9407 54.9857 36.7724 54.928C37.1062 56.2537 37.44 57.5793 37.885 58.8473C39.3871 58.9626 40.7779 58.7897 42.3356 58.271ZM10.1248 56.5418C8.67838 56.7724 7.56575 57.2911 6.67564 58.271C7.39885 58.905 8.1777 58.8473 9.0678 58.8473C9.40159 58.098 9.79102 57.3488 10.1248 56.5418Z" fill="#484A4C"/>
<path fill-rule="evenodd" clip-rule="evenodd" d="M22.5862 33.3141C23.1425 35.1009 24.422 35.8501 25.8128 36.3112C25.9241 36.9452 25.5346 37.1758 25.1452 37.2911C24.5889 37.464 24.0882 37.3487 23.6432 37.0605C22.5862 36.3689 21.8073 35.4467 21.3066 34.3516C20.8616 33.4294 21.1397 32.3919 21.9186 31.7579C22.2524 31.4697 22.6974 31.2392 23.0312 31.0663C23.5319 29.683 23.4763 28.2997 23.5875 26.9164C23.6432 26.2824 23.6432 25.7061 23.7544 25.072C23.8101 24.8991 24.1439 24.611 24.3108 24.611C24.4776 24.611 24.7002 24.8991 24.8114 25.1297C24.9227 25.4179 24.9227 25.8213 24.9227 26.1672C24.9227 27.2623 24.9783 28.3574 24.9227 29.4525C24.7002 31.7003 24.5333 32.0461 22.5862 33.3141Z" fill="#484A4C"/>
<path fill-rule="evenodd" clip-rule="evenodd" d="M30.2634 40.634C30.7084 41.1527 30.5415 41.4986 30.319 41.8444C29.1507 43.5735 25.6459 44.8415 23.6988 44.2651C22.2524 43.804 20.8616 43.0548 19.8602 41.7867C19.749 41.6715 19.749 41.3833 19.8046 41.2104C19.9159 41.0951 20.194 40.9798 20.3053 41.0375C20.6391 41.1527 20.9172 41.3257 21.1954 41.4409C21.8073 41.7291 22.3637 42.0749 22.9756 42.3631C24.1995 42.9971 25.4234 43.0548 26.6473 42.4784C27.593 42.0173 28.5388 41.4409 29.4845 40.9798C29.7071 40.8646 29.9852 40.7493 30.2634 40.634Z" fill="#484A4C"/>
<path fill-rule="evenodd" clip-rule="evenodd" d="M32.1549 30.4899C32.0436 30.951 32.0436 31.3545 31.8767 31.7003C31.7655 31.9308 31.4317 32.219 31.1535 32.219C30.8753 32.219 30.4859 32.0461 30.319 31.8156C29.7627 30.951 29.7627 30.0288 30.2078 29.1066C30.319 28.8761 30.7084 28.6455 30.9866 28.6455C31.2648 28.6455 31.6542 28.8761 31.7655 29.1066C31.988 29.5677 32.0436 30.0865 32.1549 30.4899Z" fill="#484A4C"/>
<path fill-rule="evenodd" clip-rule="evenodd" d="M18.9703 30.2594C18.9147 30.6052 18.9147 30.7781 18.859 31.0086C18.7478 31.6427 18.3584 31.9885 17.802 31.9885C17.2457 31.9885 16.8007 31.6427 16.745 31.0086C16.6894 30.4323 16.6894 29.7983 16.8007 29.2219C16.8563 28.8184 17.1901 28.5303 17.6351 28.4726C18.0802 28.415 18.414 28.6455 18.5809 29.049C18.8034 29.4525 18.859 29.9135 18.9703 30.2594Z" fill="#484A4C"/>
<path fill-rule="evenodd" clip-rule="evenodd" d="M30.82 22.4208C31.2094 22.536 31.8214 22.6513 32.4333 22.8242C32.6002 22.8818 32.8227 23.2277 32.7671 23.4582C32.7671 23.6311 32.4333 23.9193 32.2664 23.9193C31.4876 23.8617 30.7087 23.804 29.9299 23.6311C29.5961 23.5735 29.318 23.3429 29.4292 22.9395C29.4848 22.7666 29.763 22.5937 29.9855 22.4784C30.1524 22.4208 30.375 22.4784 30.82 22.4208Z" fill="#484A4C"/>
<path fill-rule="evenodd" clip-rule="evenodd" d="M19.2486 21.7291C18.8591 22.0173 18.581 22.2478 18.3028 22.3631C17.6352 22.7089 16.9677 22.9971 16.3001 23.2277C16.1332 23.2853 15.7994 23.2277 15.7994 23.17C15.6881 22.9395 15.6325 22.6513 15.7438 22.4208C15.855 22.1902 16.0775 21.9597 16.3001 21.8444C16.9677 21.4409 17.7465 21.0951 18.581 21.268C18.7479 21.268 18.9148 21.4986 19.2486 21.7291Z" fill="#484A4C"/>
</g>
<defs>
<clipPath id="clip0_364_597">
<rect width="49.1228" height="80" fill="white"/>
</clipPath>
</defs>
</svg>
