<svg width="51" height="72" viewBox="0 0 51 72" fill="none" xmlns="http://www.w3.org/2000/svg">
<g clip-path="url(#clip0_167_207)">
<path fill-rule="evenodd" clip-rule="evenodd" d="M36.4215 7.95108C37.3467 8.09742 38.1744 8.19499 39.0022 8.39011C39.8786 8.63401 40.609 9.1706 40.9012 10.0974C41.3394 11.3169 40.9985 12.4877 39.9273 13.2194C39.5865 13.4633 39.2456 13.6096 38.7587 13.9023C39.0996 14.1462 39.2456 14.4389 39.4891 14.4389C40.6577 14.5364 41.2907 15.3169 41.8263 16.195C42.6054 17.4145 42.4106 18.4389 41.4368 19.5608C41.2907 19.7072 41.1446 19.9023 40.9499 20.195C41.242 20.4389 41.4368 20.7316 41.7289 20.8779C42.4593 21.2194 43.0436 21.7072 43.4331 22.3901C43.9688 23.2682 43.8714 24.2438 43.2384 25.0243C42.9462 25.3657 42.6054 25.5608 42.1671 25.5121C41.0472 25.3657 39.9273 25.4145 38.9048 26.0486C38.4666 26.2925 37.9796 26.1462 37.5901 25.8047C36.9571 25.2682 36.5189 24.5364 36.4215 23.7072C36.3728 23.2194 36.3241 22.7804 36.2754 22.195C35.9346 22.3413 35.6911 22.4389 35.399 22.5364C34.7173 22.7804 34.2791 22.634 33.8895 21.9999C33.5974 21.5121 33.5 21.0243 33.5974 20.4877C33.6461 20.2438 33.7922 20.0486 33.7922 19.8047C33.7922 19.6096 33.6948 19.3169 33.5487 19.2194C33.4026 19.1218 33.1105 19.1706 32.9157 19.2682C32.7209 19.3657 32.5262 19.5608 32.3314 19.6584C31.5523 20.0974 30.8219 20.5852 30.0429 20.9755C29.2151 21.3657 28.6795 21.2194 28.29 20.4389C28.0465 19.9999 27.9491 19.4633 27.8031 18.9267C27.7057 18.634 27.7057 18.3413 27.6083 18.0974C27.5109 17.8535 27.0727 17.7072 26.8779 17.9023C26.6831 18.0974 26.4884 18.3413 26.2936 18.5364C25.6119 19.1218 24.9789 19.756 24.2485 20.195C22.7391 21.1218 21.5705 20.7804 20.5967 19.3169C20.4019 19.0243 20.2558 18.7316 20.0124 18.4389C19.8663 18.2438 19.3307 18.3413 19.282 18.634C19.2333 18.8779 19.2333 19.1218 19.1846 19.3169C18.8437 21.4633 17.5778 22.6828 15.4353 22.9267C14.5102 23.0243 13.5363 23.1218 12.6112 23.1706C11.2965 23.2682 10.0792 23.6096 9.39753 24.8291C8.18023 24.7804 8.08285 23.8535 7.83939 23.0243C7.25508 22.9267 6.67078 23.3169 6.18386 22.8779C5.79433 22.5365 5.30741 22.2438 5.06395 21.8047C4.82049 21.3169 4.67442 20.6828 4.67442 20.0974C4.67442 19.4145 4.82049 18.6828 5.06395 18.0486C5.50218 16.8291 5.9404 16.4389 7.69331 15.6096C7.44985 15.073 7.20639 14.5364 6.91424 14.0486C6.62209 13.4633 6.67078 12.8779 6.96293 12.3413C7.30378 11.8047 7.69331 11.2682 8.13154 10.7804C8.86192 9.99986 9.73837 9.56084 10.8096 10.1462C10.9557 10.2438 11.1504 10.2925 11.2965 10.2438C11.4426 10.2438 11.686 10.1462 11.7347 10.0486C11.8321 9.95108 11.8321 9.6584 11.7347 9.56084C10.4687 8.09742 11.1504 6.82913 12.0756 5.56084C12.2217 5.36572 12.3677 5.1706 12.5625 5.02425C13.9746 3.60962 15.484 3.4145 17.1882 4.53645C17.5291 4.73157 17.8699 4.92669 18.2594 5.12182C18.3081 5.12182 18.3568 5.12182 18.5516 5.12182C18.6003 4.87791 18.649 4.58523 18.6977 4.34133C18.9411 2.97547 19.8663 2.19499 21.1323 1.80474C22.1061 1.51206 22.8852 1.95108 23.226 2.92669C23.3234 3.21938 23.3721 3.51206 23.4695 3.75596C23.5669 4.04864 24.0051 4.09742 24.1999 3.9023C24.2972 3.80474 24.3459 3.70718 24.3946 3.60962C25.2711 1.99986 26.8292 1.46328 28.4847 1.07303C29.5073 0.829132 30.4811 1.12181 31.3576 1.6584C32.4775 2.34133 32.9644 3.36572 32.8183 4.68279C32.7696 4.92669 32.6722 5.12182 32.6722 5.36572C32.6235 5.85352 33.0131 6.24377 33.4026 6.04864C33.9869 5.70718 34.5225 5.46328 35.2042 5.85352C35.8859 6.29255 36.3728 6.82913 36.4702 7.6584C36.2754 7.70718 36.3728 7.80474 36.4215 7.95108Z" fill="white"/>
<path fill-rule="evenodd" clip-rule="evenodd" d="M36.9571 28.3415C37.3467 28.2439 37.6388 28.0976 38.1257 28C38.2231 28.3902 38.3205 28.6341 38.3205 28.878C38.3205 31.7073 38.0283 34.5366 37.4927 37.3659C37.0545 39.6098 35.9833 41.6098 34.6686 43.4146C33.9869 44.3415 33.1105 45.0732 32.0879 45.561C30.7246 46.1951 29.3612 46.7317 27.9978 47.2683C26.3423 47.8537 24.6381 47.9024 22.9339 47.6098C20.9375 47.2683 18.9898 46.8293 17.1395 46C13.8772 44.5854 11.7347 42.2439 10.8583 38.7805C10.3714 36.8293 10.1279 34.8293 10.0792 32.6341C10.4201 32.7805 10.6635 32.8293 10.907 32.9756C11.7834 33.5122 12.806 33.6585 13.8285 33.6098C14.851 33.6098 15.8248 33.561 16.8474 33.4634C17.4317 33.4146 18.016 33.3171 18.6003 33.122C20.2558 32.4878 21.4731 31.5122 21.4731 29.5122C21.4731 29.3659 21.5705 29.2195 21.7653 28.7317C21.7653 29.6585 21.7653 30.1951 21.7653 30.7805C21.7653 32.0488 21.2296 32.878 20.061 33.4146C18.4542 34.1951 18.3568 34.6341 19.2333 36.1463C20.3532 38 21.7166 38.6829 23.6642 38.2927C23.9564 38.2439 24.2485 38.1463 24.2485 37.6585C23.8103 37.2683 23.226 37.2195 22.6904 37.1219C21.3757 36.9756 20.5966 36.1463 20.1097 34.9268C20.4506 34.7317 20.7427 34.5366 21.0349 34.3902C22.3009 33.8537 22.9339 32.8293 23.0312 31.4634C23.0799 30.7317 23.1286 30.0488 23.226 29.3171C23.2747 29.0244 23.3234 28.7317 23.3721 28.4878C24.8328 28.439 25.0276 28.5854 25.2711 29.7561C25.3685 30.2927 25.5145 30.7805 25.6119 31.3171C25.8554 32.5854 26.6831 33.2195 27.8517 33.561C28.3873 33.7073 28.8743 33.8049 29.4099 33.8049C31.2602 33.9024 33.0618 33.7073 34.8634 33.3171C36.1294 33.0244 36.811 32.1951 36.9571 30.9756C36.9571 30.1463 36.9084 29.2683 36.9571 28.3415ZM29.4099 39.3659C29.2151 39.3659 29.069 39.3171 28.9716 39.3659C28.6795 39.561 28.3873 39.7073 28.0952 39.9512C27.3161 40.5854 26.4397 41.0732 25.4658 41.4146C23.6642 42 21.96 41.8537 20.4506 40.7317C20.1097 40.4878 19.7689 40.2927 19.3794 40.0976C19.282 40.0488 19.0385 40.1951 18.9411 40.2927C18.8924 40.3415 18.8437 40.5366 18.8437 40.6341C18.8924 40.7805 18.9411 40.9756 19.0872 41.122C19.7202 41.9024 20.548 42.5366 21.5218 42.878C24.1512 43.7561 26.5371 43.0732 28.6308 41.4146C28.9716 41.122 29.2151 40.6829 29.4586 40.2927C29.556 39.9512 29.4586 39.6585 29.4099 39.3659Z" fill="white"/>
<path fill-rule="evenodd" clip-rule="evenodd" d="M30.8219 64.4391C30.9193 64.3903 31.0167 64.2927 31.1141 64.2927C34.5712 64.4391 38.077 64.6342 41.5342 64.8293C41.6315 64.8293 41.7289 64.9269 41.8263 64.9756C42.2158 66.7805 42.2645 68.5366 41.9724 70.2927C41.4368 70.6342 40.7551 70.6342 40.1221 70.6342C37.3467 70.6342 34.5712 70.6342 31.7958 70.5854C31.601 70.5854 31.4549 70.5854 31.2602 70.5366C30.8706 70.4878 30.5785 70.2439 30.5298 69.8537C30.4811 69.3171 30.4324 68.7805 30.4811 68.2439C30.5298 67.0732 30.5785 65.9025 30.6272 64.683C30.6759 64.6342 30.7246 64.5366 30.8219 64.4391Z" fill="white"/>
<path fill-rule="evenodd" clip-rule="evenodd" d="M30.7733 32.0487C28.29 32.0975 27.803 31.756 27.2674 29.756C27.0727 28.9755 26.9753 28.1463 26.9753 27.317C26.9266 25.8536 27.657 24.9755 29.1177 24.7804C30.5785 24.5853 32.0392 24.7804 33.5 25.1706C33.8408 25.2682 34.1817 25.6097 34.3764 25.9511C34.6199 26.3414 34.7173 26.8292 34.8147 27.2682C34.9121 27.9999 35.0094 28.7804 35.0581 29.5609C35.1555 30.7316 34.6199 31.4146 33.4513 31.7072C33.2078 31.756 32.9644 31.8048 32.7696 31.8048C31.9419 31.9511 31.1628 31.9999 30.7733 32.0487ZM31.2602 28.7316C31.0654 28.2438 30.968 27.7072 30.7246 27.2194C30.5298 26.8292 29.9455 26.7804 29.6533 27.1219C29.0203 27.8536 28.923 29.2682 29.5073 30.0975C29.7994 30.4877 30.4811 30.4877 30.7246 30.0975C30.968 29.6585 31.0654 29.2194 31.2602 28.7316Z" fill="white"/>
<path fill-rule="evenodd" clip-rule="evenodd" d="M18.8437 30.9268C16.7987 31.6097 14.7536 31.8048 12.7086 31.317C12.173 31.1707 11.7834 30.8292 11.6374 30.2926C11.2478 29.1707 11.0531 28 11.3452 26.8292C11.5887 25.9024 12.1243 25.317 13.1468 25.0731C14.8023 24.6829 16.4092 24.5365 18.016 25.1707C18.8437 25.5122 19.2333 26 19.2333 26.878C19.2333 28.1951 19.2333 29.4634 18.8437 30.9268ZM14.4128 28.7804C14.4615 29.1219 14.5589 29.5122 14.6562 29.9024C14.8023 30.2439 15.0458 30.439 15.4353 30.439C15.8249 30.439 16.117 30.2439 16.2631 29.9024C16.6039 29.2683 16.6039 28.5853 16.4092 27.8536C16.2631 27.3658 16.0196 27.1219 15.5814 27.1219C15.0945 27.0731 14.6562 27.3658 14.5102 27.8536C14.4615 28.1463 14.4615 28.439 14.4128 28.7804Z" fill="white"/>
<path fill-rule="evenodd" clip-rule="evenodd" d="M29.3612 56.9266C28.29 56.2437 26.3423 54.1949 25.4658 52.8291C27.8517 51.7559 30.2863 50.6827 32.7209 49.5608C33.5 49.8535 34.133 50.3901 34.8634 50.9754C33.2565 53.3169 31.1628 55.0242 29.3612 56.9266Z" fill="white"/>
<path fill-rule="evenodd" clip-rule="evenodd" d="M21.5218 26.5854C21.4731 26.0976 21.4244 25.7561 21.4244 25.4147C21.3757 24.3903 20.9375 23.7561 19.9637 23.4635C19.5254 23.3171 19.0872 23.122 18.5516 22.8781C19.0385 22.1952 19.428 21.561 19.8176 21.0244C20.3045 20.8781 20.548 21.2196 20.8401 21.3659C22.0087 22 23.226 22 24.3946 21.3659C25.125 20.9757 25.758 20.5366 26.5371 20.0488C26.8292 20.4879 27.0727 20.9269 27.3161 21.2683C28.0952 22.2927 29.069 22.5854 30.2863 22.0488C30.8706 21.8049 31.4062 21.4635 32.0879 21.0732C32.2827 21.561 32.4288 21.9513 32.5748 22.4391C31.7471 22.7318 30.968 22.6342 30.2376 22.5854C29.1664 22.5366 28.1439 22.7318 27.17 23.2196C26.0014 23.8049 25.125 24.5854 24.9302 26C24.9302 26.1952 24.8328 26.3415 24.7842 26.4879C24.7842 26.5366 24.6868 26.5854 24.5894 26.683C24.2972 26.6342 23.9564 26.5854 23.5182 26.4879C23.4695 26.1464 23.4208 25.8049 23.3234 25.5122C23.2747 25.2196 23.0799 24.9269 22.7391 25.0244C22.5443 25.0732 22.3982 25.3171 22.3009 25.5122C22.2035 25.7561 22.2522 26.0976 22.1061 26.3415C22.1061 26.4879 21.8139 26.4879 21.5218 26.5854Z" fill="white"/>
<path fill-rule="evenodd" clip-rule="evenodd" d="M17.2369 49.5609C17.4804 48.878 17.6264 48.4389 17.7725 47.9999C17.9673 47.9999 18.1621 47.9024 18.3081 47.9511C19.8663 48.4389 21.5218 48.7804 23.1286 49.0243C25.2224 49.317 27.2187 49.0243 29.2151 48.2926C29.7507 48.0975 30.335 47.9023 30.968 47.6584C31.2115 47.9511 31.5036 48.2438 31.7471 48.4877C31.6497 48.6828 31.6497 48.8292 31.601 48.8292C29.4099 49.8048 27.3161 51.0731 24.9789 51.8048C24.1025 52.0975 23.2747 52.0975 22.3983 51.8048C20.6453 51.2194 19.0385 50.3902 17.2369 49.5609Z" fill="white"/>
<path fill-rule="evenodd" clip-rule="evenodd" d="M22.3983 52.9755C22.3496 53.1218 22.3496 53.2194 22.3009 53.317C21.327 54.5853 20.3532 55.8048 19.3307 57.1218C18.5516 56.7316 18.2594 55.9999 17.8212 55.4145C17.383 54.7804 16.8961 54.1462 16.5065 53.5121C16.117 52.8779 15.7275 52.195 15.3379 51.4145C15.7762 51.0243 16.117 50.6828 16.5065 50.3901C18.5029 51.2682 20.4506 52.0975 22.3983 52.9755Z" fill="white"/>
<path fill-rule="evenodd" clip-rule="evenodd" d="M30.7246 62.8779C30.5785 62.2925 30.5785 61.7071 31.0167 61.1706C31.3089 61.1218 31.6497 61.073 31.9905 61.073C35.1068 61.2193 38.2231 61.3657 41.3394 61.512C41.7776 62.0974 41.875 62.6828 41.8263 63.3169C39.976 63.7559 32.7696 63.4632 30.7246 62.8779Z" fill="white"/>
<path fill-rule="evenodd" clip-rule="evenodd" d="M41.1933 28.2927C40.6577 28.439 40.2195 28.5366 39.7326 28.6829C39.4891 27.9512 39.7326 27.4146 40.0734 26.9268C40.2682 26.6829 40.6577 26.5366 40.9499 26.439C41.2907 26.2927 41.6315 26.439 41.9237 26.6829C42.3619 27.1219 42.6054 27.6097 42.6541 28.2439C42.7028 30.6341 41.6315 32.439 39.8299 33.8049C39.343 33.6585 39.3917 33.3658 39.3917 33.0732C39.3917 32.6829 39.4891 32.2439 39.4404 31.8536C39.4404 31.1707 39.6352 30.5853 40.1708 30.0975C40.5116 29.7561 40.8038 29.4146 41.0959 29.0244C41.242 28.878 41.1446 28.6341 41.1933 28.2927Z" fill="white"/>
<path fill-rule="evenodd" clip-rule="evenodd" d="M7.64462 27.9511C7.59593 28.195 7.49854 28.3901 7.54724 28.5364C7.59593 28.7316 7.742 28.9755 7.88808 29.1218C9.15407 30.4877 8.9593 32.0974 8.76453 33.8047C8.52107 33.7072 8.32631 33.7072 8.22892 33.6096C7.1577 32.3901 6.52471 30.9267 6.28125 29.3169C6.23256 28.9267 6.23256 28.4877 6.23256 28.0974C6.18386 26.7803 7.59593 25.9511 8.66715 26.2925C8.76453 26.3413 8.86192 26.4389 9.00799 26.5852C8.9593 26.7803 8.9593 27.073 8.91061 27.3657C8.86192 27.6584 8.86192 27.9511 8.81323 28.2438C8.42369 28.1462 8.08285 28.0974 7.64462 27.9511Z" fill="white"/>
<path fill-rule="evenodd" clip-rule="evenodd" d="M23.4695 64.5852C22.7878 64.5364 22.3009 64.0974 22.3009 63.512C22.3009 62.8291 22.7878 62.3413 23.3721 62.3413C24.1512 62.3413 24.8328 62.9755 24.7355 63.6096C24.6381 64.195 24.1025 64.634 23.4695 64.5852Z" fill="white"/>
<path fill-rule="evenodd" clip-rule="evenodd" d="M23.8103 59.1219C23.226 59.0731 22.7391 58.5365 22.7878 57.9511C22.7878 57.317 23.4695 56.7804 24.1025 56.878C24.6868 56.9755 25.125 57.5121 25.0276 58.1463C24.8815 58.7316 24.3459 59.1707 23.8103 59.1219Z" fill="white"/>
<path fill-rule="evenodd" clip-rule="evenodd" d="M39.1969 35.5121C38.4666 40.2926 36.7137 44.439 32.2827 47.1219C32.5262 47.4633 32.7209 47.756 32.9157 47.9999C34.3278 49.5121 36.1294 50.3902 38.077 50.9755C39.0022 51.2682 39.8786 51.4633 40.8038 51.756C43.5792 52.5365 45.6243 54.1951 47.0363 56.6829C48.7892 59.6585 49.7631 62.8292 50.0552 66.2438C50.1526 67.2682 50.2013 68.2438 50.2013 69.2682C50.2013 69.6585 50.2013 70.0975 50.1039 70.4877C49.9578 71.317 49.6657 71.5609 48.7892 71.6097C48.2049 71.6585 47.6206 71.6097 47.0363 71.6097C35.5451 71.6585 24.1025 71.7073 12.6112 71.756C9.49491 71.756 6.32994 71.9024 3.21366 71.9999C2.67805 71.9999 2.14244 72.0487 1.60683 72.0487C0.292147 71.9999 -0.0973874 71.6585 -0.0486955 70.3414C0.09738 66.2926 0.779066 62.3414 2.58066 58.6341C3.74927 56.1951 5.50218 54.2926 7.93677 53.1707C9.39752 52.4877 10.907 51.9512 12.319 51.317C13.2442 50.9268 14.1693 50.4877 14.9971 49.9512C16.0196 49.317 16.2631 48.878 16.7987 47.5609C14.5102 46.439 12.4164 45.0243 11.0044 42.7804C9.64098 40.5853 9.25145 38.1463 8.9593 35.6097C7.54723 35.2194 6.76816 34.1463 6.13517 32.9268C5.3561 31.4146 4.82049 29.9024 4.96657 28.1463C5.06395 27.0731 5.45348 26.1951 6.42732 25.6585C6.62209 25.5609 6.81686 25.4146 7.06032 25.2194C6.91424 24.878 6.76816 24.5365 6.62209 24.1951C6.42732 24.1463 6.23255 24.0487 5.98909 23.9999C4.1388 23.4146 3.16497 22.0975 3.26235 20.1463C3.31104 18.4877 3.84665 17.0243 5.06395 15.8536C5.25872 15.6585 5.50218 15.4634 5.69694 15.2682C5.25872 13.9512 5.16133 12.6829 5.9404 11.4634C6.81686 10.1463 7.79069 9.02433 9.44622 8.68286C9.49491 8.68286 9.5436 8.63408 9.64098 8.63408C9.68968 8.48774 9.78706 8.3414 9.78706 8.14628C9.83575 6.48774 10.7122 5.21945 11.8321 4.14628C13.2442 2.82921 14.8023 2.53652 16.5552 3.31701C16.8474 3.41457 17.0908 3.56091 17.4317 3.75603C17.6751 3.36579 17.9186 2.97555 18.2108 2.5853C18.7951 1.80482 19.5254 1.21945 20.4506 0.975547C21.9113 0.536523 23.0799 0.731645 23.9077 1.95116C24.3946 1.65847 24.7842 1.41457 25.1737 1.17067C26.391 0.487742 27.6083 0.0487178 29.0203 -6.26687e-05C31.1628 -0.0976236 33.5487 1.46335 33.8408 3.60969C33.8408 3.75603 33.9382 3.95116 33.9869 4.04872C34.7173 4.43896 35.4964 4.68286 36.032 5.12189C36.5676 5.60969 36.9571 6.3414 37.4927 7.12189C37.7849 7.17067 38.3205 7.17067 38.8561 7.26823C41.1446 7.65847 42.6054 9.56091 42.2158 11.7073C42.1185 12.3902 41.7289 13.0243 41.4368 13.8536C41.5341 13.9999 41.6802 14.2438 41.875 14.439C43.4331 16.0487 43.9201 17.8536 42.8488 19.9999C43.141 20.2926 43.3844 20.5853 43.6766 20.878C45.2347 22.3902 45.3321 24.6829 43.8227 26.0975C43.6766 26.1951 43.5792 26.3414 43.3844 26.5853C43.9687 28.3414 43.8714 30.1463 42.9949 31.8536C42.2158 33.5121 41.0959 34.878 39.1969 35.5121ZM36.4215 7.95116C36.3728 7.80481 36.2754 7.70725 36.2754 7.60969C36.2267 6.73164 35.7398 6.24384 35.0094 5.80482C34.3278 5.36579 33.7921 5.65847 33.2078 5.99994C32.8183 6.24384 32.3801 5.80482 32.4775 5.31701C32.5262 5.07311 32.6235 4.87799 32.6235 4.63408C32.7696 3.31701 32.2827 2.3414 31.1628 1.60969C30.2863 1.02433 29.3125 0.780425 28.29 1.02433C26.6831 1.41457 25.0763 1.95116 24.1999 3.56091C24.1512 3.65847 24.0538 3.75603 24.0051 3.8536C23.8103 4.0975 23.3721 3.99994 23.2747 3.70725C23.1773 3.41457 23.1286 3.12189 23.0312 2.87799C22.6904 1.90238 21.96 1.46335 20.9375 1.75603C19.6715 2.14628 18.7464 2.87799 18.5029 4.29262C18.4542 4.5853 18.4055 4.82921 18.3568 5.07311C18.2108 5.07311 18.1134 5.12189 18.0647 5.07311C17.7238 4.87799 17.3343 4.68286 16.9935 4.48774C15.2892 3.41457 13.7798 3.56091 12.3677 4.97555C12.2217 5.12189 12.0269 5.31701 11.8808 5.51213C11.0044 6.78043 10.3227 8.04872 11.54 9.51213C11.6374 9.60969 11.5887 9.90238 11.54 9.99994C11.4426 10.0975 11.2478 10.1951 11.1017 10.1951C10.9557 10.1951 10.7609 10.1463 10.6148 10.0975C9.5436 9.51213 8.66715 9.95116 7.93677 10.7316C7.49854 11.2194 7.10901 11.756 6.76816 12.2926C6.42732 12.8292 6.42732 13.4146 6.71947 13.9999C6.96293 14.5365 7.20639 15.0731 7.49854 15.5609C5.79433 16.439 5.30741 16.7804 4.86918 17.9999C4.62572 18.6341 4.47965 19.3658 4.47965 20.0487C4.47965 20.6341 4.62572 21.2682 4.86918 21.756C5.11264 22.1951 5.59956 22.4877 5.98909 22.8292C6.47601 23.2682 7.10901 22.878 7.64462 22.9755C7.88808 23.8048 7.98546 24.7316 9.20276 24.7804C9.88444 23.6097 11.1017 23.2194 12.4164 23.1219C13.3416 23.0243 14.3154 22.9755 15.2405 22.878C17.3343 22.6341 18.649 21.3658 18.9898 19.2682C19.0385 19.0243 19.0385 18.7804 19.0872 18.5853C19.1359 18.3414 19.6715 18.1951 19.8176 18.3902C20.0124 18.6829 20.2071 18.9755 20.4019 19.2682C21.3757 20.7316 22.5443 21.0243 24.0538 20.1463C24.7842 19.7073 25.4658 19.0731 26.0988 18.4877C26.3423 18.2926 26.4884 18.0487 26.6831 17.8536C26.8779 17.6585 27.3648 17.756 27.4135 18.0487C27.5109 18.3414 27.5109 18.6341 27.6083 18.878C27.7544 19.3658 27.8517 19.9024 28.0952 20.3902C28.5334 21.2194 29.069 21.3658 29.8481 20.9268C30.6272 20.5365 31.4062 20.0487 32.1366 19.6097C32.3314 19.5121 32.5262 19.317 32.7209 19.2194C32.9157 19.1219 33.2078 19.0731 33.3539 19.1707C33.5 19.2682 33.5974 19.5609 33.5974 19.756C33.5974 19.9999 33.4513 20.1951 33.4026 20.439C33.3052 20.9755 33.4026 21.5121 33.6948 21.9512C34.0843 22.5365 34.4738 22.7316 35.2042 22.4877C35.4477 22.3902 35.6911 22.2926 36.0807 22.1463C36.1294 22.7316 36.178 23.2194 36.2267 23.6585C36.3241 24.5365 36.7623 25.2194 37.3953 25.756C37.7849 26.0975 38.2718 26.2438 38.71 25.9999C39.7326 25.3658 40.8038 25.317 41.9724 25.4634C42.4106 25.5121 42.7514 25.317 43.0436 24.9755C43.7253 24.1951 43.774 23.2194 43.2384 22.3414C42.8001 21.6585 42.2158 21.2194 41.5342 20.8292C41.242 20.6829 41.0472 20.3902 40.7551 20.1463C40.9498 19.8536 41.0959 19.6585 41.242 19.5121C42.2645 18.3902 42.4106 17.4146 41.6315 16.1463C41.0959 15.2682 40.4629 14.4877 39.2943 14.3902C39.0996 14.3902 38.9048 14.0975 38.5639 13.8536C39.0509 13.5609 39.4404 13.3658 39.7326 13.1707C40.8038 12.439 41.1446 11.2682 40.7064 10.0487C40.3655 9.12189 39.6839 8.5853 38.8074 8.3414C38.1744 8.19506 37.3467 8.0975 36.4215 7.95116ZM36.9571 28.3414C36.9084 29.2682 36.9571 30.1463 36.811 31.0243C36.665 32.2438 36.032 33.0731 34.7173 33.3658C32.9157 33.756 31.1141 33.9512 29.2638 33.8536C28.7282 33.8048 28.1926 33.7073 27.7057 33.6097C26.5371 33.317 25.7093 32.6341 25.4658 31.3658C25.3685 30.8292 25.2224 30.3414 25.125 29.8048C24.8815 28.6341 24.6868 28.4877 23.226 28.5365C23.1773 28.7804 23.1286 29.0731 23.0799 29.3658C23.0312 30.0975 22.9339 30.7804 22.8852 31.5121C22.7878 32.878 22.1548 33.8536 20.8888 34.439C20.5967 34.5853 20.3045 34.7804 19.9637 34.9755C20.4993 36.2438 21.2296 37.0243 22.5443 37.1707C23.1286 37.2194 23.7129 37.317 24.1025 37.7073C24.1025 38.1951 23.8103 38.2926 23.5182 38.3414C21.5705 38.6829 20.2071 38.0487 19.0872 36.1951C18.2108 34.7316 18.3081 34.2438 19.915 33.4633C21.0836 32.9268 21.6192 32.0975 21.6192 30.8292C21.6192 30.2438 21.6192 29.6585 21.6192 28.7804C21.4244 29.2682 21.327 29.4146 21.327 29.5609C21.3757 31.5609 20.1584 32.5365 18.4542 33.1707C17.9186 33.3658 17.2856 33.4633 16.7013 33.5121C15.6788 33.6097 14.7049 33.6585 13.6824 33.6585C12.6599 33.6585 11.686 33.5609 10.7609 33.0243C10.5661 32.878 10.274 32.8292 9.93314 32.6829C9.98183 34.878 10.2253 36.878 10.7122 38.8292C11.5887 42.2926 13.7311 44.6341 16.9935 46.0487C18.8437 46.8292 20.7914 47.317 22.7878 47.6585C24.492 47.9512 26.1962 47.9024 27.8517 47.317C29.2151 46.8292 30.5785 46.2438 31.9419 45.6097C32.9644 45.1219 33.8408 44.3902 34.5225 43.4633C35.8859 41.6097 36.9571 39.6585 37.3466 37.4146C37.8823 34.6341 38.1744 31.8048 38.1744 28.9268C38.1744 28.6829 38.077 28.3902 37.9796 28.0487C37.6388 28.1463 37.3467 28.2438 36.9571 28.3414ZM30.8219 64.439C30.7732 64.5365 30.6759 64.6341 30.6759 64.7316C30.6272 65.9024 30.5785 67.0731 30.5298 68.2926C30.5298 68.8292 30.5298 69.3658 30.5785 69.9024C30.6272 70.2926 30.8706 70.5365 31.3089 70.5853C31.5036 70.6341 31.6497 70.6341 31.8445 70.6341C34.6199 70.6341 37.3953 70.6829 40.1708 70.6829C40.8038 70.6829 41.4855 70.6829 42.0211 70.3414C42.3132 68.6341 42.2645 66.878 41.875 65.0243C41.7776 64.9755 41.6802 64.878 41.5828 64.878C38.1257 64.6829 34.6199 64.5365 31.1628 64.3414C31.0167 64.2926 30.9193 64.3902 30.8219 64.439ZM30.7733 32.0487C31.1628 31.9999 31.9419 31.9512 32.6722 31.9024C32.9157 31.9024 33.1591 31.8536 33.3539 31.8048C34.5225 31.5121 35.0581 30.8292 34.9608 29.6585C34.9121 28.878 34.8634 28.1463 34.7173 27.3658C34.6686 26.9268 34.5225 26.439 34.2791 26.0487C34.0843 25.7073 33.7435 25.3658 33.4026 25.2682C31.9905 24.878 30.5298 24.6829 29.0203 24.878C27.6083 25.0731 26.8779 25.9024 26.8779 27.4146C26.8779 28.2438 26.9753 29.0731 27.1701 29.8536C27.803 31.756 28.3387 32.0975 30.7733 32.0487ZM18.8437 30.9268C19.2333 29.4634 19.2333 28.1951 19.2333 26.878C19.2333 25.9999 18.8437 25.4634 18.016 25.1707C16.4092 24.5365 14.8023 24.6829 13.1468 25.0731C12.173 25.317 11.6374 25.9024 11.3452 26.8292C11.0044 27.9999 11.2478 29.1707 11.6374 30.2926C11.8321 30.878 12.173 31.1707 12.7086 31.317C14.8023 31.8048 16.7987 31.6097 18.8437 30.9268ZM29.3612 56.9268C31.1628 54.9755 33.2565 53.2682 34.8147 50.9755C34.0843 50.439 33.4513 49.9024 32.6722 49.5609C30.2376 50.6341 27.8517 51.7073 25.4171 52.8292C26.391 54.2438 28.29 56.2926 29.3612 56.9268ZM21.5218 26.5853C21.8139 26.4877 22.1061 26.4877 22.2035 26.3414C22.3496 26.0975 22.3009 25.756 22.3983 25.5121C22.4469 25.317 22.6417 25.0731 22.8365 25.0243C23.1773 24.9268 23.3234 25.2194 23.4208 25.5121C23.5182 25.8536 23.5669 26.1951 23.6155 26.4877C24.0538 26.5853 24.3946 26.6341 24.6868 26.6829C24.7842 26.5853 24.8328 26.5365 24.8815 26.4877C24.9302 26.3414 24.9789 26.1463 25.0276 25.9999C25.2224 24.6341 26.0988 23.8048 27.2674 23.2194C28.2413 22.7316 29.2638 22.5365 30.335 22.5853C31.0654 22.6341 31.8445 22.7804 32.6722 22.439C32.5262 21.9999 32.3314 21.5609 32.1853 21.0731C31.5036 21.4146 30.968 21.756 30.3837 22.0487C29.2151 22.5853 28.1926 22.2926 27.4135 21.2682C27.1214 20.878 26.9266 20.4877 26.6344 20.0487C25.9041 20.4877 25.2224 20.9755 24.492 21.3658C23.3234 21.9999 22.1548 22.0487 20.9375 21.3658C20.6453 21.2194 20.4019 20.878 19.915 21.0243C19.5254 21.5609 19.1359 22.1951 18.649 22.878C19.1846 23.1219 19.6228 23.317 20.061 23.4634C21.0349 23.756 21.5218 24.439 21.5218 25.4146C21.4244 25.756 21.4731 26.0975 21.5218 26.5853ZM17.2369 49.5609C19.0385 50.3414 20.6453 51.1707 22.3983 51.756C23.2747 52.0487 24.1025 52.0487 24.9789 51.756C27.3161 51.0243 29.3612 49.756 31.601 48.7804C31.6497 48.7316 31.6984 48.5853 31.7471 48.439C31.5036 48.1951 31.2602 47.9024 30.968 47.6097C30.335 47.8536 29.7507 48.0487 29.2151 48.2438C27.2674 49.0243 25.2711 49.317 23.1286 48.9755C21.4731 48.7316 19.8663 48.3902 18.3081 47.9024C18.1621 47.8536 17.9673 47.9024 17.7725 47.9512C17.6264 48.439 17.4804 48.878 17.2369 49.5609ZM22.3983 52.9755C20.4506 52.1463 18.5029 51.317 16.4578 50.3902C16.117 50.6829 15.7275 51.0243 15.2892 51.4146C15.7275 52.1951 16.0683 52.8292 16.4578 53.5121C16.8474 54.1463 17.2856 54.7804 17.7725 55.4146C18.2108 55.9999 18.5516 56.7316 19.282 57.1219C20.3045 55.8048 21.2783 54.5853 22.2522 53.317C22.3496 53.2194 22.3496 53.0731 22.3983 52.9755ZM30.7246 62.878C32.7696 63.4633 39.976 63.756 41.8263 63.317C41.9237 62.6829 41.7776 62.0487 41.3394 61.5121C38.2231 61.3658 35.1068 61.2194 31.9905 61.0731C31.6497 61.0731 31.3089 61.1219 31.0167 61.1707C30.5785 61.756 30.5785 62.2926 30.7246 62.878ZM41.1933 28.2926C41.1933 28.6341 41.242 28.878 41.1446 29.0243C40.9012 29.4146 40.5603 29.756 40.2195 30.0975C39.6839 30.5853 39.4891 31.1219 39.4891 31.8536C39.4891 32.2438 39.4404 32.6829 39.4404 33.0731C39.4404 33.3658 39.343 33.6585 39.8786 33.8048C41.6802 32.439 42.7514 30.6341 42.7028 28.2438C42.7028 27.6097 42.4106 27.1219 41.9724 26.6829C41.6802 26.3902 41.3881 26.2926 40.9985 26.439C40.6577 26.5853 40.3169 26.6829 40.1221 26.9268C39.7812 27.4146 39.5378 27.9512 39.7812 28.6829C40.2195 28.5853 40.609 28.439 41.1933 28.2926ZM7.64462 27.9512C8.03415 28.0487 8.42369 28.1463 8.86191 28.2926C8.91061 27.9512 8.91061 27.7073 8.9593 27.4146C9.00799 27.1219 9.00799 26.878 9.05668 26.6341C8.86191 26.4877 8.81322 26.3902 8.71584 26.3414C7.64462 25.9999 6.23255 26.8292 6.28125 28.1463C6.28125 28.5365 6.28125 28.9755 6.32994 29.3658C6.5734 30.9755 7.25508 32.3902 8.27761 33.6585C8.375 33.756 8.56976 33.756 8.81322 33.8536C9.00799 32.1463 9.20276 30.5365 7.93677 29.1707C7.79069 29.0243 7.64462 28.7804 7.59593 28.5853C7.54723 28.3902 7.64462 28.2438 7.64462 27.9512ZM23.4695 64.5853C24.1512 64.6341 24.6868 64.1951 24.7355 63.6097C24.7842 62.9268 24.1512 62.3414 23.3721 62.3414C22.7878 62.3414 22.3496 62.878 22.3009 63.5121C22.3009 64.0975 22.7878 64.5853 23.4695 64.5853ZM23.8103 59.1219C24.3946 59.1707 24.9302 58.7316 24.9789 58.0975C25.0763 57.5121 24.6381 56.9268 24.0538 56.8292C23.4208 56.7316 22.7878 57.2682 22.7391 57.9024C22.7391 58.5365 23.1773 59.0731 23.8103 59.1219Z" fill="#484A4C"/>
<path fill-rule="evenodd" clip-rule="evenodd" d="M29.4099 39.3659C29.4099 39.6586 29.5073 39.9512 29.4099 40.1951C29.2151 40.6342 28.9717 41.0732 28.5821 41.3171C26.4397 42.9756 24.1025 43.7073 21.4731 42.7805C20.4993 42.439 19.7202 41.8537 19.0385 41.0244C18.9411 40.8781 18.8437 40.7317 18.7951 40.5366C18.7464 40.439 18.7951 40.2927 18.8924 40.1951C19.0385 40.0976 19.2333 39.9512 19.3307 40C19.7202 40.1464 20.061 40.3903 20.4019 40.6342C21.96 41.8049 23.6156 41.9512 25.4172 41.3171C26.391 40.9756 27.2674 40.5366 28.0465 39.8537C28.29 39.6098 28.6308 39.4634 28.923 39.2683C29.069 39.3171 29.2151 39.3659 29.4099 39.3659Z" fill="#484A4C"/>
<path fill-rule="evenodd" clip-rule="evenodd" d="M31.2602 28.7317C31.0654 29.2195 30.968 29.6585 30.7246 30.0487C30.4811 30.4878 29.7994 30.439 29.5073 30.0487C28.923 29.2683 28.9717 27.8048 29.6533 27.0731C29.9455 26.7804 30.5298 26.7804 30.7246 27.1707C30.968 27.7073 31.0654 28.1951 31.2602 28.7317Z" fill="#484A4C"/>
<path fill-rule="evenodd" clip-rule="evenodd" d="M14.4128 28.7804C14.4615 28.4389 14.4615 28.1462 14.5589 27.8535C14.7049 27.3657 15.1432 27.1218 15.6301 27.1218C16.0683 27.1706 16.3118 27.4145 16.4578 27.8535C16.6526 28.5365 16.6526 29.2194 16.3118 29.9023C16.1657 30.2438 15.8735 30.4389 15.484 30.4389C15.0945 30.4389 14.8023 30.2438 14.7049 29.9023C14.5102 29.5121 14.4615 29.1218 14.4128 28.7804Z" fill="#484A4C"/>
</g>
<defs>
<clipPath id="clip0_167_207">
<rect width="50.25" height="72" fill="white"/>
</clipPath>
</defs>
</svg>
