<svg width="180" height="180" viewBox="0 0 180 180" fill="none" xmlns="http://www.w3.org/2000/svg">
<g filter="url(#filter0_d_340_798)">
<g clip-path="url(#clip0_340_798)">
<path d="M45.3345 123.485C45.5047 87.779 45.1644 52.0729 44.3136 16.3667C77.834 16.025 111.865 15.8542 145.896 16.025C145.555 40.9681 145.555 65.9111 146.066 90.8542C146.236 105.718 146.236 121.606 137.558 133.565C136.367 135.102 135.176 136.64 133.645 137.665C129.05 141.082 122.755 141.424 116.629 140.057C103.868 137.836 90.7657 139.032 78.0042 137.153C72.2189 136.298 66.4337 134.761 60.8186 133.223C55.0333 131.686 48.9078 129.806 45.3345 123.485Z" fill="white"/>
<path d="M122.925 141.765C120.883 141.765 118.671 141.594 116.289 141.082C109.653 139.886 102.677 139.715 96.0405 139.544C89.9149 139.374 83.7894 139.203 77.6638 138.348C71.7084 137.494 65.9232 135.957 60.4782 134.419C55.2035 132.882 48.5674 131.173 44.4837 124.169C44.4837 123.998 44.3136 123.827 44.3136 123.656C44.4837 88.1207 44.1434 52.0729 43.2927 16.5376C43.2927 16.3667 43.2927 16.025 43.4628 15.8542C43.633 15.6834 43.8031 15.5125 44.1434 15.5125C76.3026 15 109.483 14.8291 145.896 15C146.066 15 146.406 15.1708 146.576 15.1708C146.746 15.3417 146.746 15.5125 146.746 15.8542C146.576 40.7972 146.576 65.9111 146.917 90.6833C147.087 104.351 147.427 121.435 138.239 133.907C136.878 135.786 135.516 137.153 134.155 138.348C131.092 140.569 127.349 141.765 122.925 141.765ZM46.1853 123.143C49.7585 129.294 56.0542 131.002 60.9887 132.369C66.4337 133.907 72.2189 135.444 78.0041 136.298C83.9595 137.153 90.2553 137.323 96.2107 137.494C103.017 137.665 109.993 137.836 116.799 139.203C121.564 140.228 128.2 140.569 133.134 136.982C134.495 135.957 135.686 134.761 136.878 133.052C145.726 120.923 145.385 104.18 145.215 90.8542C144.875 66.2528 144.705 41.3098 145.045 16.7084C109.313 16.7084 76.6429 16.7084 45.1644 17.0501C46.0151 52.2437 46.3554 87.9499 46.1853 123.143Z" fill="black"/>
<path d="M132.794 138.178C130.922 139.203 128.37 138.861 126.498 137.665C124.626 136.469 123.435 134.419 122.414 132.369C120.373 128.269 119.522 123.485 119.352 118.702C89.4044 117.677 58.4364 117.335 28.6594 117.335C28.6594 136.64 38.6985 140.399 41.7612 140.399C57.0751 140.399 90.4254 140.911 114.587 141.082C120.713 141.253 127.179 141.253 132.794 138.178Z" fill="white"/>
<path d="M116.969 142.107C116.119 142.107 115.438 142.107 114.587 142.107C106.42 142.107 97.0614 141.936 87.8731 141.765C70.177 141.595 51.8004 141.424 41.7612 141.424C37.8477 141.424 27.8086 137.153 27.8086 117.506C27.8086 116.993 28.1489 116.651 28.6594 116.651C63.541 116.651 93.1479 117.164 119.352 118.018C119.862 118.018 120.202 118.36 120.202 118.872C120.373 123.998 121.393 128.44 123.265 132.198C124.286 134.59 125.647 136.128 127.009 137.153C128.71 138.349 130.752 138.519 132.283 137.836C132.453 137.836 132.453 137.665 132.624 137.665C132.964 137.494 133.474 137.665 133.815 138.007C133.985 138.349 133.815 138.861 133.474 139.203C133.304 139.203 133.304 139.374 133.134 139.374C127.859 141.765 122.244 142.107 116.969 142.107ZM29.5101 118.189C29.8504 135.615 38.6985 139.715 41.7612 139.715C51.8004 139.715 70.177 139.886 87.8731 140.057C97.0614 140.228 106.42 140.228 114.587 140.399C118.841 140.399 123.265 140.399 127.689 139.374C127.009 139.203 126.498 138.861 125.988 138.519C124.286 137.323 122.755 135.444 121.564 132.882C119.862 129.123 118.841 124.681 118.501 119.727C92.6374 118.702 63.541 118.36 29.5101 118.189Z" fill="black"/>
<path d="M32.9132 126.219H32.7431C32.5729 126.048 32.5729 125.877 32.7431 125.877L37.8477 120.752C38.0179 120.581 38.188 120.581 38.188 120.752C38.3582 120.923 38.3582 121.093 38.188 121.093L33.0834 126.219C33.0834 126.048 32.9132 126.219 32.9132 126.219Z" fill="black"/>
<path d="M34.9551 132.198H34.7849C34.6147 132.027 34.6147 131.856 34.7849 131.856L45.6748 120.752C45.8449 120.581 46.0151 120.581 46.0151 120.752C46.1852 120.923 46.1852 121.093 46.0151 121.093L35.1252 132.198C34.9551 132.198 34.9551 132.198 34.9551 132.198Z" fill="black"/>
<path d="M38.8686 135.786H38.6985C38.5283 135.615 38.5283 135.444 38.6985 135.444L53.6721 120.41C53.8422 120.239 54.0124 120.239 54.0124 120.41C54.1825 120.581 54.1825 120.752 54.0124 120.752L39.0388 135.786C39.0388 135.786 39.0388 135.786 38.8686 135.786Z" fill="black"/>
<path d="M47.8868 137.153H47.7167C47.5465 136.982 47.5465 136.811 47.7167 136.811C52.481 131.173 57.5856 125.535 62.8604 120.239C63.0306 120.068 63.2007 120.068 63.2007 120.239C63.3709 120.41 63.3709 120.581 63.2007 120.581C57.9259 125.877 52.8213 131.344 48.057 137.153H47.8868Z" fill="black"/>
<path d="M56.0542 137.323H55.884C55.7139 137.153 55.7139 136.982 55.884 136.982L70.177 120.41C70.3471 120.239 70.5173 120.239 70.5173 120.41C70.6874 120.581 70.6874 120.752 70.5173 120.752L56.2243 137.323C56.2243 137.153 56.0542 137.323 56.0542 137.323Z" fill="black"/>
<path d="M64.0514 137.323H63.8813C63.7111 137.153 63.7111 136.982 63.8813 136.982C68.3053 131.515 73.0696 126.048 77.6638 120.752C77.8339 120.581 78.0041 120.581 78.0041 120.752C78.1742 120.923 78.1742 121.093 78.0041 121.093C73.2398 126.389 68.6456 131.856 64.2216 137.323C64.2216 137.323 64.2216 137.323 64.0514 137.323Z" fill="black"/>
<path d="M71.1979 137.494H71.0278C70.8576 137.323 70.8576 137.153 71.0278 137.153C75.6219 131.686 80.2161 126.048 84.8103 120.752C84.9804 120.581 85.1506 120.581 85.1506 120.752C85.3207 120.923 85.3207 121.093 85.1506 121.093C80.5564 126.56 75.7921 132.027 71.3681 137.494C71.3681 137.323 71.1979 137.494 71.1979 137.494Z" fill="black"/>
<path d="M78.5146 137.665H78.3444C78.1743 137.494 78.1743 137.323 78.3444 137.323L91.4463 120.923C91.6164 120.752 91.7866 120.752 91.7866 120.923C91.9568 121.093 91.9568 121.264 91.7866 121.264L78.6847 137.665C78.6847 137.665 78.6847 137.665 78.5146 137.665Z" fill="black"/>
<path d="M85.8312 137.836H85.6611C85.4909 137.665 85.4909 137.494 85.6611 137.494L99.6137 121.264C99.7839 121.093 99.954 121.093 99.954 121.264C100.124 121.435 100.124 121.606 99.954 121.606L86.0014 137.836H85.8312Z" fill="black"/>
<path d="M93.4881 137.836H93.318C93.1478 137.665 93.1478 137.494 93.318 137.494C97.9122 131.856 102.676 126.39 107.781 121.264C107.951 121.093 108.121 121.093 108.121 121.264C108.292 121.435 108.292 121.606 108.121 121.606C103.187 126.731 98.2525 132.198 93.8284 137.836C93.6583 137.836 93.6583 137.836 93.4881 137.836Z" fill="black"/>
<path d="M101.315 137.665H101.145C100.975 137.494 100.975 137.323 101.145 137.323C105.569 131.686 110.163 126.219 114.928 120.923C115.098 120.752 115.268 120.752 115.268 120.923C115.438 121.093 115.438 121.264 115.268 121.264C110.504 126.56 105.739 132.027 101.485 137.665H101.315Z" fill="black"/>
<path d="M107.781 137.836H107.611C107.441 137.665 107.441 137.494 107.611 137.494L116.119 128.098C116.289 127.927 116.459 127.927 116.459 128.098C116.629 128.269 116.629 128.44 116.459 128.44L107.951 137.836H107.781Z" fill="black"/>
<path d="M114.928 138.519H114.757C114.587 138.348 114.587 138.178 114.757 138.178C115.778 136.811 116.969 135.444 118.161 134.077C118.331 133.907 118.501 133.907 118.501 134.077C118.671 134.248 118.671 134.419 118.501 134.419C117.31 135.615 116.289 136.982 115.268 138.348C115.098 138.348 115.098 138.519 114.928 138.519Z" fill="black"/>
<g opacity="0.1294">
<path d="M127.519 137.836C127.009 137.323 126.328 137.323 125.817 137.153C123.946 136.469 122.074 135.957 120.202 136.128C115.438 136.128 110.504 136.298 105.739 136.128C100.294 135.957 94.8494 135.786 89.2343 135.615C84.8103 135.615 80.2161 135.615 75.7921 135.615C70.6875 135.786 65.5828 135.786 60.4782 135.615C52.8213 135.786 45.1643 135.615 37.5074 135.786C34.7849 135.786 34.6148 140.057 37.5074 140.057C46.8659 140.057 56.3945 140.399 65.753 140.569C72.389 140.569 78.8549 140.399 85.4909 140.228C92.2971 140.057 99.1032 140.399 105.909 140.399C107.271 140.399 108.802 140.399 110.163 140.399C110.163 140.74 110.333 141.253 110.674 141.594C111.354 142.278 112.205 142.107 112.886 142.107C115.949 142.278 119.181 141.936 122.244 141.594C123.095 141.424 124.286 141.765 124.967 140.911C125.137 140.74 125.137 140.74 125.307 140.569H125.477H125.307C126.158 140.74 126.158 140.74 126.668 140.74C127.179 140.74 127.519 140.399 127.859 140.057C128.2 139.374 128.029 138.348 127.519 137.836Z" fill="black"/>
</g>
<path d="M64.7321 106.23C64.2216 106.23 63.8813 105.888 63.8813 105.376V67.9613C63.8813 67.4487 64.2216 67.1071 64.7321 67.1071C65.2425 67.1071 65.5828 67.4487 65.5828 67.9613V105.376C65.5828 105.718 65.2425 106.23 64.7321 106.23Z" fill="black"/>
<path d="M82.258 106.23C81.7475 106.23 81.4072 105.888 81.4072 105.376V51.0478C81.4072 50.5353 81.7475 50.1936 82.258 50.1936C82.7685 50.1936 83.1088 50.5353 83.1088 51.0478V105.376C83.1088 105.718 82.7685 106.23 82.258 106.23Z" fill="black"/>
<path d="M99.6137 106.23C99.1032 106.23 98.7629 105.888 98.7629 105.376V64.7152C98.7629 64.2027 99.1032 63.861 99.6137 63.861C100.124 63.861 100.464 64.2027 100.464 64.7152V105.376C100.464 105.718 100.124 106.23 99.6137 106.23Z" fill="black"/>
<path d="M117.14 106.23C116.629 106.23 116.289 105.888 116.289 105.376V42.3348C116.289 41.8223 116.629 41.4806 117.14 41.4806C117.65 41.4806 117.99 41.8223 117.99 42.3348V105.376C117.99 105.717 117.65 106.23 117.14 106.23Z" fill="black"/>
<g opacity="0.1294">
<path d="M140.621 73.0865C140.451 72.2323 139.6 71.549 138.749 71.549C138.409 71.549 138.069 71.549 137.898 71.549C135.176 71.549 132.283 71.549 129.561 71.3781C128.71 71.3781 127.689 71.0364 126.838 71.3781C124.967 72.0615 125.647 74.9658 127.519 74.9658C130.582 75.3075 137.048 75.4783 138.239 75.3075C139.77 75.82 141.131 74.4533 140.621 73.0865Z" fill="black"/>
</g>
<g opacity="0.1294">
<path d="M143.684 114.089C143.173 113.576 142.493 113.576 141.812 113.576C140.961 113.576 140.11 113.405 139.43 114.089C138.409 115.114 139.26 116.822 140.621 116.822C141.472 116.651 142.322 116.822 143.173 116.651C144.194 116.31 144.364 114.943 143.684 114.089Z" fill="black"/>
</g>
<path d="M34.7849 135.273C34.9551 99.5672 34.6147 63.8611 33.764 28.1549C67.2844 27.8132 101.315 27.6424 135.346 27.8132C135.006 52.7563 135.006 77.6993 135.516 102.642C135.686 117.506 135.686 133.394 127.009 145.353C125.817 146.891 124.626 148.428 123.095 149.453C118.501 152.87 112.205 153.212 106.08 151.845C93.318 149.624 80.2161 150.82 67.4545 148.941C61.6693 148.087 55.884 146.549 50.2689 145.011C44.4837 143.645 38.3581 141.765 34.7849 135.273Z" fill="white"/>
<path d="M112.375 153.554C110.333 153.554 108.121 153.383 105.739 152.87C99.1032 151.674 92.1269 151.503 85.4909 151.333C79.3653 151.162 73.2398 150.991 67.1142 150.137C61.1588 149.282 55.3736 147.745 49.9286 146.207C44.6539 144.67 38.0178 142.961 33.9341 135.957C33.9341 135.786 33.764 135.615 33.764 135.444C34.1043 99.7381 33.764 63.6902 32.9132 28.1549C32.9132 27.9841 32.9132 27.6424 33.0834 27.4715C33.2535 27.3007 33.4237 27.1299 33.764 27.1299C65.753 26.959 98.9331 26.7882 135.346 26.959C135.516 26.959 135.857 27.1299 136.027 27.1299C136.197 27.3007 136.197 27.4715 136.197 27.8132C136.027 52.5854 136.027 77.8702 136.367 102.642C136.537 116.31 136.877 133.394 127.689 145.866C126.328 147.745 124.967 149.112 123.605 150.308C120.543 152.528 116.799 153.554 112.375 153.554ZM35.6357 135.103C39.2089 141.253 45.5046 142.961 50.4391 144.328C55.884 145.866 61.6693 147.403 67.4545 148.257C73.4099 149.112 79.7056 149.282 85.661 149.453C92.4672 149.624 99.4435 149.795 106.25 151.162C111.014 152.187 117.65 152.528 122.585 148.941C123.946 147.916 125.137 146.72 126.328 145.011C135.176 132.882 134.836 116.139 134.665 102.813C134.325 78.041 134.325 53.2688 134.495 28.6674C98.7629 28.4966 66.0933 28.6674 34.6148 29.0091C35.4655 64.2027 35.8058 99.9089 35.6357 135.103Z" fill="black"/>
<path d="M122.244 150.137C120.373 151.162 117.82 150.82 115.949 149.624C114.077 148.428 112.886 146.378 111.865 144.328C109.823 140.228 108.972 135.444 108.802 130.661C78.6847 129.636 47.8868 129.294 18.1098 129.294C18.1098 148.599 28.1489 152.358 31.2117 152.358C46.5256 152.358 79.8758 152.87 104.038 153.041C110.163 153.041 116.629 153.212 122.244 150.137Z" fill="white"/>
<path d="M106.42 153.895C105.569 153.895 104.889 153.895 104.038 153.895C95.8703 153.895 86.5118 153.724 77.3235 153.554C59.6275 153.383 41.4209 153.212 31.2117 153.212C27.2981 153.212 17.259 148.941 17.259 129.294C17.259 128.781 17.5993 128.44 18.1098 128.44C52.9914 128.44 82.5983 128.952 108.802 129.806C109.313 129.806 109.653 130.148 109.653 130.661C109.823 135.786 110.844 140.228 112.716 143.986C113.737 146.378 115.098 147.916 116.459 148.941C118.161 150.137 120.202 150.308 121.734 149.624C121.904 149.624 121.904 149.453 122.074 149.453C122.414 149.282 122.925 149.453 123.265 149.795C123.435 150.137 123.265 150.649 122.925 150.991C122.755 150.991 122.755 151.162 122.585 151.162C117.31 153.554 111.695 153.895 106.42 153.895ZM18.9606 130.148C19.3009 147.574 28.1489 151.503 31.2117 151.503C41.2508 151.503 59.6275 151.674 77.3235 151.845C86.5118 152.016 95.8703 152.016 104.038 152.187C108.292 152.187 112.716 152.187 117.14 151.162C116.459 150.991 115.949 150.649 115.438 150.308C113.737 149.112 112.205 147.232 111.014 144.67C109.313 140.911 108.292 136.469 107.951 131.515C82.258 130.661 53.1616 130.148 18.9606 130.148Z" fill="black"/>
<path d="M22.3637 138.007H22.1935C22.0234 137.836 22.0234 137.665 22.1935 137.665L27.2982 132.54C27.4683 132.369 27.6385 132.369 27.6385 132.54C27.8086 132.711 27.8086 132.882 27.6385 132.882L22.5338 138.007H22.3637Z" fill="black"/>
<path d="M24.4055 143.986H24.2353C24.0652 143.815 24.0652 143.645 24.2353 143.645L35.1252 132.54C35.2954 132.369 35.4655 132.369 35.4655 132.54C35.6357 132.711 35.6357 132.882 35.4655 132.882L24.5757 143.986H24.4055Z" fill="black"/>
<path d="M28.4892 147.745H28.3191C28.1489 147.574 28.1489 147.403 28.3191 147.403L43.2927 132.369C43.4628 132.198 43.633 132.198 43.633 132.369C43.8031 132.54 43.8031 132.711 43.633 132.711L28.6594 147.745C28.4892 147.745 28.4892 147.745 28.4892 147.745Z" fill="black"/>
<path d="M37.3373 148.941H37.1671C36.997 148.77 36.997 148.599 37.1671 148.599C41.9314 142.961 47.0361 137.323 52.3108 132.027C52.481 131.857 52.6511 131.857 52.6511 132.027C52.8213 132.198 52.8213 132.369 52.6511 132.369C47.3764 137.665 42.2717 143.132 37.5074 148.941H37.3373Z" fill="black"/>
<path d="M45.5046 149.112H45.3345C45.1643 148.941 45.1643 148.77 45.3345 148.77L59.6274 132.198C59.7976 132.027 59.9677 132.027 59.9677 132.198C60.1379 132.369 60.1379 132.54 59.9677 132.54L45.6748 149.112C45.6748 149.112 45.6748 149.112 45.5046 149.112Z" fill="black"/>
<path d="M53.5019 149.282H53.3317C53.1616 149.112 53.1616 148.941 53.3317 148.941C57.7557 143.474 62.52 138.007 67.1142 132.711C67.2844 132.54 67.4545 132.54 67.4545 132.711C67.6247 132.882 67.6247 133.052 67.4545 133.052C62.6902 138.349 58.096 143.815 53.672 149.282C53.672 149.282 53.672 149.282 53.5019 149.282Z" fill="black"/>
<path d="M60.6484 149.282H60.4782C60.308 149.112 60.308 148.941 60.4782 148.941C65.0724 143.474 69.6665 137.836 74.2607 132.54C74.4309 132.369 74.601 132.369 74.601 132.54C74.7712 132.711 74.7712 132.882 74.601 132.882C70.0068 138.349 65.2425 143.815 60.8185 149.282H60.6484Z" fill="black"/>
<path d="M67.965 149.453H67.7949C67.6247 149.282 67.6247 149.112 67.7949 149.112L80.8967 132.711C81.0669 132.54 81.237 132.54 81.237 132.711C81.4072 132.882 81.4072 133.052 81.237 133.052L68.3053 149.453C68.1352 149.453 68.1352 149.453 67.965 149.453Z" fill="black"/>
<path d="M75.2817 149.795H75.1115C74.9413 149.624 74.9413 149.453 75.1115 149.453L89.0642 133.223C89.2343 133.052 89.4045 133.052 89.4045 133.223C89.5746 133.394 89.5746 133.565 89.4045 133.565L75.4518 149.795C75.4518 149.795 75.4518 149.795 75.2817 149.795Z" fill="black"/>
<path d="M83.1087 149.624H82.9386C82.7684 149.453 82.7684 149.282 82.9386 149.282C87.5328 143.645 92.2971 138.178 97.4017 133.052C97.5719 132.882 97.742 132.882 97.742 133.052C97.9122 133.223 97.9122 133.394 97.742 133.394C92.8075 138.519 87.8731 143.986 83.4491 149.624C83.2789 149.624 83.1087 149.624 83.1087 149.624Z" fill="black"/>
<path d="M90.7657 149.624H90.5955C90.4254 149.453 90.4254 149.282 90.5955 149.282C95.0195 143.645 99.6137 138.178 104.378 132.882C104.548 132.711 104.718 132.711 104.718 132.882C104.888 133.052 104.888 133.223 104.718 133.223C99.954 138.519 95.1897 143.986 90.9358 149.624H90.7657Z" fill="black"/>
<path d="M97.2315 149.795H97.0614C96.8912 149.624 96.8912 149.453 97.0614 149.453L105.569 140.057C105.739 139.886 105.909 139.886 105.909 140.057C106.08 140.228 106.08 140.399 105.909 140.399L97.4017 149.795C97.4017 149.624 97.2315 149.795 97.2315 149.795Z" fill="black"/>
<path d="M104.378 150.308H104.208C104.038 150.137 104.038 149.966 104.208 149.966C105.229 148.599 106.42 147.232 107.611 145.866C107.781 145.695 107.951 145.695 107.951 145.866C108.121 146.036 108.121 146.207 107.951 146.207C106.76 147.403 105.739 148.77 104.718 150.137C104.548 150.308 104.548 150.308 104.378 150.308Z" fill="black"/>
<g opacity="0.1294">
<path d="M116.969 149.624C116.459 149.112 115.778 149.112 115.268 148.941C113.396 148.257 111.525 147.745 109.653 147.916C104.889 147.916 99.954 148.087 95.1897 147.916C89.7448 147.745 84.2998 147.574 78.6847 147.403C74.2607 147.403 69.6666 147.403 65.2426 147.403C60.1379 147.574 55.0333 147.574 49.9287 147.403C42.2717 147.574 34.6148 147.403 26.9578 147.574C24.2354 147.574 24.0652 151.845 26.9578 151.845C36.3163 151.845 45.845 152.187 55.2034 152.358C61.8395 152.358 68.3053 152.187 74.9413 152.016C81.7475 151.845 88.5537 152.187 95.3599 152.187C96.7211 152.187 98.2525 152.187 99.6137 152.187C99.6137 152.528 99.7839 153.041 100.124 153.383C100.805 154.066 101.656 153.895 102.336 153.895C105.399 154.066 108.632 153.724 111.695 153.383C112.545 153.212 113.737 153.554 114.417 152.699C114.587 152.528 114.587 152.528 114.757 152.358H114.928H114.757C115.608 152.528 115.608 152.528 116.119 152.528C116.629 152.528 116.969 152.187 117.31 151.845C117.65 151.333 117.48 150.308 116.969 149.624Z" fill="black"/>
</g>
<path d="M54.1825 118.018C53.672 118.018 53.3317 117.677 53.3317 117.164V79.7494C53.3317 79.2369 53.672 78.8952 54.1825 78.8952C54.693 78.8952 55.0333 79.2369 55.0333 79.7494V117.164C55.0333 117.677 54.693 118.018 54.1825 118.018Z" fill="black"/>
<path d="M71.7084 118.018C71.198 118.018 70.8577 117.677 70.8577 117.164V62.836C70.8577 62.3235 71.198 61.9818 71.7084 61.9818C72.2189 61.9818 72.5592 62.3235 72.5592 62.836V117.164C72.5592 117.677 72.2189 118.018 71.7084 118.018Z" fill="black"/>
<path d="M89.2343 118.018C88.7239 118.018 88.3835 117.677 88.3835 117.164V76.5034C88.3835 75.9909 88.7239 75.6492 89.2343 75.6492C89.7448 75.6492 90.0851 75.9909 90.0851 76.5034V117.164C90.0851 117.677 89.5746 118.018 89.2343 118.018Z" fill="black"/>
<path d="M106.59 118.018C106.08 118.018 105.739 117.677 105.739 117.164V54.123C105.739 53.6105 106.08 53.2688 106.59 53.2688C107.1 53.2688 107.441 53.6105 107.441 54.123V117.164C107.441 117.677 107.1 118.018 106.59 118.018Z" fill="black"/>
<g opacity="0.1294">
<path d="M130.241 84.8747C130.071 84.0205 129.221 83.3371 128.37 83.3371C128.029 83.3371 127.689 83.3371 127.519 83.3371C124.797 83.3371 121.904 83.3371 119.181 83.1663C118.331 83.1663 117.31 82.8246 116.459 83.1663C114.587 83.8496 115.268 86.754 117.14 86.754C120.202 87.0956 126.668 87.2665 127.859 87.0956C129.221 87.779 130.582 86.2414 130.241 84.8747Z" fill="black"/>
</g>
<g opacity="0.1294">
<path d="M133.134 126.048C132.624 125.535 131.943 125.535 131.262 125.535C130.412 125.535 129.561 125.365 128.88 126.048C127.859 127.073 128.71 128.781 130.071 128.781C130.922 128.611 131.773 128.781 132.624 128.611C133.645 128.269 133.815 126.731 133.134 126.048Z" fill="black"/>
</g>
<path d="M125.477 165C124.797 165 124.286 164.658 123.776 164.317L91.9568 128.781C91.106 127.927 91.2762 126.389 92.127 125.535L103.868 114.601C104.378 114.26 104.889 113.918 105.569 113.918C106.25 113.918 106.76 114.26 107.101 114.601L122.755 132.198L145.726 99.738C146.066 99.2255 146.576 98.8838 147.257 98.8838C147.938 98.8838 148.448 98.8838 148.958 99.3963L161.89 109.818C162.741 110.501 163.081 111.868 162.401 112.893L127.349 163.975C126.838 164.658 126.328 165 125.477 165ZM96.7211 127.415L125.137 159.02L157.466 111.697L147.938 104.18L124.797 136.982C124.456 137.494 123.776 137.836 123.095 138.007C122.414 138.007 121.734 137.836 121.223 137.323L105.059 119.727L96.7211 127.415Z" fill="black"/>
<path d="M105.229 116.31L93.6583 127.244L125.477 162.779L160.529 111.355L147.597 100.934L122.925 135.786L105.229 116.31Z" fill="#6C93F9" stroke="#6C93F9"/>
</g>
</g>
<defs>
<filter id="filter0_d_340_798" x="0" y="0" width="184" height="184" filterUnits="userSpaceOnUse" color-interpolation-filters="sRGB">
<feFlood flood-opacity="0" result="BackgroundImageFix"/>
<feColorMatrix in="SourceAlpha" type="matrix" values="0 0 0 0 0 0 0 0 0 0 0 0 0 0 0 0 0 0 127 0" result="hardAlpha"/>
<feOffset dx="4" dy="4"/>
<feComposite in2="hardAlpha" operator="out"/>
<feColorMatrix type="matrix" values="0 0 0 0 0 0 0 0 0 0 0 0 0 0 0 0 0 0 0.1 0"/>
<feBlend mode="normal" in2="BackgroundImageFix" result="effect1_dropShadow_340_798"/>
<feBlend mode="normal" in="SourceGraphic" in2="effect1_dropShadow_340_798" result="shape"/>
</filter>
<clipPath id="clip0_340_798">
<rect width="145.482" height="150" fill="white" transform="translate(17.259 15)"/>
</clipPath>
</defs>
</svg>
