<svg width="61" height="72" viewBox="0 0 61 72" fill="none" xmlns="http://www.w3.org/2000/svg">
<g clip-path="url(#clip0_168_264)">
<path fill-rule="evenodd" clip-rule="evenodd" d="M31.5386 71.1502C32.1715 71.1502 32.8043 71.1502 33.4372 71.0971C33.49 71.0971 33.49 71.0971 33.5427 71.0971C33.4372 70.7255 33.49 70.3538 33.49 69.9821C33.4372 66.5839 33.3317 63.1856 33.279 59.7343C33.279 59.2564 33.279 58.7786 33.2263 58.3007C33.1735 57.6104 32.9626 57.398 32.2242 57.4511C32.066 57.4511 31.9078 57.5573 31.7495 57.6104C31.7495 59.8936 31.7495 62.1768 31.7495 64.46C31.6441 66.7963 31.5913 69.0263 31.5386 71.1502Z" fill="white"/>
<path fill-rule="evenodd" clip-rule="evenodd" d="M41.0318 66.3184C41.0845 67.8051 40.7681 70.0352 40.7681 71.4688C41.401 71.4157 42.614 71.5219 43.2469 71.4688C43.0359 69.0263 42.825 65.7874 42.5613 63.4511C42.2448 60.8494 41.8756 58.1945 41.0318 55.752C40.5044 55.5396 40.188 55.8582 39.766 56.1237C39.9243 57.7697 40.4517 59.3626 40.6099 61.0617C40.7681 62.814 40.9263 64.5662 41.0318 66.3184Z" fill="white"/>
<path fill-rule="evenodd" clip-rule="evenodd" d="M47.888 61.8583C47.9935 63.5043 47.9935 65.1503 47.9935 66.7963C47.9935 67.9114 47.7298 70.3008 47.7298 71.4689C48.3099 71.4158 49.7339 71.5751 50.3141 71.5751C50.2613 69.7167 49.7339 66.3716 49.6812 64.5132C49.5757 61.1149 49.101 57.7167 48.4154 54.3716C48.2044 53.2565 47.5716 52.6194 46.464 52.1946C46.7805 53.9468 47.1496 55.5397 47.3606 57.1326C47.5716 58.6725 47.7825 60.2654 47.888 61.8583Z" fill="white"/>
<path fill-rule="evenodd" clip-rule="evenodd" d="M24.4714 71.2034C24.3659 70.8848 24.4187 70.6193 24.4187 70.3007C24.3132 65.6813 24.5241 61.1149 25.368 56.6016C25.4207 56.4423 25.368 56.283 25.368 55.9644C25.0515 55.8051 24.7351 55.6459 24.2604 55.3804C23.4166 58.0883 23.2056 60.7432 22.8892 63.4512C22.6255 65.9998 22.731 68.6016 22.52 71.2034C23.1529 71.2034 23.7858 71.2034 24.4714 71.2034Z" fill="white"/>
<path fill-rule="evenodd" clip-rule="evenodd" d="M17.5097 53.9467C17.3515 54.2653 17.246 54.5839 17.1405 54.9555C15.8748 58.6193 15.3474 62.3892 15.1364 66.2122C15.0837 67.5396 15.0309 68.9201 15.0309 70.2476C15.0309 70.5131 14.8727 71.575 14.8727 71.575C14.8727 71.575 16.4549 71.575 16.9296 71.5219C16.5604 70.3538 16.8241 69.1856 16.8241 68.0706C16.8241 66.8493 16.8768 65.575 16.9823 64.3538C17.0878 63.0794 17.246 61.8051 17.457 60.5308C17.6679 59.3095 17.9316 58.0883 18.1953 56.9201C18.459 55.6989 18.8282 54.5308 19.1447 53.3626C18.2481 53.2033 17.7734 53.3626 17.5097 53.9467Z" fill="white"/>
<path fill-rule="evenodd" clip-rule="evenodd" d="M37.129 44.4424C39.5551 43.7521 41.3482 42.4247 42.9304 40.6725C44.3017 39.1858 44.9346 37.4336 45.251 35.469C45.7257 32.6017 45.6729 29.7344 45.3565 26.8672C45.0928 24.6902 44.8291 22.5663 44.3544 20.4424C43.9325 18.4247 42.6667 17.1504 40.9791 16.1946C40.2407 15.8229 39.4496 15.5575 38.7112 15.292C37.129 14.7079 35.4941 14.23 33.9119 13.646C32.1187 13.0088 30.7475 11.9468 29.7982 10.2477C29.5345 9.82295 29.1125 9.76985 28.7961 10.1415C28.7434 10.1946 28.7434 10.2477 28.6906 10.3008C27.6886 12.1061 26.0536 13.2212 24.3132 14.2831C22.8892 15.1858 21.4125 16.0353 19.883 16.7787C17.7207 17.7875 16.1912 19.3805 15.5583 21.8229C14.8727 24.4778 14.4508 27.1327 14.9254 29.8406C15.1891 31.2743 15.2419 32.761 15.4528 34.1946C15.5583 34.8849 15.7165 35.5752 15.9275 36.2654C16.9823 39.6637 19.3556 41.9468 22.52 43.3805C23.8385 43.9645 25.2625 44.3893 26.792 44.9203C27.0029 45.3451 26.792 45.876 26.5283 46.407C25.6844 48.1592 24.4714 49.5398 22.731 50.3893C21.518 50.9734 20.3049 51.5044 19.0392 51.9291C17.3515 52.5132 15.8748 53.469 14.398 54.3716C13.5015 54.9026 12.9213 55.7521 12.4994 56.6548C12.0247 57.6106 11.6028 58.5663 11.1282 59.6283C10.8117 59.6283 10.4425 59.7345 10.1788 59.6283C9.12404 59.1504 8.01649 58.6725 7.06717 58.0353C5.80141 57.1327 5.06305 55.9114 5.27401 54.2654C5.32675 53.7875 5.53771 53.3628 5.69593 52.938C5.80141 52.6194 5.90689 52.3008 6.01237 51.876C5.59045 51.7168 5.27401 51.6106 4.95757 51.5575C3.95551 51.3451 3.11166 50.8141 2.42604 50.0707C1.74042 49.3805 1.37124 48.5309 1.3185 47.5752C1.26576 46.3008 1.42398 45.1327 2.00412 43.9645C2.21508 43.5929 2.3733 43.2212 2.637 42.9026C4.48291 40.5663 4.48291 37.9114 4.11373 35.2035C4.00825 34.5132 3.85003 33.9291 3.69181 33.3451C3.26989 31.7521 3.42811 30.1592 3.95551 28.6725C4.74661 26.5486 5.64319 24.5309 7.06717 22.7787C8.33293 21.2389 8.86033 19.5398 8.86033 17.5752C8.86033 16.3008 8.96582 14.9734 9.01856 13.6991C9.12404 11.2566 10.1261 9.13268 11.9193 7.43357C12.8686 6.53091 13.8706 5.73445 14.9782 5.04419C16.5076 4.14153 18.1953 3.34507 19.8303 2.54861C20.8323 2.07074 21.9399 1.91144 23.1002 2.01764C24.9988 2.23003 26.8447 2.01764 28.6379 1.53976C30.0091 1.16808 31.3804 1.00879 32.8043 1.00879C34.2283 1.00879 35.5996 1.32737 36.8126 2.01764C38.6058 3.07959 40.3989 4.24773 41.9811 5.62826C43.2469 6.7433 44.2489 7.96454 44.8291 9.55746C45.1983 10.5663 45.8311 11.4159 46.6222 12.1061C47.3079 12.6902 47.9407 13.2212 48.6264 13.8583C50.6305 15.7168 51.7908 17.9999 52.0545 20.8141C52.3182 23.8937 51.949 26.8141 50.5778 29.5752C50.3668 30.053 50.2086 30.5309 49.9976 31.0619C49.523 32.23 49.7867 33.292 50.5778 34.1946C51.0524 34.7787 51.6853 35.2566 52.2127 35.7875C52.9511 36.584 53.7422 37.4336 54.375 38.3362C55.6408 40.0884 55.6408 41.9468 54.5333 43.8052C54.2696 44.23 54.0059 44.6017 53.7949 45.0265C53.4257 45.7699 53.4785 46.5132 54.0059 47.1504C54.4805 47.7345 55.0607 48.2123 55.6408 48.7433C56.2737 49.3274 57.012 49.8583 57.6449 50.4424C58.6997 51.3982 58.9634 52.6194 58.4888 53.9999C58.2778 54.5309 58.0668 55.115 57.8031 55.5929C56.6956 57.5044 55.2189 59.0442 53.4257 60.5309C53.2148 60.2123 53.0565 59.9999 52.9511 59.7875C52.6874 59.0973 52.4237 58.3539 52.2127 57.6106C51.1052 54.1592 48.7318 51.9822 45.5674 50.5486C44.0907 49.8583 42.5613 49.2212 41.1373 48.4778C40.3989 48.1061 39.7133 47.6814 39.0277 47.2566C38.0256 46.6194 37.4455 45.7168 37.129 44.4424ZM10.7062 30.6371C10.1261 30.6902 9.80966 30.6371 9.70418 30.7433C9.38774 31.0619 9.0713 31.4336 8.86033 31.8583C8.33293 32.9734 8.01649 34.1946 7.96375 35.4159C7.91101 36.7433 8.28019 37.9645 9.0713 39.0265C9.335 39.3451 9.54596 39.6637 9.80966 40.0353C9.44048 40.6725 9.0713 41.3097 8.70212 41.8937C8.01649 43.0619 7.48909 44.2831 7.27813 45.6637C6.96169 47.8406 7.64731 49.6991 9.28226 51.1858C9.44048 51.292 9.65144 51.5575 9.91514 51.1858C9.70418 50.8141 9.54596 50.3893 9.28226 50.0176C8.01649 47.7875 8.01649 45.5575 9.22952 43.3274C9.5987 42.584 10.0206 41.8937 10.4425 41.2035C11.1282 39.9822 11.1282 39.7168 10.2316 38.7079C9.12404 37.5398 8.86034 36.1592 9.0713 34.6194C9.38774 33.292 9.70418 32.0707 10.7062 30.6371ZM48.5209 38.7079C48.9956 39.3451 49.3647 39.7168 49.6284 40.1415C50.1558 40.8849 50.2086 41.6814 49.7339 42.4247C49.4702 42.7964 49.2065 43.1681 48.9428 43.5398C48.5209 44.1238 48.5209 44.761 48.8901 45.3451C49.1538 45.7168 49.4175 46.1415 49.7339 46.4601C50.6305 47.4159 50.736 48.5309 50.2613 49.6991C50.1031 50.0176 49.9976 50.3362 49.9449 50.7079C49.9449 50.8672 50.0504 51.1327 50.1558 51.1327C50.3668 51.1327 50.6305 51.1327 50.736 50.9734C51.8963 49.4336 51.8963 47.6814 50.736 46.1415C50.3141 45.6106 49.7339 45.1858 49.6812 44.3362C49.9449 43.9114 50.2613 43.4867 50.5778 43.0619C51.5798 41.4159 50.9997 39.5044 49.2593 38.6017C49.1538 38.5486 48.9428 38.6548 48.5209 38.7079ZM46.2003 16.407C46.2531 16.6725 46.2531 16.8849 46.3058 17.0973C46.6222 17.7345 46.9387 18.3716 47.2551 19.0088C48.2044 21.0265 48.5736 23.0973 48.0462 25.3274C47.9407 25.8583 47.888 26.3893 47.8353 26.8672C47.8353 27.0796 47.888 27.2389 47.9935 27.5575C48.8901 26.5486 49.2593 25.5398 49.312 23.9468C49.4175 21.4513 48.6264 19.2212 47.3079 17.1504C47.0969 16.7787 46.8859 16.3539 46.2003 16.407ZM11.972 19.1681C12.2357 18.6902 12.3939 18.4778 12.4994 18.2123C13.0795 15.5044 14.398 13.1681 15.9802 10.9911C16.0857 10.8318 16.2967 10.6725 16.1385 10.407C15.4001 10.4601 15.4001 10.4601 15.1364 10.8318C13.8706 12.4778 12.7631 14.1769 12.1302 16.1415C11.9193 16.7256 11.761 17.3628 11.7083 17.9999C11.6028 18.2654 11.8138 18.584 11.972 19.1681ZM17.2988 17.1504C17.7734 16.8318 18.0371 16.7256 18.1953 16.5663C19.7775 14.7079 21.307 12.7964 22.8365 10.938C23.0474 10.6725 23.2056 10.3539 23.3639 10.0353C23.4166 9.98224 23.3639 9.76985 23.3111 9.71675C23.1529 9.66366 22.9947 9.61056 22.8365 9.66366C22.6782 9.71675 22.5728 9.87605 22.4673 9.98224C21.1488 11.5221 19.7775 13.0619 18.5118 14.6017C18.1426 15.0265 17.8262 15.5575 17.5625 16.0353C17.4042 16.3008 17.4042 16.6194 17.2988 17.1504ZM16.5076 42.2654C16.3494 42.2123 16.2439 42.2123 16.0857 42.1592C15.1891 43.4336 14.6617 44.8672 14.609 46.5132C14.609 46.6725 14.609 46.8849 14.6617 47.0442C14.7672 47.6283 15.0837 48.1061 15.6111 48.4247C15.9802 48.6371 16.4022 49.0088 16.8768 48.6371C16.8768 48.584 16.9296 48.5309 16.8768 48.4778C16.8241 48.3185 16.7713 48.1061 16.6131 48.053C15.5056 47.2035 15.5583 46.0884 15.9275 44.8672C16.0857 44.23 16.3494 43.646 16.5076 43.0088C16.5604 42.7964 16.5076 42.4778 16.5076 42.2654ZM41.6647 13.4867C41.7174 13.1681 41.7174 13.0619 41.7174 13.0619C41.6647 12.9026 41.5592 12.7433 41.4537 12.6371C40.0825 11.2566 38.553 10.1415 36.8126 9.29198C36.4961 9.13268 36.1797 9.02649 35.8105 8.97339C35.4941 8.92029 35.2304 9.02649 35.2831 9.45127C36.2852 10.0884 37.34 10.6725 38.3948 11.3628C39.4496 11.9999 40.3462 12.9557 41.6647 13.4867Z" fill="white"/>
<path fill-rule="evenodd" clip-rule="evenodd" d="M29.0071 11.3628C29.3235 11.6814 29.5345 11.8938 29.6927 12.1062C30.5893 13.3274 31.8023 14.1239 33.2263 14.6017C35.1249 15.292 37.0763 15.9823 39.0277 16.6194C40.0297 16.938 40.9791 17.4159 41.7174 18.1593C42.4558 18.8495 43.0359 19.6991 43.2469 20.6548C43.4578 21.6106 43.6688 22.6194 43.7743 23.5752C44.0907 25.9646 44.3544 28.3539 44.5654 30.7433C44.7763 32.8672 44.4072 34.938 43.7215 37.0088C43.2469 38.2831 42.5613 39.4513 41.6119 40.4601C40.5044 41.6283 39.2386 42.5309 37.6037 42.7964C34.6502 43.2212 31.7495 43.9115 28.7434 43.7522C28.0577 43.6991 27.3194 43.6991 26.6865 43.4867C25.4207 43.115 24.155 42.6371 22.8892 42.1062C19.5666 40.7256 17.6152 38.0708 16.8241 34.6194C16.2967 32.23 15.9802 29.7345 15.7165 27.292C15.5056 25.115 16.0857 22.9911 16.8241 20.9203C17.1405 20.0177 17.8262 19.3274 18.67 18.8495C19.4611 18.3716 20.3049 17.8938 21.096 17.469C21.7289 17.0973 22.3091 16.7787 22.9419 16.407C25.157 15.0265 27.5831 13.8584 29.0071 11.3628ZM36.3379 34.6725C35.8105 34.938 35.4941 35.0973 35.1249 35.3097C34.492 35.7345 33.8591 36.1593 33.2263 36.584C31.9605 37.4867 30.642 37.5398 29.2708 36.9026C28.3214 36.4778 27.3721 36 26.4228 35.5752C26.1591 35.469 25.8426 35.4159 25.5789 35.469C25.4735 35.469 25.3152 35.8407 25.3152 36C25.3152 36.1062 25.4735 36.3185 25.6317 36.3716C26.8974 37.0619 28.216 37.7522 29.5345 38.3362C30.7475 38.8672 32.066 38.761 33.2263 38.0708C34.0701 37.5398 34.8612 36.9557 35.6523 36.3716C35.916 36.1593 36.1797 35.8938 36.3379 35.5752C36.4434 35.3628 36.3379 35.0442 36.3379 34.6725ZM33.5954 29.8407C33.279 30.4247 33.068 30.8495 32.8043 31.1681C32.5406 31.4867 32.2242 31.7522 31.9078 32.0177C31.6968 32.23 31.5913 32.4955 31.7495 32.8141C31.9078 33.0796 32.3824 33.1858 32.6989 32.9203C33.2263 32.4424 33.7537 32.0177 34.1756 31.4336C34.9667 30.2654 34.9139 28.9911 33.49 28.3539C32.6461 27.9823 32.2769 27.292 32.1715 26.3893C32.066 25.5929 32.0132 24.7433 31.9078 23.9469C31.9078 23.7345 31.7495 23.5752 31.5386 23.2035C30.7475 24.4247 31.0639 25.5929 31.0639 26.7079C31.1694 28.2477 32.1715 29.0973 33.5954 29.8407ZM21.9926 26.8672C22.0454 27.5044 22.0454 27.8761 22.0981 28.1947C22.1508 28.6725 22.52 29.0973 22.8365 29.0442C23.1529 28.9911 23.5221 28.8318 23.6803 28.5663C24.3132 27.6106 24.2604 26.6017 23.8385 25.5398C23.5748 24.9557 22.731 24.9026 22.4145 25.4867C22.2036 26.0177 22.0981 26.6017 21.9926 26.8672ZM36.3907 25.9646C36.4961 26.4424 36.6016 26.9203 36.7598 27.292C36.9708 27.823 37.6037 27.9292 38.0783 27.5575C38.2366 27.3982 38.4475 27.2389 38.5003 27.0265C38.7112 26.2301 38.6585 25.4336 38.1838 24.6902C37.8674 24.1593 37.0235 24.2124 36.7598 24.7964C36.5489 25.1681 36.4961 25.5929 36.3907 25.9646ZM39.8715 20.5486C39.6606 19.1681 38.764 18.584 37.6564 18.3716C37.2872 18.3185 36.8126 18.4247 36.8653 19.0088C37.8674 19.5398 38.8695 20.0177 39.8715 20.5486ZM23.4166 20.3893C23.2584 20.177 23.2056 19.9646 23.0474 19.9646C22.0981 19.6991 21.0433 20.1239 20.4632 20.9203C20.4104 20.9734 20.4104 21.1858 20.4632 21.2389C20.5686 21.3451 20.7796 21.5575 20.8323 21.5044C21.6762 21.1858 22.52 20.8141 23.4166 20.3893Z" fill="white"/>
<path fill-rule="evenodd" clip-rule="evenodd" d="M35.916 44.6016C36.0742 44.867 36.1797 45.0794 36.2852 45.2918C36.7598 46.9909 37.8674 48.106 39.3968 48.9555C40.3989 49.5396 41.4537 50.0175 42.5085 50.5485C42.9304 50.7609 43.2996 50.9732 43.7215 51.1856C43.1941 52.6724 42.5613 53.4688 41.3482 54.1591C38.6585 55.6989 35.7578 56.4423 32.6989 56.4954C31.8023 56.4954 30.9584 56.4954 30.0619 56.4423C29.4817 56.3892 28.8488 56.3361 28.3742 56.1237C26.5283 55.2741 24.6824 54.3184 22.8892 53.4157C22.52 53.2564 22.2563 52.8847 21.8871 52.5662C22.2563 52.3538 22.52 52.1414 22.8365 51.9821C25.7372 50.6016 27.6358 48.3715 28.216 44.9732C30.6947 44.814 33.3317 44.7078 35.916 44.6016Z" fill="white"/>
<path fill-rule="evenodd" clip-rule="evenodd" d="M53.5312 62.23C53.9004 65.3096 54.1113 68.3893 53.9004 71.5751C53.2147 71.8406 52.5819 71.7344 51.949 71.7344C51.3688 71.7344 50.7887 71.7344 50.3668 71.7344C49.7866 71.3096 49.8394 70.7786 49.8394 70.3539C49.7866 68.3893 49.7866 66.4778 49.6812 64.5132C49.5757 61.1149 49.101 57.7167 48.4154 54.3716C48.2044 53.2565 47.5716 52.6194 46.464 52.1946C46.7805 53.9468 47.1496 55.5397 47.3606 57.1326C47.5716 58.7255 47.7825 60.2654 47.888 61.8583C47.9935 63.5043 47.9935 65.1503 47.9935 66.7963C47.9935 68.3893 48.099 69.9291 47.9407 71.6282C46.2531 71.7875 44.7236 71.7344 43.0886 71.6813C42.7195 68.8671 42.8777 66.1592 42.5612 63.5043C42.2448 60.9025 41.8756 58.2477 41.0318 55.8052C40.5044 55.5928 40.188 55.9114 39.766 56.1769C39.9242 57.8229 40.4516 59.4158 40.6099 61.1149C40.7681 62.8671 40.9263 64.6194 41.0318 66.3716C41.0845 68.0707 41.0318 69.7698 41.0318 71.3627C40.8208 71.522 40.7153 71.6813 40.6626 71.6813C38.3948 71.8406 36.127 71.7344 33.9646 71.7875C33.3317 71.2565 33.49 70.6193 33.49 70.0353C33.4372 66.637 33.3317 63.2388 33.279 59.7875C33.279 59.3096 33.279 58.8317 33.2263 58.3539C33.1735 57.6636 32.9626 57.4512 32.2242 57.5043C32.066 57.5043 31.9078 57.6105 31.7495 57.6636C31.7495 59.9468 31.7495 62.23 31.7495 64.5132C31.7495 66.7963 31.6441 69.0795 31.5913 71.2565C31.3804 71.4158 31.3276 71.5751 31.2221 71.5751C29.0598 71.7344 26.8974 71.6813 24.8933 71.6282C24.3659 71.2034 24.4714 70.6725 24.4714 70.2477C24.3659 65.6282 24.5769 61.0618 25.4207 56.5486C25.4735 56.3893 25.4207 56.23 25.4207 55.9114C25.1043 55.7521 24.7878 55.5928 24.3132 55.3273C23.4693 58.0353 23.2584 60.6902 22.9419 63.3981C22.6255 66.053 22.8365 68.814 22.5728 71.4689C21.5707 71.7875 20.6214 71.6282 19.7248 71.6813C18.881 71.7344 17.9844 71.6813 17.0878 71.6813C16.5604 70.407 16.8768 69.1857 16.8768 67.9645C16.8768 66.7432 16.9296 65.4689 17.035 64.2477C17.1405 62.9733 17.2987 61.699 17.5097 60.4247C17.7207 59.2034 17.9844 57.9822 18.2481 56.814C18.5118 55.5928 18.881 54.4247 19.1974 53.2565C18.3536 53.1503 17.9316 53.3096 17.6152 53.8406C17.457 54.1592 17.3515 54.4778 17.246 54.8494C15.9802 58.5132 15.4528 62.2831 15.2419 66.1061C15.1891 67.4335 15.1364 68.814 15.1364 70.1415C15.1364 70.6194 15.0837 71.0441 15.0309 71.5751C13.5542 71.9468 12.1302 71.8937 10.6008 71.8406C10.4953 71.4689 10.3898 71.1503 10.3898 70.8317C10.548 68.1769 10.4425 65.522 10.8645 62.9202C10.9699 62.2831 11.0754 61.6459 10.9699 60.9556C9.65143 60.6371 8.38567 60.1592 7.27813 59.4158C6.69799 59.0441 6.11785 58.6194 5.64319 58.0884C4.64113 57.0264 4.11373 55.7521 4.21921 54.2654C4.27195 53.7344 4.27195 53.2034 4.32469 52.6725C3.85002 52.407 3.37536 52.1415 2.95344 51.876C0.527399 50.4424 -0.316443 48.3716 0.105478 45.7167C0.316439 44.5486 0.738359 43.4866 1.37124 42.4778C1.68768 41.9999 2.00412 41.522 2.32056 40.991C2.95344 40.0353 3.26988 38.9733 3.11166 37.8052C2.95344 36.4778 2.79522 35.0972 2.53152 33.8229C2.16234 31.8052 2.21508 29.8406 2.95344 27.9291C3.79728 25.8052 4.74661 23.7344 6.22333 21.9291C7.22539 20.7078 7.70005 19.3273 7.64731 17.6813C7.64731 16.0884 7.75279 14.4955 7.91101 12.9556C8.12197 10.8317 8.96581 9.02643 10.3371 7.38041C11.2336 6.31847 12.2357 5.46891 13.3432 4.72554C15.3474 3.39811 17.5625 2.38926 19.7248 1.48661C20.9906 0.955633 22.3618 0.955634 23.6803 1.16802C25.1043 1.43351 26.4755 1.22112 27.794 0.796341C29.429 0.265368 31.0639 0.0529785 32.8043 0.0529785C34.2811 0.0529785 35.705 0.371563 36.9708 1.11493C38.764 2.22997 40.5571 3.34501 42.2448 4.56625C43.8798 5.7344 45.1455 7.27422 45.8839 9.23882C46.1476 10.0353 46.675 10.6724 47.3079 11.2565C48.0462 11.8937 48.7846 12.584 49.5757 13.2211C50.8942 14.3893 51.7908 15.7698 52.4236 17.4158C52.6346 17.9999 52.8456 18.6371 52.8983 19.2742C53.0565 20.7609 53.1093 22.1946 53.162 23.6813C53.2148 25.699 52.7401 27.6636 51.949 29.522C51.6853 30.1592 51.4216 30.8494 51.1579 31.4866C50.8414 32.3362 50.9997 33.1326 51.6325 33.7698C52.1072 34.1946 52.5819 34.6194 53.0038 35.0972C53.8476 35.9999 54.6915 36.9025 55.4298 37.8583C56.8538 39.9291 56.9066 42.1061 55.7463 44.3362C55.6935 44.4424 55.6408 44.5486 55.5881 44.6548C54.586 46.0353 54.7442 46.3008 56.1682 47.522C56.8538 48.1061 57.5394 48.6371 58.2251 49.168C60.2819 50.9202 60.3874 53.2034 59.5436 55.2211C58.5415 57.5574 57.012 59.4158 55.1134 61.0087C54.6915 61.3804 54.2168 61.7521 53.5312 62.23ZM37.129 44.4424C37.4455 45.7167 38.0256 46.6194 38.9749 47.2565C39.6605 47.7344 40.3462 48.1592 41.0845 48.4778C42.5613 49.168 44.038 49.8583 45.5147 50.5486C48.6791 51.9822 51.1051 54.1592 52.16 57.6105C52.3709 58.3539 52.6346 59.0441 52.8983 59.7875C53.0038 60.053 53.162 60.2123 53.373 60.5309C55.1661 59.0441 56.6429 57.5043 57.7504 55.5928C58.0668 55.1149 58.2778 54.5309 58.436 53.9999C58.9107 52.6194 58.647 51.4512 57.5922 50.4424C56.9593 49.8583 56.2209 49.3273 55.5881 48.7433C55.0079 48.2654 54.4278 47.7344 53.9531 47.1503C53.4257 46.5132 53.373 45.7698 53.7422 45.0264C53.9531 44.6017 54.2168 44.23 54.4805 43.8052C55.5881 41.9468 55.5881 40.0884 54.3223 38.3362C53.6894 37.4335 52.8983 36.6371 52.16 35.7875C51.6325 35.2034 51.0524 34.7255 50.525 34.1946C49.7339 33.2919 49.4702 32.23 49.9449 31.0618C50.1558 30.584 50.314 30.053 50.525 29.5751C51.8435 26.814 52.2654 23.8937 52.0017 20.814C51.738 17.9999 50.5777 15.7698 48.5736 13.8583C47.9407 13.2742 47.2551 12.6901 46.5695 12.1061C45.7784 11.4158 45.1455 10.5663 44.7763 9.5574C44.1962 7.96448 43.1941 6.69015 41.9284 5.6282C40.3462 4.24767 38.553 3.07953 36.7598 2.01758C35.4941 1.27422 34.1756 0.955633 32.7516 1.00873C31.3276 1.00873 29.9564 1.16802 28.5851 1.5397C26.7392 2.01758 24.8933 2.22997 23.0474 2.01758C21.9399 1.91139 20.8323 2.07068 19.7775 2.54855C18.1426 3.34501 16.5076 4.08838 14.9254 5.04413C13.8179 5.6813 12.8158 6.53085 11.8665 7.43351C10.1261 9.13262 9.12403 11.2034 8.96581 13.699C8.91307 14.9733 8.80759 16.3008 8.80759 17.5751C8.86033 19.5397 8.28019 21.2919 7.01443 22.7786C5.64319 24.5309 4.74661 26.5486 4.00824 28.6725C3.4281 30.2123 3.32262 31.7521 3.74454 33.345C3.90276 33.9291 4.00824 34.5132 4.11373 35.0441C4.48291 37.8052 4.53565 40.4601 2.637 42.7432C2.3733 43.0618 2.21508 43.4335 2.00412 43.8052C1.42398 44.9202 1.26576 46.1415 1.3185 47.4158C1.37124 48.3716 1.74042 49.2211 2.42604 49.9114C3.11166 50.6548 3.9555 51.1857 4.95757 51.3981C5.27401 51.4512 5.59045 51.6105 6.01237 51.7167C5.90689 52.1415 5.80141 52.4601 5.69593 52.7786C5.53771 53.2034 5.37949 53.6813 5.27401 54.1061C5.06305 55.7521 5.85415 56.9733 7.06717 57.876C8.01649 58.5132 9.12403 58.991 10.1788 59.4689C10.4425 59.5751 10.8117 59.4689 11.1282 59.4689C11.6028 58.407 12.0247 57.4512 12.4994 56.4955C12.9213 55.5928 13.5015 54.7432 14.398 54.2123C15.9275 53.3096 17.3515 52.3539 19.0392 51.7698C20.3049 51.345 21.5707 50.814 22.731 50.23C24.4714 49.3804 25.6844 47.9468 26.5283 46.2477C26.792 45.7167 27.0029 45.1857 26.792 44.7609C25.2625 44.23 23.8385 43.8052 22.52 43.2211C19.3556 41.7875 17.035 39.5043 15.9275 36.1061C15.7165 35.4158 15.5583 34.7255 15.4528 34.0353C15.2419 32.6017 15.1364 31.1149 14.9254 29.6813C14.4508 26.9733 14.8727 24.3185 15.5583 21.6636C16.1912 19.2211 17.7207 17.6282 19.883 16.6194C21.4125 15.876 22.8892 15.0264 24.3132 14.1238C26.0009 13.0618 27.6885 11.9999 28.6906 10.1415C28.7433 10.0884 28.7433 10.0353 28.7961 9.98218C29.1125 9.6105 29.5345 9.6636 29.7982 10.0884C30.7475 11.7344 32.1187 12.8494 33.9119 13.4866C35.4941 14.0707 37.129 14.6017 38.7112 15.1326C39.5023 15.3981 40.2934 15.6636 40.979 16.0353C42.7195 16.9379 43.9325 18.2123 44.3544 20.2831C44.8291 22.407 45.0928 24.584 45.3565 26.7078C45.6729 29.5751 45.7257 32.4424 45.251 35.3096C44.9346 37.2742 44.2489 39.0264 42.9304 40.5132C41.3482 42.4247 39.5551 43.7521 37.129 44.4424ZM29.007 11.3627C27.5831 13.9114 25.157 15.0795 22.9947 16.4601C22.4145 16.8317 21.7817 17.1503 21.1488 17.522C20.3577 17.9999 19.5138 18.4247 18.7227 18.9025C17.8789 19.3804 17.1933 20.0176 16.8768 20.9733C16.1385 23.0441 15.5583 25.168 15.7693 27.345C16.033 29.7875 16.3494 32.23 16.8768 34.6725C17.6152 38.1238 19.5666 40.7786 22.9419 42.1592C24.155 42.6902 25.4207 43.1149 26.7392 43.5397C27.3721 43.7521 28.1105 43.7521 28.7961 43.8052C31.8023 43.9645 34.703 43.3273 37.6564 42.8494C39.2914 42.584 40.5571 41.6813 41.6647 40.5132C42.614 39.5043 43.2996 38.3893 43.7743 37.0618C44.4599 35.0441 44.8291 32.9733 44.6181 30.7963C44.4072 28.407 44.0907 26.0176 43.827 23.6282C43.7215 22.6194 43.5106 21.6636 43.2996 20.7078C43.0887 19.699 42.5085 18.9025 41.7701 18.2123C40.979 17.4689 40.0825 16.991 39.0804 16.6724C37.129 16.0353 35.2304 15.345 33.279 14.6547C31.855 14.1238 30.6947 13.3273 29.7454 12.1592C29.5345 11.8406 29.3235 11.6813 29.007 11.3627ZM35.916 44.6017C33.3317 44.7079 30.6947 44.8671 28.1105 44.9733C27.5831 48.3716 25.6844 50.5486 22.731 51.9822C22.4145 52.1415 22.1508 52.3008 21.7817 52.5663C22.1508 52.8848 22.4673 53.2565 22.7837 53.4158C24.5769 54.3716 26.4228 55.2742 28.2687 56.1238C28.7961 56.3362 29.3762 56.4424 29.9564 56.4424C30.8002 56.4955 31.6968 56.5486 32.5934 56.4955C35.6523 56.3893 38.6057 55.699 41.2427 54.1592C42.403 53.4689 43.0886 52.6725 43.6161 51.1857C43.1941 50.9733 42.825 50.7609 42.403 50.5486C41.3482 50.0176 40.2934 49.5397 39.2914 48.9556C37.8146 48.1592 36.6544 46.991 36.1797 45.2919C36.1797 45.0795 36.0742 44.8671 35.916 44.6017Z" fill="#484A4C"/>
<path fill-rule="evenodd" clip-rule="evenodd" d="M10.7062 30.637C9.65144 32.0706 9.38774 33.2918 9.22952 34.6193C9.01856 36.1591 9.28226 37.5396 10.3898 38.7078C11.2864 39.7166 11.2864 39.9821 10.6008 41.2033C10.2316 41.9467 9.75692 42.637 9.38774 43.3272C8.17472 45.5573 8.17472 47.7874 9.44048 50.0175C9.65144 50.3892 9.8624 50.814 10.0734 51.1856C9.75692 51.5573 9.54596 51.2918 9.44048 51.1856C7.7528 49.6989 7.11991 47.8405 7.43636 45.6635C7.59458 44.283 8.17472 43.0617 8.86034 41.8936C9.22952 41.3095 9.54596 40.6724 9.96788 40.0352C9.70418 39.6635 9.44048 39.3449 9.22952 39.0263C8.38568 37.9644 8.06924 36.7432 8.12198 35.4157C8.17472 34.1414 8.49116 32.9732 9.01856 31.8582C9.22952 31.4334 9.54596 31.0617 9.8624 30.7432C9.8624 30.637 10.1261 30.6901 10.7062 30.637Z" fill="#484A4C"/>
<path fill-rule="evenodd" clip-rule="evenodd" d="M48.5209 38.7078C48.9428 38.6547 49.1538 38.5485 49.2593 38.6016C50.9997 39.5043 51.5271 41.4158 50.5778 43.0618C50.3141 43.4866 49.9976 43.9114 49.6812 44.3361C49.6812 45.1326 50.3141 45.5574 50.736 46.1415C51.8435 47.7344 51.8963 49.4335 50.736 50.9733C50.6305 51.1326 50.3141 51.1326 50.1558 51.1326C50.0504 51.1326 49.9449 50.814 49.9449 50.7078C49.9976 50.3892 50.1031 50.0176 50.2613 49.699C50.7887 48.4777 50.6305 47.4158 49.7339 46.46C49.4175 46.1415 49.1538 45.7167 48.8901 45.345C48.4681 44.7609 48.5209 44.1238 48.9428 43.5397C49.2065 43.168 49.523 42.7963 49.7339 42.4246C50.2613 41.6282 50.1558 40.8848 49.6284 40.1415C49.312 39.7167 48.9956 39.2919 48.5209 38.7078Z" fill="#484A4C"/>
<path fill-rule="evenodd" clip-rule="evenodd" d="M46.2003 16.4069C46.8859 16.3538 47.0969 16.7785 47.3079 17.1502C48.6264 19.221 49.4175 21.4511 49.312 23.9467C49.2065 25.5396 48.8901 26.5485 47.9935 27.5573C47.9407 27.2918 47.8353 27.0794 47.8353 26.867C47.888 26.3361 47.9407 25.8051 48.0462 25.3272C48.5209 23.0971 48.2044 21.0263 47.2551 19.0086C46.9387 18.3715 46.6222 17.7343 46.3058 17.0971C46.2531 16.8847 46.2531 16.6724 46.2003 16.4069Z" fill="#484A4C"/>
<path fill-rule="evenodd" clip-rule="evenodd" d="M11.972 19.168C11.8138 18.6371 11.6028 18.2654 11.6028 17.9999C11.6556 17.3627 11.8138 16.7256 12.0247 16.1415C12.7104 14.1769 13.7652 12.4247 15.0309 10.8318C15.2946 10.4601 15.3474 10.4601 16.033 10.407C16.2439 10.6725 16.033 10.8318 15.8748 10.9911C14.2926 13.168 12.9741 15.5574 12.3939 18.2123C12.4467 18.4778 12.2357 18.6902 11.972 19.168Z" fill="#484A4C"/>
<path fill-rule="evenodd" clip-rule="evenodd" d="M17.2988 17.1502C17.4042 16.6192 17.4042 16.3006 17.5097 16.0883C17.7734 15.5573 18.0899 15.0794 18.459 14.6546C19.7775 13.1148 21.096 11.575 22.4145 10.0352C22.52 9.92896 22.6782 9.76967 22.7837 9.71657C22.8892 9.66348 23.1002 9.71657 23.2584 9.76967C23.3111 9.76967 23.3639 9.98206 23.3111 10.0883C23.1529 10.4068 22.9947 10.7254 22.7837 10.9909C21.2543 12.9024 19.6721 14.7608 18.1426 16.6192C18.0371 16.7785 17.7734 16.8847 17.2988 17.1502Z" fill="#484A4C"/>
<path fill-rule="evenodd" clip-rule="evenodd" d="M16.5076 42.2653C16.5076 42.5308 16.5604 42.7962 16.5076 43.0617C16.3494 43.6989 16.1385 44.283 15.9275 44.9201C15.5583 46.0883 15.5056 47.2033 16.6131 48.106C16.7186 48.2122 16.7713 48.3715 16.8768 48.5308C16.8768 48.5839 16.8768 48.637 16.8768 48.6901C16.4022 49.0086 15.9802 48.6901 15.6111 48.4777C15.0837 48.1591 14.7672 47.6812 14.6617 47.0971C14.609 46.9378 14.609 46.7255 14.609 46.5662C14.609 44.9732 15.1891 43.5396 16.0857 42.2122C16.1912 42.1591 16.3494 42.2122 16.5076 42.2653Z" fill="#484A4C"/>
<path fill-rule="evenodd" clip-rule="evenodd" d="M41.6647 13.4867C40.3462 12.9557 39.4496 12 38.3948 11.3097C37.3927 10.6725 36.3379 10.0354 35.2831 9.39821C35.2304 8.97343 35.4941 8.86723 35.8105 8.92033C36.127 8.97343 36.4961 9.07962 36.8126 9.23892C38.553 10.0885 40.0825 11.2566 41.4537 12.584C41.5592 12.6902 41.6119 12.8495 41.7174 13.0088C41.7174 13.115 41.7174 13.1681 41.6647 13.4867Z" fill="#484A4C"/>
<path fill-rule="evenodd" clip-rule="evenodd" d="M36.3379 34.6724C36.3379 35.0971 36.4434 35.3626 36.3907 35.575C36.2324 35.8936 36.0215 36.1591 35.705 36.3715C34.9139 36.9555 34.1228 37.5927 33.279 38.0706C32.1187 38.7609 30.8002 38.8671 29.5872 38.3361C28.2687 37.752 27.0029 37.0617 25.6844 36.3715C25.5262 36.3184 25.368 36.106 25.368 35.9998C25.368 35.7874 25.4735 35.4688 25.6317 35.4688C25.8954 35.4157 26.2118 35.4688 26.4755 35.575C27.4248 35.9998 28.3742 36.4246 29.3235 36.9025C30.6947 37.5396 32.0132 37.4865 33.279 36.5839C33.9119 36.1591 34.5448 35.7343 35.1776 35.3095C35.4413 35.0971 35.8105 34.9378 36.3379 34.6724Z" fill="#484A4C"/>
<path fill-rule="evenodd" clip-rule="evenodd" d="M33.5954 29.8405C32.1715 29.0972 31.2221 28.3007 31.1694 26.814C31.1167 25.6989 30.8002 24.5308 31.6441 23.3096C31.855 23.6813 31.9605 23.8405 32.0132 24.0529C32.1187 24.8494 32.1715 25.699 32.2769 26.4954C32.3824 27.3981 32.7516 28.0352 33.5954 28.46C35.0194 29.0972 35.0722 30.3715 34.2811 31.5397C33.9119 32.1237 33.3317 32.5485 32.8043 33.0264C32.4879 33.2919 32.0132 33.1857 31.855 32.9202C31.6968 32.6016 31.8023 32.3361 32.0132 32.1237C32.2769 31.8051 32.6461 31.5928 32.9098 31.2742C33.068 30.7963 33.279 30.3715 33.5954 29.8405Z" fill="#484A4C"/>
<path fill-rule="evenodd" clip-rule="evenodd" d="M21.9926 26.8672C22.0981 26.5486 22.2036 25.9645 22.4145 25.4866C22.731 24.9026 23.5748 24.9557 23.8385 25.5397C24.3132 26.5486 24.3132 27.6105 23.6803 28.5663C23.5221 28.8318 23.1529 28.9911 22.8365 29.0441C22.52 29.0972 22.1508 28.7256 22.0981 28.1946C22.0454 27.876 22.0454 27.5043 21.9926 26.8672Z" fill="#484A4C"/>
<path fill-rule="evenodd" clip-rule="evenodd" d="M36.3907 25.9645C36.4961 25.5928 36.5489 25.168 36.7071 24.7963C36.9708 24.2122 37.8147 24.2122 38.1311 24.6901C38.6058 25.4335 38.6585 26.2299 38.4475 27.0264C38.3948 27.2388 38.1838 27.3981 38.0256 27.5574C37.6037 27.9291 36.9181 27.8229 36.7071 27.2919C36.5489 26.9202 36.4961 26.4423 36.3907 25.9645Z" fill="#484A4C"/>
<path fill-rule="evenodd" clip-rule="evenodd" d="M39.8715 20.5484C38.8694 20.0175 37.8674 19.5396 36.8653 19.0086C36.8126 18.4246 37.2872 18.3184 37.6564 18.3715C38.764 18.5838 39.6605 19.1679 39.8715 20.5484Z" fill="#484A4C"/>
<path fill-rule="evenodd" clip-rule="evenodd" d="M23.4166 20.3893C22.52 20.761 21.6762 21.1327 20.8323 21.5043C20.7269 21.5574 20.5686 21.345 20.4632 21.2388C20.4104 21.1858 20.4104 21.0265 20.4632 20.9203C20.9906 20.1238 22.0981 19.699 23.0474 19.9645C23.1529 20.0176 23.2584 20.23 23.4166 20.3893Z" fill="#484A4C"/>
</g>
<defs>
<clipPath id="clip0_168_264">
<rect width="60.1237" height="72" fill="white"/>
</clipPath>
</defs>
</svg>
